SplineFontDB: 3.2
FontName: Ionicons
FullName: Ionicons
FamilyName: Ionicons
Weight: Book
Copyright: Copyright (c) 2018, Kevin Ports
Version: 001.000
ItalicAngle: 0
UnderlinePosition: -76
UnderlineWidth: 25
Ascent: 448
Descent: 64
InvalidEm: 0
sfntRevision: 0x00010000
LayerCount: 2
Layer: 0 1 "Back" 1
Layer: 1 1 "Fore" 0
XUID: [1021 386 -1677374080 11639293]
StyleMap: 0x0000
FSType: 0
OS2Version: 4
OS2_WeightWidthSlopeOnly: 0
OS2_UseTypoMetrics: 1
CreationTime: 1539892249
ModificationTime: 1614950480
PfmFamily: 17
TTFWeight: 400
TTFWidth: 5
LineGap: 46
VLineGap: 0
Panose: 2 0 5 3 0 0 0 0 0 0
OS2TypoAscent: 448
OS2TypoAOffset: 0
OS2TypoDescent: -64
OS2TypoDOffset: 0
OS2TypoLinegap: 46
OS2WinAscent: 449
OS2WinAOffset: 0
OS2WinDescent: 65
OS2WinDOffset: 0
HheadAscent: 449
HheadAOffset: 0
HheadDescent: -65
HheadDOffset: 0
OS2SubXSize: 332
OS2SubYSize: 358
OS2SubXOff: 0
OS2SubYOff: 71
OS2SupXSize: 332
OS2SupYSize: 358
OS2SupXOff: 0
OS2SupYOff: 245
OS2StrikeYSize: 25
OS2StrikeYPos: 132
OS2Vendor: 'PfEd'
OS2CodePages: 00000001.00000000
OS2UnicodeRanges: 00000000.10000000.00000000.00000000
DEI: 91125
ShortTable: cvt  2
  17
  324
EndShort
ShortTable: maxp 16
  1
  0
  699
  320
  17
  0
  0
  2
  0
  1
  1
  0
  64
  46
  0
  0
EndShort
LangName: 1033 "" "" "Regular" "FontForge 2.0 : Ionicons : 18-10-2018"
GaspTable: 1 65535 2 0
Encoding: UnicodeBmp
UnicodeInterp: none
NameList: AGL For New Fonts
DisplaySize: -72
AntiAlias: 1
FitToEm: 0
WinInfo: 65052 26 10
BeginChars: 65539 702

StartChar: .notdef
Encoding: 65536 -1 0
Width: 187
Flags: W
LayerCount: 2
Fore
SplineSet
17 0 m 1,0,-1
 17 341 l 1,1,-1
 153 341 l 1,2,-1
 153 0 l 1,3,-1
 17 0 l 1,0,-1
34 17 m 1,4,-1
 136 17 l 1,5,-1
 136 324 l 1,6,-1
 34 324 l 1,7,-1
 34 17 l 1,4,-1
EndSplineSet
Validated: 1
EndChar

StartChar: uniF100
Encoding: 61696 61696 3
Width: 416
Flags: W
LayerCount: 2
Fore
SplineSet
298 208 m 2,0,1
 314 208 314 208 314 192 c 128,-1,2
 314 176 314 176 298 176 c 2,3,-1
 224 176 l 1,4,-1
 224 102 l 2,5,6
 224 86 224 86 208 86 c 128,-1,7
 192 86 192 86 192 102 c 2,8,-1
 192 176 l 1,9,-1
 118 176 l 2,10,11
 102 176 102 176 102 192 c 128,-1,12
 102 208 102 208 118 208 c 2,13,-1
 192 208 l 1,14,-1
 192 282 l 2,15,16
 192 298 192 298 208 298 c 128,-1,17
 224 298 224 298 224 282 c 2,18,-1
 224 208 l 1,19,-1
 298 208 l 2,0,1
208 372 m 128,-1,21
 134 372 134 372 81 319 c 128,-1,22
 28 266 28 266 28 192 c 128,-1,23
 28 118 28 118 81 65 c 128,-1,24
 134 12 134 12 208 12 c 128,-1,25
 282 12 282 12 335 65 c 128,-1,26
 388 118 388 118 388 192 c 128,-1,27
 388 266 388 266 335 319 c 128,-1,20
 282 372 282 372 208 372 c 128,-1,21
208 400 m 128,-1,29
 294 400 294 400 355 339 c 128,-1,30
 416 278 416 278 416 192 c 128,-1,31
 416 106 416 106 355 45 c 128,-1,32
 294 -16 294 -16 208 -16 c 128,-1,33
 122 -16 122 -16 61 45 c 128,-1,34
 0 106 0 106 0 192 c 128,-1,35
 0 278 0 278 61 339 c 128,-1,28
 122 400 122 400 208 400 c 128,-1,29
EndSplineSet
Validated: 1
EndChar

StartChar: uniF101
Encoding: 61697 61697 4
Width: 416
Flags: W
LayerCount: 2
Fore
SplineSet
208 400 m 128,-1,1
 294 400 294 400 355 339 c 128,-1,2
 416 278 416 278 416 192 c 128,-1,3
 416 106 416 106 355 45 c 128,-1,4
 294 -16 294 -16 208 -16 c 128,-1,5
 122 -16 122 -16 61 45 c 128,-1,6
 0 106 0 106 0 192 c 128,-1,7
 0 278 0 278 61 339 c 128,-1,0
 122 400 122 400 208 400 c 128,-1,1
298 176 m 2,8,9
 314 176 314 176 314 192 c 128,-1,10
 314 208 314 208 298 208 c 2,11,-1
 224 208 l 1,12,-1
 224 282 l 2,13,14
 224 298 224 298 208 298 c 128,-1,15
 192 298 192 298 192 282 c 2,16,-1
 192 208 l 1,17,-1
 118 208 l 2,18,19
 102 208 102 208 102 192 c 0,20,21
 102 185 102 185 106 181 c 0,22,23
 111 176 111 176 118 176 c 2,24,-1
 192 176 l 1,25,-1
 192 102 l 2,26,27
 192 95 192 95 197 90 c 0,28,29
 201 86 201 86 208 86 c 0,30,31
 224 86 224 86 224 102 c 2,32,-1
 224 176 l 1,33,-1
 298 176 l 2,8,9
EndSplineSet
Validated: 1
EndChar

StartChar: uniF102
Encoding: 61698 61698 5
Width: 257
Flags: W
LayerCount: 2
Fore
SplineSet
241 208 m 2,0,1
 257 208 257 208 257 192 c 128,-1,2
 257 176 257 176 241 176 c 2,3,-1
 144 176 l 1,4,-1
 144 80 l 2,5,6
 144 64 144 64 128 64 c 0,7,8
 121 64 121 64 117 68 c 0,9,10
 112 73 112 73 112 80 c 2,11,-1
 112 176 l 1,12,-1
 16 176 l 2,13,14
 10 176 10 176 5 181 c 128,-1,15
 0 186 0 186 0 192 c 0,16,17
 0 208 0 208 16 208 c 2,18,-1
 112 208 l 1,19,-1
 112 304 l 2,20,21
 112 320 112 320 128 320 c 128,-1,22
 144 320 144 320 144 304 c 2,23,-1
 144 208 l 1,24,-1
 241 208 l 2,0,1
EndSplineSet
Validated: 1
EndChar

StartChar: uniF103
Encoding: 61699 61699 6
Width: 348
Flags: W
LayerCount: 2
Fore
SplineSet
334 14 m 2,0,1
 348 14 348 14 348 1 c 0,2,3
 348 -14 348 -14 334 -14 c 2,4,-1
 14 -14 l 2,5,6
 0 -14 0 -14 0 1 c 0,7,8
 0 14 0 14 14 14 c 2,9,-1
 20 14 l 2,10,11
 31 14 31 14 32 21 c 2,12,-1
 32 22 l 1,13,14
 37 68 37 68 53.5 101 c 128,-1,15
 70 134 70 134 87.5 146.5 c 128,-1,16
 105 159 105 159 118.5 170.5 c 128,-1,17
 132 182 132 182 132 192 c 128,-1,18
 132 202 132 202 118.5 213.5 c 128,-1,19
 105 225 105 225 88 237.5 c 128,-1,20
 71 250 71 250 54 283 c 128,-1,21
 37 316 37 316 32 362 c 1,22,-1
 32 363 l 2,23,24
 31 370 31 370 20 370 c 2,25,-1
 14 370 l 2,26,27
 0 370 0 370 0 385 c 0,28,29
 0 398 0 398 14 398 c 2,30,-1
 334 398 l 2,31,32
 348 398 348 398 348 383 c 0,33,34
 348 370 348 370 334 370 c 2,35,-1
 329 370 l 2,36,37
 317 370 317 370 316 363 c 2,38,-1
 316 362 l 1,39,40
 311 316 311 316 294.5 283 c 128,-1,41
 278 250 278 250 260.5 237.5 c 128,-1,42
 243 225 243 225 229.5 213.5 c 128,-1,43
 216 202 216 202 216 192 c 128,-1,44
 216 182 216 182 229.5 170.5 c 128,-1,45
 243 159 243 159 260 146.5 c 128,-1,46
 277 134 277 134 294 101 c 128,-1,47
 311 68 311 68 316 22 c 1,48,-1
 316 21 l 2,49,50
 317 14 317 14 329 14 c 2,51,-1
 334 14 l 2,0,1
81 48 m 0,52,53
 78 43 78 43 80 37.5 c 128,-1,54
 82 32 82 32 88 32 c 2,55,-1
 260 32 l 2,56,57
 266 32 266 32 268 37.5 c 128,-1,58
 270 43 270 43 267 48 c 0,59,60
 257 75 257 75 242 93 c 128,-1,61
 227 111 227 111 215.5 117.5 c 128,-1,62
 204 124 204 124 195.5 132 c 128,-1,63
 187 140 187 140 187 150 c 2,64,-1
 187 205 l 2,65,66
 187 213 187 213 196.5 222 c 128,-1,67
 206 231 206 231 222 244 c 128,-1,68
 238 257 238 257 247 270 c 0,69,70
 250 274 250 274 248 278 c 128,-1,71
 246 282 246 282 241 282 c 2,72,-1
 108 282 l 2,73,74
 103 282 103 282 100.5 278 c 128,-1,75
 98 274 98 274 101 270 c 0,76,77
 110 257 110 257 126 244 c 128,-1,78
 142 231 142 231 151.5 222 c 128,-1,79
 161 213 161 213 161 205 c 2,80,-1
 161 150 l 2,81,82
 161 137 161 137 147.5 128.5 c 128,-1,83
 134 120 134 120 113.5 101 c 128,-1,84
 93 82 93 82 81 48 c 0,52,53
EndSplineSet
Validated: 1
EndChar

StartChar: uniF104
Encoding: 61700 61700 7
Width: 416
Flags: W
LayerCount: 2
Fore
SplineSet
208 400 m 128,-1,1
 294 400 294 400 355 339 c 128,-1,2
 416 278 416 278 416 192 c 128,-1,3
 416 106 416 106 355 45 c 128,-1,4
 294 -16 294 -16 208 -16 c 128,-1,5
 122 -16 122 -16 61 45 c 128,-1,6
 0 106 0 106 0 192 c 128,-1,7
 0 278 0 278 61 339 c 128,-1,0
 122 400 122 400 208 400 c 128,-1,1
225 290 m 2,8,9
 225 308 225 308 208 308 c 128,-1,10
 191 308 191 308 191 290 c 2,11,-1
 194 175 l 2,12,13
 194 160 194 160 208 160 c 128,-1,14
 222 160 222 160 222 175 c 2,15,-1
 225 290 l 2,8,9
208 94 m 128,-1,17
 216 94 216 94 221.5 99 c 128,-1,18
 227 104 227 104 227 112 c 128,-1,19
 227 120 227 120 221.5 125.5 c 128,-1,20
 216 131 216 131 208 131 c 128,-1,21
 200 131 200 131 194.5 125.5 c 128,-1,22
 189 120 189 120 189 112 c 128,-1,23
 189 104 189 104 194.5 99 c 128,-1,16
 200 94 200 94 208 94 c 128,-1,17
EndSplineSet
Validated: 1
EndChar

StartChar: uniF105
Encoding: 61701 61701 8
Width: 448
Flags: W
LayerCount: 2
Fore
SplineSet
0 352 m 1,0,-1
 448 352 l 1,1,-1
 448 32 l 1,2,-1
 0 32 l 1,3,-1
 0 352 l 1,0,-1
406 192 m 0,4,5
 406 230 406 230 403 262 c 0,6,7
 398 311 398 311 351 315 c 0,8,9
 319 318 319 318 224 318 c 128,-1,10
 129 318 129 318 97 315 c 0,11,12
 50 311 50 311 45 262 c 0,13,14
 42 230 42 230 42 192 c 0,15,16
 42 166 42 166 45 122 c 0,17,18
 48 73 48 73 97 69 c 0,19,20
 132 66 132 66 224 66 c 128,-1,21
 316 66 316 66 351 69 c 0,22,23
 400 73 400 73 403 122 c 0,24,25
 406 165 406 165 406 192 c 0,4,5
326 168 m 1,26,-1
 325 171 l 1,27,-1
 371 171 l 1,28,29
 371 134 371 134 355 117 c 0,30,31
 338 98 338 98 301 98 c 0,32,33
 285 98 285 98 270 103 c 0,34,35
 259 107 259 107 249 118 c 0,36,37
 241 128 241 128 236 146 c 0,38,39
 231 166 231 166 231 192 c 0,40,41
 231 219 231 219 237 237 c 0,42,43
 244 258 244 258 252 266 c 0,44,45
 262 276 262 276 276 281 c 0,46,47
 291 286 291 286 306 286 c 0,48,49
 338 286 338 286 355 267 c 128,-1,50
 372 248 372 248 372 213 c 1,51,-1
 326 213 l 1,52,-1
 326 214 l 2,53,54
 326 227 326 227 319 235 c 128,-1,55
 312 243 312 243 302 243 c 0,56,57
 281 243 281 243 278 217 c 0,58,59
 277 207 277 207 277 191 c 2,60,-1
 278 167 l 2,61,62
 280 141 280 141 302 141 c 0,63,64
 326 141 326 141 326 167 c 2,65,-1
 326 168 l 1,26,-1
171 168 m 1,66,-1
 170 171 l 1,67,-1
 216 171 l 1,68,69
 216 134 216 134 200 117 c 0,70,71
 183 98 183 98 146 98 c 0,72,73
 131 98 131 98 116 103 c 0,74,75
 103 107 103 107 94 118 c 0,76,77
 86 128 86 128 81 146 c 0,78,79
 76 166 76 166 76 192 c 0,80,81
 76 219 76 219 82 237 c 0,82,83
 89 258 89 258 97 266 c 0,84,85
 108 276 108 276 121 281 c 0,86,87
 136 286 136 286 151 286 c 0,88,89
 183 286 183 286 200 267 c 128,-1,90
 217 248 217 248 217 213 c 1,91,-1
 172 213 l 1,92,-1
 172 214 l 2,93,94
 172 227 172 227 165 235 c 128,-1,95
 158 243 158 243 148 243 c 0,96,97
 126 243 126 243 123 217 c 0,98,99
 122 207 122 207 122 191 c 2,100,-1
 123 167 l 2,101,102
 125 141 125 141 147 141 c 0,103,104
 171 141 171 141 171 167 c 2,105,-1
 171 168 l 1,66,-1
EndSplineSet
Validated: 1
EndChar

StartChar: uniF106
Encoding: 61702 61702 9
Width: 416
Flags: W
LayerCount: 2
Fore
SplineSet
331 315 m 128,-1,1
 384 262 384 262 404 167 c 1,2,-1
 233 -4 l 1,3,4
 138 16 138 16 85 69 c 128,-1,5
 32 122 32 122 12 217 c 1,6,-1
 183 388 l 1,7,0
 278 368 278 368 331 315 c 128,-1,1
296 160 m 2,8,9
 305 169 305 169 297 178 c 0,10,11
 293 182 293 182 286 182 c 0,12,13
 282 182 282 182 278 178 c 2,14,-1
 259 159 l 1,15,-1
 243 175 l 1,16,-1
 263 194 l 2,17,18
 269 200 269 200 266 207 c 0,19,20
 266 208 266 208 265.5 208 c 128,-1,21
 265 208 265 208 265 209 c 0,22,23
 260 217 260 217 252 216 c 0,24,25
 248 216 248 216 244 212 c 2,26,-1
 225 193 l 1,27,-1
 209 209 l 1,28,-1
 229 228 l 2,29,30
 235 234 235 234 232 241 c 2,31,-1
 229 247 l 2,32,33
 224 252 224 252 217 250 c 0,34,35
 214 250 214 250 210 246 c 2,36,-1
 191 227 l 1,37,-1
 175 243 l 1,38,-1
 195 262 l 2,39,40
 201 268 201 268 198 275 c 0,41,42
 198 276 198 276 197.5 276 c 128,-1,43
 197 276 197 276 197 277 c 0,44,45
 192 285 192 285 184 284 c 0,46,47
 180 284 180 284 176 280 c 2,48,-1
 157 261 l 1,49,-1
 142 276 l 2,50,51
 133 285 133 285 124 276 c 128,-1,52
 115 267 115 267 124 258 c 2,53,-1
 139 243 l 1,54,-1
 120 224 l 2,55,56
 113 217 113 217 116 211 c 0,57,58
 116 210 116 210 116.5 210 c 128,-1,59
 117 210 117 210 117 209 c 0,60,61
 122 201 122 201 131 202 c 0,62,63
 134 202 134 202 138 206 c 2,64,-1
 158 225 l 1,65,-1
 173 209 l 1,66,-1
 154 190 l 2,67,68
 147 183 147 183 150 177 c 0,69,70
 150 176 150 176 150.5 176 c 128,-1,71
 151 176 151 176 151 175 c 0,72,73
 156 167 156 167 165 168 c 0,74,75
 168 168 168 168 172 172 c 2,76,-1
 191 191 l 1,77,-1
 207 175 l 1,78,-1
 187 156 l 2,79,80
 181 150 181 150 184 143 c 0,81,82
 184 142 184 142 184.5 142 c 128,-1,83
 185 142 185 142 185 141 c 0,84,85
 190 133 190 133 198 134 c 0,86,87
 202 134 202 134 206 138 c 2,88,-1
 225 157 l 1,89,-1
 241 141 l 1,90,-1
 221 122 l 2,91,92
 216 117 216 117 218 109 c 0,93,94
 220 105 220 105 221 104 c 0,95,96
 227 98 227 98 233 100 c 0,97,98
 236 100 236 100 240 104 c 2,99,-1
 259 123 l 1,100,-1
 274 108 l 2,101,102
 283 99 283 99 292 108 c 128,-1,103
 301 117 301 117 292 126 c 2,104,-1
 277 141 l 1,105,-1
 296 160 l 2,8,9
347 -16 m 0,106,107
 299 -16 299 -16 262 -10 c 1,108,-1
 410 138 l 1,109,110
 421 67 421 67 413 -6 c 0,111,112
 413 -13 413 -13 406 -13 c 0,113,114
 376 -16 376 -16 347 -16 c 0,106,107
69 400 m 0,115,116
 117 400 117 400 154 394 c 1,117,-1
 6 246 l 1,118,119
 -5 317 -5 317 3 390 c 0,120,121
 3 397 3 397 10 397 c 0,122,123
 40 400 40 400 69 400 c 0,115,116
EndSplineSet
Validated: 33
EndChar

StartChar: uniF107
Encoding: 61703 61703 10
Width: 384
Flags: W
LayerCount: 2
Fore
SplineSet
288 384 m 2,0,1
 328 384 328 384 356 356 c 128,-1,2
 384 328 384 328 384 288 c 2,3,-1
 384 96 l 2,4,5
 384 56 384 56 356 28 c 128,-1,6
 328 0 328 0 288 0 c 2,7,-1
 96 0 l 2,8,9
 56 0 56 0 28 28 c 128,-1,10
 0 56 0 56 0 96 c 2,11,-1
 0 288 l 2,12,13
 0 328 0 328 28 356 c 128,-1,14
 56 384 56 384 96 384 c 2,15,-1
 288 384 l 2,0,1
120 144 m 128,-1,17
 140 144 140 144 154 158 c 128,-1,18
 168 172 168 172 168 192 c 128,-1,19
 168 212 168 212 154 226 c 128,-1,20
 140 240 140 240 120 240 c 128,-1,21
 100 240 100 240 86 226 c 128,-1,22
 72 212 72 212 72 192 c 128,-1,23
 72 172 72 172 86 158 c 128,-1,16
 100 144 100 144 120 144 c 128,-1,17
264 144 m 128,-1,25
 284 144 284 144 298 158 c 128,-1,26
 312 172 312 172 312 192 c 128,-1,27
 312 212 312 212 298 226 c 128,-1,28
 284 240 284 240 264 240 c 128,-1,29
 244 240 244 240 230 226 c 128,-1,30
 216 212 216 212 216 192 c 128,-1,31
 216 172 216 172 230 158 c 128,-1,24
 244 144 244 144 264 144 c 128,-1,25
EndSplineSet
Validated: 1
EndChar

StartChar: uniF108
Encoding: 61704 61704 11
Width: 416
Flags: W
LayerCount: 2
Fore
SplineSet
202 77 m 2,0,-1
 381 77 l 1,1,2
 342 19 342 19 278 -4 c 1,3,-1
 256 18 l 1,4,-1
 201 73 l 2,5,6
 200 74 200 74 200.5 75.5 c 128,-1,7
 201 77 201 77 202 77 c 2,0,-1
119 113 m 2,8,9
 119 114 119 114 120 115 c 128,-1,10
 121 116 121 116 122 115 c 2,11,-1
 249 -12 l 1,12,13
 232 -16 232 -16 208 -16 c 0,14,15
 161 -16 161 -16 119 4 c 1,16,-1
 119 113 l 2,8,9
208 400 m 0,17,18
 256 400 256 400 298 380 c 1,19,-1
 298 271 l 2,20,21
 298 270 298 270 296.5 269 c 128,-1,22
 295 268 295 268 294 269 c 2,23,-1
 168 396 l 1,24,25
 185 400 185 400 208 400 c 0,17,18
20 281 m 1,26,-1
 130 281 l 2,27,28
 131 281 131 281 131.5 280 c 128,-1,29
 132 279 132 279 131 278 c 2,30,-1
 4 151 l 1,31,32
 0 168 0 168 0 192 c 0,33,34
 0 239 0 239 20 281 c 1,26,-1
139 388 m 1,35,-1
 216 311 l 2,36,37
 217 310 217 310 216.5 308.5 c 128,-1,38
 216 307 216 307 215 307 c 2,39,-1
 35 307 l 1,40,41
 75 366 75 366 139 388 c 1,35,-1
119 227 m 2,42,43
 119 229 119 229 120 230 c 2,44,-1
 170 280 l 2,45,46
 171 281 171 281 173 281 c 2,47,-1
 244 281 l 2,48,49
 245 281 245 281 246 280 c 2,50,-1
 296 230 l 2,51,52
 298 228 298 228 298 227 c 2,53,-1
 298 157 l 2,54,55
 298 156 298 156 296 154 c 2,56,-1
 246 104 l 2,57,58
 245 103 245 103 244 103 c 2,59,-1
 173 103 l 2,60,61
 171 103 171 103 170 104 c 2,62,-1
 120 154 l 2,63,64
 119 155 119 155 119 157 c 2,65,-1
 119 227 l 2,42,43
412 232 m 1,66,67
 416 215 416 215 416 192 c 0,68,69
 416 145 416 145 396 103 c 1,70,-1
 287 103 l 2,71,72
 286 103 286 103 285.5 104 c 128,-1,73
 285 105 285 105 286 106 c 2,74,-1
 412 232 l 1,66,67
324 365 m 1,75,76
 381 326 381 326 404 261 c 1,77,-1
 327 184 l 2,78,79
 326 183 326 183 325 184 c 128,-1,80
 324 185 324 185 324 186 c 2,81,-1
 324 365 l 1,75,76
12 122 m 1,82,-1
 90 200 l 2,83,84
 91 201 91 201 92 200 c 128,-1,85
 93 199 93 199 93 198 c 2,86,-1
 93 19 l 1,87,88
 34 59 34 59 12 122 c 1,82,-1
EndSplineSet
Validated: 1
EndChar

StartChar: uniF109
Encoding: 61705 61705 12
Width: 448
Flags: W
LayerCount: 2
Fore
SplineSet
328 144 m 1,0,-1
 328 192 l 1,1,-1
 344 192 l 1,2,-1
 344 144 l 1,3,-1
 328 144 l 1,0,-1
80 144 m 1,4,-1
 80 192 l 1,5,-1
 162 192 l 1,6,-1
 210 144 l 1,7,-1
 80 144 l 1,4,-1
332 388 m 0,8,9
 385 359 385 359 416.5 306.5 c 128,-1,10
 448 254 448 254 448 192 c 0,11,12
 448 99 448 99 382.5 33.5 c 128,-1,13
 317 -32 317 -32 224 -32 c 0,14,15
 189 -32 189 -32 156 -21 c 0,16,17
 155 -20 155 -20 153.5 -20 c 128,-1,18
 152 -20 152 -20 151 -19 c 0,19,20
 132 -13 132 -13 116 -4 c 1,21,-1
 115 -4 l 1,22,23
 63 25 63 25 31.5 77.5 c 128,-1,24
 0 130 0 130 0 192 c 0,25,26
 0 285 0 285 65.5 350.5 c 128,-1,27
 131 416 131 416 224 416 c 0,28,29
 259 416 259 416 292 405 c 0,30,31
 293 404 293 404 294.5 404 c 128,-1,32
 296 404 296 404 297 403 c 0,33,34
 316 397 316 397 332 388 c 0,8,9
224 22 m 0,35,36
 279 22 279 22 324 54 c 1,37,-1
 86 292 l 1,38,39
 54 247 54 247 54 192 c 0,40,41
 54 144 54 144 78.5 104 c 128,-1,42
 103 64 103 64 144 42 c 0,43,44
 160 34 160 34 163 33 c 0,45,46
 164 32 164 32 165.5 32 c 128,-1,47
 167 32 167 32 168 31 c 0,48,49
 177 28 177 28 197 24 c 0,50,51
 206 22 206 22 224 22 c 0,35,36
362 93 m 1,52,53
 394 138 394 138 394 192 c 0,54,55
 394 241 394 241 369 281.5 c 128,-1,56
 344 322 344 322 303 343 c 0,57,58
 291 349 291 349 285 351 c 0,59,60
 284 352 284 352 282.5 352 c 128,-1,61
 281 352 281 352 280 353 c 0,62,63
 271 356 271 356 251 360 c 0,64,65
 242 362 242 362 224 362 c 0,66,67
 170 362 170 362 125 330 c 1,68,-1
 362 93 l 1,52,53
320 192 m 1,69,-1
 320 158 l 1,70,-1
 286 192 l 1,71,-1
 320 192 l 1,69,-1
352 144 m 1,72,-1
 352 192 l 1,73,-1
 368 192 l 1,74,-1
 368 144 l 1,75,-1
 352 144 l 1,72,-1
328 235 m 0,76,77
 344 228 344 228 344 205 c 2,78,-1
 344 204 l 1,79,-1
 328 204 l 1,80,-1
 328 205 l 2,81,82
 328 218 328 218 321 221 c 0,83,84
 313 225 313 225 282 225 c 2,85,-1
 279 225 l 2,86,87
 255 225 255 225 246 238 c 0,88,89
 239 250 239 250 244 267 c 1,90,-1
 239 268 l 2,91,92
 234 269 234 269 232 270 c 0,93,94
 206 281 206 281 206 308 c 0,95,96
 206 330 206 330 219.5 341 c 128,-1,97
 233 352 233 352 245 352 c 1,98,-1
 245 336 l 1,99,100
 243 336 243 336 238.5 335 c 128,-1,101
 234 334 234 334 228 327 c 128,-1,102
 222 320 222 320 222 308 c 0,103,104
 222 291 222 291 238 285 c 2,105,-1
 256 282 l 2,106,107
 261 282 261 282 263 277 c 0,108,109
 265 271 265 271 263 269 c 0,110,111
 253 255 253 255 259 247 c 0,112,113
 263 241 263 241 279 241 c 2,114,-1
 282 241 l 2,115,116
 314 241 314 241 328 235 c 0,76,77
368 204 m 1,117,-1
 352 204 l 1,118,119
 352 234 352 234 345 246 c 0,120,121
 337 260 337 260 320 260 c 2,122,-1
 290 260 l 2,123,124
 286 260 286 260 284 264 c 128,-1,125
 282 268 282 268 284 272 c 0,126,127
 285 274 285 274 286 277.5 c 128,-1,128
 287 281 287 281 289 289.5 c 128,-1,129
 291 298 291 298 290 304 c 0,130,131
 288 321 288 321 263 321 c 1,132,-1
 263 337 l 1,133,134
 301 337 301 337 306 307 c 0,135,136
 309 292 309 292 303 276 c 1,137,-1
 320 276 l 2,138,139
 345 276 345 276 359 254 c 0,140,141
 368 239 368 239 368 204 c 1,117,-1
EndSplineSet
Validated: 33
EndChar

StartChar: uniF10A
Encoding: 61706 61706 13
Width: 384
Flags: W
LayerCount: 2
Fore
SplineSet
371 310 m 2,0,1
 384 304 384 304 384 295.5 c 128,-1,2
 384 287 384 287 371 281 c 2,3,-1
 223 214 l 2,4,5
 210 208 210 208 192 208 c 128,-1,6
 174 208 174 208 161 214 c 2,7,-1
 13 281 l 2,8,9
 0 287 0 287 0 295.5 c 128,-1,10
 0 304 0 304 13 310 c 2,11,-1
 163 378 l 2,12,13
 192 391 192 391 222 378 c 2,14,-1
 371 310 l 2,0,1
161 73 m 2,15,16
 174 67 174 67 192 67 c 128,-1,17
 210 67 210 67 223 73 c 2,18,-1
 323 118 l 2,19,20
 330 121 330 121 336 118 c 2,21,-1
 371 102 l 2,22,23
 384 96 384 96 384 87.5 c 128,-1,24
 384 79 384 79 371 73 c 2,25,-1
 223 6 l 2,26,27
 210 0 210 0 192 0 c 128,-1,28
 174 0 174 0 161 6 c 2,29,-1
 13 73 l 2,30,31
 0 79 0 79 0 87.5 c 128,-1,32
 0 96 0 96 13 102 c 2,33,-1
 48 118 l 2,34,35
 55 122 55 122 62 118 c 2,36,-1
 161 73 l 2,15,16
371 206 m 2,37,38
 384 200 384 200 384 191.5 c 128,-1,39
 384 183 384 183 371 177 c 2,40,-1
 223 110 l 2,41,42
 210 104 210 104 192 104 c 128,-1,43
 174 104 174 104 161 110 c 2,44,-1
 13 177 l 2,45,46
 0 183 0 183 0 191.5 c 128,-1,47
 0 200 0 200 13 206 c 2,48,-1
 45 221 l 2,49,50
 52 224 52 224 58 221 c 2,51,-1
 166 172 l 2,52,53
 192 163 192 163 218 172 c 2,54,-1
 326 221 l 2,55,56
 332 224 332 224 339 221 c 2,57,-1
 371 206 l 2,37,38
EndSplineSet
Validated: 33
EndChar

StartChar: uniF10B
Encoding: 61707 61707 14
Width: 480
Flags: W
LayerCount: 2
Fore
SplineSet
218 150 m 1,0,-1
 198 212 l 1,1,-1
 262 233 l 1,2,-1
 282 171 l 1,3,-1
 218 150 l 1,0,-1
218 150 m 1,4,-1
 198 212 l 1,5,-1
 262 233 l 1,6,-1
 282 171 l 1,7,-1
 218 150 l 1,4,-1
460 258 m 0,8,9
 497 134 497 134 463.5 72 c 128,-1,10
 430 10 430 10 306 -28 c 0,11,12
 182 -65 182 -65 120 -31.5 c 128,-1,13
 58 2 58 2 20 126 c 0,14,15
 -17 250 -17 250 16.5 312 c 128,-1,16
 50 374 50 374 174 412 c 0,17,18
 298 449 298 449 360 415.5 c 128,-1,19
 422 382 422 382 460 258 c 0,8,9
377 151 m 2,20,21
 387 154 387 154 391 163.5 c 128,-1,22
 395 173 395 173 392 183 c 0,23,24
 385 205 385 205 361 198 c 2,25,-1
 330 188 l 1,26,-1
 309 250 l 1,27,-1
 340 260 l 2,28,29
 350 263 350 263 354.5 272.5 c 128,-1,30
 359 282 359 282 356 292 c 128,-1,31
 353 302 353 302 343.5 306 c 128,-1,32
 334 310 334 310 324 307 c 2,33,-1
 293 297 l 1,34,-1
 283 329 l 2,35,36
 280 339 280 339 270.5 343.5 c 128,-1,37
 261 348 261 348 251 345 c 128,-1,38
 241 342 241 342 236.5 332.5 c 128,-1,39
 232 323 232 323 235 313 c 2,40,-1
 246 281 l 1,41,-1
 182 260 l 1,42,-1
 171 292 l 2,43,44
 168 302 168 302 159 306.5 c 128,-1,45
 150 311 150 311 140 308 c 128,-1,46
 130 305 130 305 125.5 295.5 c 128,-1,47
 121 286 121 286 124 276 c 2,48,-1
 135 244 l 1,49,-1
 104 234 l 2,50,51
 94 231 94 231 89.5 221.5 c 128,-1,52
 85 212 85 212 88 202 c 0,53,54
 93 185 93 185 111 185 c 0,55,56
 117 185 117 185 120 186 c 2,57,-1
 151 197 l 1,58,-1
 171 135 l 1,59,-1
 140 124 l 2,60,61
 118 117 118 117 125 93 c 0,62,63
 130 76 130 76 148 76 c 0,64,65
 153 76 153 76 156 77 c 2,66,-1
 187 88 l 1,67,-1
 198 55 l 2,68,69
 203 38 203 38 221 38 c 0,70,71
 223 38 223 38 229 40 c 0,72,73
 239 43 239 43 243.5 52 c 128,-1,74
 248 61 248 61 245 71 c 2,75,-1
 234 103 l 1,76,-1
 298 125 l 1,77,-1
 309 92 l 2,78,79
 314 76 314 76 332 76 c 0,80,81
 338 76 338 76 341 77 c 0,82,83
 363 84 363 84 356 108 c 2,84,-1
 346 140 l 1,85,-1
 377 151 l 2,20,21
EndSplineSet
Validated: 37
EndChar

StartChar: uniF10C
Encoding: 61708 61708 15
Width: 416
Flags: W
LayerCount: 2
Fore
SplineSet
208 400 m 128,-1,1
 294 400 294 400 355 339 c 128,-1,2
 416 278 416 278 416 192 c 128,-1,3
 416 106 416 106 355 45 c 128,-1,4
 294 -16 294 -16 208 -16 c 128,-1,5
 122 -16 122 -16 61 45 c 128,-1,6
 0 106 0 106 0 192 c 128,-1,7
 0 278 0 278 61 339 c 128,-1,0
 122 400 122 400 208 400 c 128,-1,1
129 103 m 2,8,-1
 147 133 l 1,9,10
 143 145 143 145 127 145 c 2,11,-1
 125 145 l 2,12,13
 122 145 122 145 118 141 c 2,14,-1
 104 118 l 2,15,16
 97 105 97 105 109 98 c 0,17,18
 113 96 113 96 117 96 c 0,19,20
 125 96 125 96 129 103 c 2,8,-1
249 150 m 2,21,22
 250 151 250 151 250 154 c 0,23,24
 250 161 250 161 246 168 c 2,25,-1
 245 169 l 2,26,27
 240 178 240 178 227 178 c 2,28,-1
 173 178 l 1,29,-1
 210 240 l 1,30,-1
 226 268 l 1,31,-1
 244 298 l 2,32,33
 251 311 251 311 239 318 c 0,34,35
 226 325 226 325 219 313 c 2,36,-1
 210 297 l 1,37,-1
 200 313 l 2,38,39
 193 325 193 325 180 318 c 0,40,41
 168 311 168 311 176 298 c 2,42,-1
 193 268 l 1,43,-1
 140 178 l 1,44,-1
 95 178 l 2,45,46
 80 178 80 178 80 164 c 0,47,48
 80 149 80 149 94 149 c 2,49,-1
 123 149 l 1,50,-1
 156 149 l 1,51,-1
 249 150 l 2,21,22
322 149 m 2,52,53
 336 149 336 149 336 164 c 0,54,55
 336 178 336 178 321 178 c 2,56,-1
 280 178 l 1,57,-1
 231 260 l 2,58,59
 227 259 227 259 223 251 c 0,60,61
 214 234 214 234 224 215 c 2,62,-1
 246 178 l 1,63,-1
 263 149 l 1,64,-1
 290 103 l 2,65,66
 295 96 295 96 302 96 c 0,67,68
 306 96 306 96 310 98 c 0,69,70
 322 105 322 105 315 118 c 2,71,-1
 296 149 l 1,72,-1
 322 149 l 2,52,53
EndSplineSet
Validated: 33
EndChar

StartChar: uniF10D
Encoding: 61709 61709 16
Width: 448
Flags: W
LayerCount: 2
Fore
SplineSet
395 149 m 0,0,1
 448 100 448 100 448 79 c 0,2,3
 448 72 448 72 442 68 c 0,4,5
 437 64 437 64 408 64 c 2,6,-1
 380 64 l 2,7,8
 359 64 359 64 354 66 c 0,9,10
 345 69 345 69 336 75 c 0,11,12
 330 80 330 80 305 107 c 0,13,14
 297 117 297 117 288 122 c 0,15,16
 277 128 277 128 269 118 c 0,17,18
 262 111 262 111 262 92 c 128,-1,19
 262 73 262 73 256 68 c 0,20,21
 252 66 252 66 250 66 c 0,22,23
 242 64 242 64 217 64 c 0,24,25
 198 64 198 64 167 75 c 128,-1,26
 136 86 136 86 112 113 c 0,27,28
 62 167 62 167 30 233 c 0,29,30
 27 239 27 239 18 256 c 128,-1,31
 9 273 9 273 4.5 283.5 c 128,-1,32
 0 294 0 294 0 299 c 0,33,34
 0 308 0 308 10 308 c 2,35,-1
 76 308 l 2,36,37
 89 308 89 308 95 297 c 0,38,39
 96 294 96 294 103.5 277 c 128,-1,40
 111 260 111 260 118 245 c 0,41,42
 141 201 141 201 159 195 c 0,43,44
 168 195 168 195 169 198 c 0,45,46
 172 204 172 204 175 223 c 0,47,48
 180 263 180 263 170 290 c 0,49,50
 168 294 168 294 159 299 c 0,51,52
 156 300 156 300 152 301 c 0,53,54
 148 303 148 303 148 304 c 0,55,56
 155 313 155 313 167 316 c 0,57,58
 181 320 181 320 207 320 c 0,59,60
 246 320 246 320 255 313 c 0,61,62
 259 309 259 309 260 307 c 0,63,64
 263 301 263 301 261 252 c 0,65,66
 260 207 260 207 266 198 c 0,67,68
 268 195 268 195 272 195 c 128,-1,69
 276 195 276 195 278 196 c 0,70,71
 294 204 294 204 318 248 c 0,72,73
 334 279 334 279 339 292 c 0,74,75
 345 308 345 308 353 308 c 2,76,-1
 427 308 l 2,77,78
 439 308 439 308 443 305 c 128,-1,79
 447 302 447 302 447 294 c 0,80,81
 447 279 447 279 415 236 c 0,82,83
 375 183 375 183 375 177 c 0,84,85
 375 172 375 172 376 169 c 0,86,87
 378 164 378 164 395 149 c 0,0,1
EndSplineSet
Validated: 33
EndChar

StartChar: uniF10E
Encoding: 61710 61710 17
Width: 416
Flags: W
LayerCount: 2
Fore
SplineSet
412 328 m 2,0,-1
 4 328 l 2,1,2
 0 328 0 328 0 332 c 2,3,-1
 0 352 l 2,4,5
 0 366 0 366 9 375 c 128,-1,6
 18 384 18 384 32 384 c 2,7,-1
 384 384 l 2,8,9
 398 384 398 384 407 375 c 128,-1,10
 416 366 416 366 416 352 c 2,11,-1
 416 332 l 2,12,13
 416 328 416 328 412 328 c 2,0,-1
392 302 m 2,14,15
 400 302 400 302 400 294 c 2,16,-1
 400 32 l 2,17,18
 400 18 400 18 391 9 c 128,-1,19
 382 0 382 0 368 0 c 2,20,-1
 48 0 l 2,21,22
 34 0 34 0 25 9 c 128,-1,23
 16 18 16 18 16 32 c 2,24,-1
 16 294 l 2,25,26
 16 302 16 302 24 302 c 2,27,-1
 392 302 l 2,14,15
258 160 m 2,28,29
 264 160 264 160 268.5 165 c 128,-1,30
 273 170 273 170 272 176 c 0,31,32
 270 188 270 188 258 188 c 2,33,-1
 158 188 l 2,34,35
 152 188 152 188 147.5 183 c 128,-1,36
 143 178 143 178 144 172 c 0,37,38
 146 160 146 160 158 160 c 2,39,-1
 258 160 l 2,28,29
EndSplineSet
Validated: 1
EndChar

StartChar: uniF10F
Encoding: 61711 61711 18
Width: 426
Flags: W
LayerCount: 2
Fore
SplineSet
271 144 m 1,0,-1
 271 143 l 1,1,-1
 370 -32 l 1,2,-1
 267 -32 l 2,3,4
 265 -32 265 -32 265 -31 c 2,5,-1
 166 142 l 1,6,-1
 166 144 l 1,7,-1
 322 416 l 1,8,-1
 426 416 l 1,9,-1
 271 144 l 1,0,-1
179 232 m 1,10,-1
 179 231 l 1,11,-1
 98 97 l 2,12,13
 98 96 98 96 97 96 c 2,14,-1
 0 96 l 1,15,-1
 81 231 l 1,16,-1
 81 232 l 1,17,-1
 22 336 l 1,18,-1
 118 336 l 2,19,20
 120 336 120 336 120 335 c 2,21,-1
 179 232 l 1,10,-1
EndSplineSet
Validated: 1
EndChar

StartChar: uniF110
Encoding: 61712 61712 19
Width: 416
Flags: W
LayerCount: 2
Fore
SplineSet
100 237 m 128,-1,1
 114 250 114 250 127 237 c 2,2,-1
 208 156 l 1,3,-1
 289 235 l 2,4,5
 302 248 302 248 316 235 c 0,6,7
 322 229 322 229 322 222 c 0,8,9
 322 214 322 214 316 208 c 2,10,-1
 222 114 l 2,11,12
 208 102 208 102 195 115 c 2,13,-1
 100 210 l 2,14,0
 86 224 86 224 100 237 c 128,-1,1
0 192 m 128,-1,16
 0 278 0 278 61 339 c 128,-1,17
 122 400 122 400 208 400 c 128,-1,18
 294 400 294 400 355 339 c 128,-1,19
 416 278 416 278 416 192 c 128,-1,20
 416 106 416 106 355 45 c 128,-1,21
 294 -16 294 -16 208 -16 c 128,-1,22
 122 -16 122 -16 61 45 c 128,-1,15
 0 106 0 106 0 192 c 128,-1,16
332 316 m 128,-1,24
 280 368 280 368 208 368 c 128,-1,25
 136 368 136 368 84 316 c 128,-1,26
 32 264 32 264 32 192 c 128,-1,27
 32 120 32 120 84 68 c 128,-1,28
 136 16 136 16 208 16 c 128,-1,29
 280 16 280 16 332 68 c 128,-1,30
 384 120 384 120 384 192 c 128,-1,23
 384 264 384 264 332 316 c 128,-1,24
EndSplineSet
Validated: 33
EndChar

StartChar: uniF111
Encoding: 61713 61713 20
Width: 256
Flags: W
LayerCount: 2
Fore
SplineSet
0 400 m 1,0,-1
 256 400 l 1,1,-1
 256 277 l 1,2,-1
 256 277 l 1,3,-1
 171 192 l 1,4,-1
 256 107 l 1,5,-1
 256 107 l 1,6,-1
 256 -16 l 1,7,-1
 0 -16 l 1,8,-1
 0 107 l 1,9,-1
 0 107 l 1,10,-1
 85 192 l 1,11,-1
 0 277 l 1,12,-1
 0 277 l 1,13,-1
 0 400 l 1,0,-1
213 96 m 1,14,-1
 128 181 l 1,15,-1
 43 96 l 1,16,-1
 43 25 l 1,17,-1
 213 25 l 1,18,-1
 213 96 l 1,14,-1
128 203 m 1,19,-1
 213 288 l 1,20,-1
 213 360 l 1,21,-1
 43 360 l 1,22,-1
 43 288 l 1,23,-1
 128 203 l 1,19,-1
EndSplineSet
Validated: 5
EndChar

StartChar: uniF112
Encoding: 61714 61714 21
Width: 416
Flags: W
LayerCount: 2
Fore
SplineSet
253 300 m 128,-1,1
 266 286 266 286 253 273 c 2,2,-1
 172 192 l 1,3,-1
 251 111 l 2,4,5
 264 98 264 98 251 84 c 0,6,7
 245 78 245 78 238 78 c 0,8,9
 230 78 230 78 224 84 c 2,10,-1
 130 178 l 2,11,12
 118 192 118 192 131 205 c 2,13,-1
 226 300 l 2,14,0
 240 314 240 314 253 300 c 128,-1,1
208 400 m 128,-1,16
 294 400 294 400 355 339 c 128,-1,17
 416 278 416 278 416 192 c 128,-1,18
 416 106 416 106 355 45 c 128,-1,19
 294 -16 294 -16 208 -16 c 128,-1,20
 122 -16 122 -16 61 45 c 128,-1,21
 0 106 0 106 0 192 c 128,-1,22
 0 278 0 278 61 339 c 128,-1,15
 122 400 122 400 208 400 c 128,-1,16
332 68 m 128,-1,24
 384 120 384 120 384 192 c 128,-1,25
 384 264 384 264 332 316 c 128,-1,26
 280 368 280 368 208 368 c 128,-1,27
 136 368 136 368 84 316 c 128,-1,28
 32 264 32 264 32 192 c 128,-1,29
 32 120 32 120 84 68 c 128,-1,30
 136 16 136 16 208 16 c 128,-1,23
 280 16 280 16 332 68 c 128,-1,24
EndSplineSet
Validated: 33
EndChar

StartChar: uniF113
Encoding: 61715 61715 22
Width: 416
Flags: W
LayerCount: 2
Fore
SplineSet
208 400 m 128,-1,1
 294 400 294 400 355 339 c 128,-1,2
 416 278 416 278 416 192 c 128,-1,3
 416 106 416 106 355 45 c 128,-1,4
 294 -16 294 -16 208 -16 c 128,-1,5
 122 -16 122 -16 61 45 c 128,-1,6
 0 106 0 106 0 192 c 128,-1,7
 0 278 0 278 61 339 c 128,-1,0
 122 400 122 400 208 400 c 128,-1,1
292 188 m 2,8,9
 298 192 298 192 292 196 c 2,10,-1
 155 279 l 2,11,12
 153 281 153 281 150.5 279.5 c 128,-1,13
 148 278 148 278 148 275 c 2,14,-1
 148 109 l 2,15,16
 148 106 148 106 150.5 104.5 c 128,-1,17
 153 103 153 103 155 105 c 2,18,-1
 292 188 l 2,8,9
EndSplineSet
Validated: 1
EndChar

StartChar: uniF114
Encoding: 61716 61716 23
Width: 416
Flags: W
LayerCount: 2
Fore
SplineSet
163 300 m 0,0,1
 176 314 176 314 190 300 c 2,2,-1
 285 205 l 2,3,4
 298 192 298 192 286 178 c 2,5,-1
 192 84 l 2,6,7
 186 78 186 78 178 78 c 0,8,9
 171 78 171 78 165 84 c 0,10,11
 152 98 152 98 165 111 c 2,12,-1
 245 192 l 1,13,-1
 163 273 l 2,14,15
 149 286 149 286 163 300 c 0,0,1
0 192 m 128,-1,17
 0 278 0 278 61 339 c 128,-1,18
 122 400 122 400 208 400 c 128,-1,19
 294 400 294 400 355 339 c 128,-1,20
 416 278 416 278 416 192 c 128,-1,21
 416 106 416 106 355 45 c 128,-1,22
 294 -16 294 -16 208 -16 c 128,-1,23
 122 -16 122 -16 61 45 c 128,-1,16
 0 106 0 106 0 192 c 128,-1,17
32 192 m 128,-1,25
 32 120 32 120 84 68 c 128,-1,26
 136 16 136 16 208 16 c 128,-1,27
 280 16 280 16 332 68 c 128,-1,28
 384 120 384 120 384 192 c 128,-1,29
 384 264 384 264 332 316 c 128,-1,30
 280 368 280 368 208 368 c 128,-1,31
 136 368 136 368 84 316 c 128,-1,24
 32 264 32 264 32 192 c 128,-1,25
EndSplineSet
Validated: 33
EndChar

StartChar: uniF115
Encoding: 61717 61717 24
Width: 484
Flags: W
LayerCount: 2
Fore
SplineSet
438 370 m 2,0,1
 458 370 458 370 471 357 c 128,-1,2
 484 344 484 344 484 324 c 2,3,-1
 484 108 l 2,4,5
 484 88 484 88 471 75 c 128,-1,6
 458 62 458 62 438 62 c 2,7,-1
 46 62 l 2,8,9
 26 62 26 62 13 75 c 128,-1,10
 0 88 0 88 0 108 c 2,11,-1
 0 324 l 2,12,13
 0 344 0 344 13 357 c 128,-1,14
 26 370 26 370 46 370 c 2,15,-1
 438 370 l 2,0,1
456 108 m 2,16,-1
 456 324 l 2,17,18
 456 332 456 332 451 337 c 128,-1,19
 446 342 446 342 438 342 c 2,20,-1
 46 342 l 2,21,22
 38 342 38 342 33 337 c 128,-1,23
 28 332 28 332 28 324 c 2,24,-1
 28 108 l 2,25,26
 28 100 28 100 33 95 c 128,-1,27
 38 90 38 90 46 90 c 2,28,-1
 438 90 l 2,29,30
 446 90 446 90 451 95 c 128,-1,31
 456 100 456 100 456 108 c 2,16,-1
422 320 m 2,32,33
 434 320 434 320 434 308 c 2,34,-1
 434 124 l 2,35,36
 434 112 434 112 422 112 c 2,37,-1
 62 112 l 2,38,39
 50 112 50 112 50 124 c 2,40,-1
 50 308 l 2,41,42
 50 320 50 320 62 320 c 2,43,-1
 422 320 l 2,32,33
356 42 m 2,44,45
 370 42 370 42 370 28 c 128,-1,46
 370 14 370 14 356 14 c 2,47,-1
 128 14 l 2,48,49
 114 14 114 14 114 28 c 128,-1,50
 114 42 114 42 128 42 c 2,51,-1
 356 42 l 2,44,45
EndSplineSet
Validated: 1
EndChar

StartChar: uniF116
Encoding: 61718 61718 25
Width: 416
Flags: W
LayerCount: 2
Fore
SplineSet
100 147 m 128,-1,1
 86 160 86 160 100 174 c 2,2,-1
 195 269 l 2,3,4
 208 282 208 282 222 270 c 2,5,-1
 316 176 l 2,6,7
 322 170 322 170 322 162 c 0,8,9
 322 155 322 155 316 149 c 0,10,11
 302 136 302 136 289 149 c 2,12,-1
 208 228 l 1,13,-1
 127 147 l 2,14,0
 114 134 114 134 100 147 c 128,-1,1
208 -16 m 128,-1,16
 122 -16 122 -16 61 45 c 128,-1,17
 0 106 0 106 0 192 c 128,-1,18
 0 278 0 278 61 339 c 128,-1,19
 122 400 122 400 208 400 c 128,-1,20
 294 400 294 400 355 339 c 128,-1,21
 416 278 416 278 416 192 c 128,-1,22
 416 106 416 106 355 45 c 128,-1,15
 294 -16 294 -16 208 -16 c 128,-1,16
208 16 m 128,-1,24
 280 16 280 16 332 68 c 128,-1,25
 384 120 384 120 384 192 c 128,-1,26
 384 264 384 264 332 316 c 128,-1,27
 280 368 280 368 208 368 c 128,-1,28
 136 368 136 368 84 316 c 128,-1,29
 32 264 32 264 32 192 c 128,-1,30
 32 120 32 120 84 68 c 128,-1,23
 136 16 136 16 208 16 c 128,-1,24
EndSplineSet
Validated: 33
EndChar

StartChar: uniF117
Encoding: 61719 61719 26
Width: 288
Flags: W
LayerCount: 2
Fore
SplineSet
104 284 m 128,-1,1
 113 275 113 275 104 266 c 2,2,-1
 44 205 l 1,3,-1
 275 205 l 2,4,5
 288 205 288 205 288 192 c 128,-1,6
 288 179 288 179 275 179 c 2,7,-1
 44 179 l 1,8,-1
 104 118 l 2,9,10
 113 109 113 109 104 100 c 128,-1,11
 95 91 95 91 86 100 c 2,12,-1
 4 183 l 2,13,14
 2 185 2 185 1 187 c 128,-1,15
 0 189 0 189 0 192 c 0,16,17
 0 197 0 197 4 201 c 2,18,-1
 86 284 l 2,19,0
 95 293 95 293 104 284 c 128,-1,1
EndSplineSet
Validated: 33
EndChar

StartChar: uniF118
Encoding: 61720 61720 27
Width: 192
Flags: W
LayerCount: 2
Fore
SplineSet
188 152 m 128,-1,1
 197 143 197 143 188 134 c 2,2,-1
 105 52 l 2,3,4
 101 48 101 48 96 48 c 0,5,6
 93 48 93 48 91 49 c 128,-1,7
 89 50 89 50 87 52 c 2,8,-1
 4 134 l 2,9,10
 -5 143 -5 143 4 152 c 0,11,12
 14 162 14 162 22 153 c 2,13,-1
 83 92 l 1,14,-1
 83 323 l 2,15,16
 83 336 83 336 96 336 c 128,-1,17
 109 336 109 336 109 323 c 2,18,-1
 109 92 l 1,19,-1
 170 152 l 2,20,0
 179 161 179 161 188 152 c 128,-1,1
EndSplineSet
Validated: 33
EndChar

StartChar: uniF119
Encoding: 61721 61721 28
Width: 288
Flags: W
LayerCount: 2
Fore
SplineSet
184 284 m 128,-1,1
 193 293 193 293 202 284 c 2,2,-1
 284 201 l 2,3,4
 288 197 288 197 288 192 c 0,5,6
 288 189 288 189 287 187 c 128,-1,7
 286 185 286 185 284 183 c 2,8,-1
 202 100 l 2,9,10
 193 91 193 91 184 100 c 0,11,12
 174 110 174 110 183 118 c 2,13,-1
 244 179 l 1,14,-1
 13 179 l 2,15,16
 0 179 0 179 0 192 c 128,-1,17
 0 205 0 205 13 205 c 2,18,-1
 244 205 l 1,19,-1
 184 266 l 2,20,0
 175 275 175 275 184 284 c 128,-1,1
EndSplineSet
Validated: 33
EndChar

StartChar: uniF11A
Encoding: 61722 61722 29
Width: 192
Flags: W
LayerCount: 2
Fore
SplineSet
188 232 m 128,-1,1
 179 223 179 223 170 232 c 2,2,-1
 109 292 l 1,3,-1
 109 61 l 2,4,5
 109 48 109 48 96 48 c 128,-1,6
 83 48 83 48 83 61 c 2,7,-1
 83 292 l 1,8,-1
 22 231 l 2,9,10
 14 222 14 222 4 232 c 0,11,12
 -5 241 -5 241 4 250 c 2,13,-1
 87 332 l 2,14,15
 89 334 89 334 91 335 c 128,-1,16
 93 336 93 336 96 336 c 0,17,18
 101 336 101 336 105 332 c 2,19,-1
 188 250 l 2,20,0
 197 241 197 241 188 232 c 128,-1,1
EndSplineSet
Validated: 33
EndChar

StartChar: uniF11B
Encoding: 61723 61723 30
Width: 231
Flags: W
LayerCount: 2
Fore
SplineSet
216 287 m 0,0,1
 231 287 231 287 231 271 c 2,2,-1
 231 77 l 2,3,4
 231 56 231 56 222 35 c 0,5,6
 213 15 213 15 198 0 c 0,7,8
 164 -32 164 -32 122 -32 c 2,9,-1
 109 -32 l 2,10,11
 65 -32 65 -32 33 0 c 0,12,13
 0 33 0 33 0 78 c 2,14,-1
 0 329 l 2,15,16
 0 366 0 366 26 390 c 0,17,18
 54 416 54 416 88 416 c 0,19,20
 124 416 124 416 150 390 c 0,21,22
 176 366 176 366 176 329 c 2,23,-1
 176 94 l 2,24,25
 176 68 176 68 158 50 c 128,-1,26
 140 32 140 32 116 32 c 0,27,28
 90 32 90 32 73 49.5 c 128,-1,29
 56 67 56 67 56 94 c 2,30,-1
 56 228 l 2,31,32
 56 244 56 244 72 244 c 0,33,34
 87 244 87 244 87 228 c 2,35,-1
 87 94 l 2,36,37
 87 80 87 80 96 71 c 128,-1,38
 105 62 105 62 116 62 c 128,-1,39
 127 62 127 62 136 71.5 c 128,-1,40
 145 81 145 81 145 94 c 2,41,-1
 145 329 l 2,42,43
 145 351 145 351 128 368 c 0,44,45
 112 384 112 384 88 384 c 0,46,47
 65 384 65 384 47 368 c 0,48,49
 30 351 30 351 30 329 c 2,50,-1
 30 78 l 2,51,52
 30 49 30 49 54 23 c 0,53,54
 77 -2 77 -2 109 -2 c 2,55,-1
 122 -2 l 2,56,57
 156 -2 156 -2 178 22 c 128,-1,58
 200 46 200 46 200 77 c 2,59,-1
 200 271 l 2,60,61
 200 287 200 287 216 287 c 0,0,1
EndSplineSet
Validated: 1
EndChar

StartChar: uniF11C
Encoding: 61724 61724 31
Width: 383
Flags: W
LayerCount: 2
Fore
SplineSet
151 302 m 0,0,1
 160 298 160 298 160 288 c 2,2,-1
 160 96 l 2,3,4
 160 86 160 86 151 82 c 0,5,6
 147 80 147 80 144 80 c 0,7,8
 140 80 140 80 134 84 c 2,9,-1
 69 136 l 1,10,-1
 16 136 l 2,11,12
 0 136 0 136 0 152 c 2,13,-1
 0 232 l 2,14,15
 0 248 0 248 16 248 c 2,16,-1
 69 248 l 1,17,-1
 134 301 l 2,18,19
 138 304 138 304 144 304 c 0,20,21
 147 304 147 304 151 302 c 0,0,1
383 192 m 1,22,-1
 383 192 l 1,23,24
 383 101 383 101 318 36 c 0,25,26
 314 32 314 32 309 32 c 0,27,28
 305 32 305 32 301 36 c 0,29,30
 292 44 292 44 301 53 c 0,31,32
 359 109 359 109 359 192 c 1,33,-1
 359 192 l 1,34,35
 359 275 359 275 301 331 c 0,36,37
 292 340 292 340 301 348 c 128,-1,38
 310 356 310 356 318 348 c 0,39,40
 383 283 383 283 383 192 c 1,22,-1
320 192 m 128,-1,42
 320 125 320 125 274 77 c 0,43,44
 270 73 270 73 265 73 c 0,45,46
 261 73 261 73 257 77 c 0,47,48
 248 86 248 86 256 94 c 0,49,50
 296 134 296 134 296 192 c 1,51,-1
 296 192 l 1,52,53
 296 250 296 250 256 290 c 0,54,55
 248 298 248 298 257 307 c 128,-1,56
 266 316 266 316 274 307 c 0,57,41
 320 259 320 259 320 192 c 128,-1,42
223 266 m 0,58,59
 253 234 253 234 253 192 c 1,60,-1
 253 192 l 1,61,62
 253 150 253 150 223 118 c 0,63,64
 220 115 220 115 214 115 c 0,65,66
 209 115 209 115 206 118 c 0,67,68
 198 126 198 126 206 135 c 0,69,70
 229 158 229 158 229 192 c 1,71,-1
 229 192 l 1,72,73
 229 226 229 226 206 249 c 0,74,75
 198 258 198 258 206 266 c 128,-1,76
 214 274 214 274 223 266 c 0,58,59
EndSplineSet
Validated: 37
EndChar

StartChar: uniF11D
Encoding: 61725 61725 32
Width: 416
Flags: W
LayerCount: 2
Fore
SplineSet
347 352 m 2,0,1
 376 352 376 352 396 332 c 128,-1,2
 416 312 416 312 416 283 c 2,3,-1
 416 103 l 2,4,5
 416 74 416 74 395.5 53 c 128,-1,6
 375 32 375 32 347 32 c 2,7,-1
 182 32 l 2,8,9
 173 32 173 32 164.5 33 c 128,-1,10
 156 34 156 34 148 38 c 128,-1,11
 140 42 140 42 135 45 c 128,-1,12
 130 48 130 48 121.5 55.5 c 128,-1,13
 113 63 113 63 109 66.5 c 128,-1,14
 105 70 105 70 94.5 81 c 128,-1,15
 84 92 84 92 80 96 c 2,16,-1
 8 172 l 2,17,18
 0 182 0 182 0 193 c 128,-1,19
 0 204 0 204 8 214 c 0,20,21
 51 259 51 259 80 288 c 0,22,23
 84 292 84 292 94 302.5 c 128,-1,24
 104 313 104 313 109 317.5 c 128,-1,25
 114 322 114 322 124 330.5 c 128,-1,26
 134 339 134 339 141.5 342.5 c 128,-1,27
 149 346 149 346 160 349 c 128,-1,28
 171 352 171 352 182 352 c 2,29,-1
 347 352 l 2,0,1
329 139 m 2,30,-1
 277 192 l 1,31,-1
 329 245 l 2,32,33
 340 256 340 256 329 267 c 128,-1,34
 318 278 318 278 307 267 c 2,35,-1
 254 215 l 1,36,-1
 201 267 l 2,37,38
 190 278 190 278 179 267 c 128,-1,39
 168 256 168 256 179 245 c 2,40,-1
 231 192 l 1,41,42
 186 146 186 146 179 139 c 0,43,44
 168 128 168 128 179 117 c 128,-1,45
 190 106 190 106 201 117 c 2,46,-1
 254 169 l 1,47,-1
 307 117 l 2,48,49
 318 106 318 106 329 117 c 128,-1,50
 340 128 340 128 329 139 c 2,30,-1
EndSplineSet
Validated: 33
EndChar

StartChar: uniF11E
Encoding: 61726 61726 33
Width: 256
Flags: W
LayerCount: 2
Fore
SplineSet
151 302 m 0,0,1
 160 298 160 298 160 288 c 2,2,-1
 160 96 l 2,3,4
 160 86 160 86 151 82 c 0,5,6
 147 80 147 80 144 80 c 0,7,8
 140 80 140 80 134 84 c 2,9,-1
 69 136 l 1,10,-1
 16 136 l 2,11,12
 0 136 0 136 0 152 c 2,13,-1
 0 232 l 2,14,15
 0 248 0 248 16 248 c 2,16,-1
 69 248 l 1,17,-1
 134 300 l 2,18,19
 140 304 140 304 144 304 c 0,20,21
 147 304 147 304 151 302 c 0,0,1
226 265 m 0,22,23
 256 233 256 233 256 192 c 1,24,-1
 256 192 l 1,25,26
 256 150 256 150 226 118 c 0,27,28
 223 115 223 115 218 115 c 128,-1,29
 213 115 213 115 210 118 c 0,30,31
 202 126 202 126 210 135 c 0,32,33
 232 157 232 157 232 192 c 1,34,-1
 232 192 l 1,35,36
 232 226 232 226 210 248 c 0,37,38
 201 257 201 257 210 266 c 0,39,40
 218 274 218 274 226 265 c 0,22,23
EndSplineSet
Validated: 37
EndChar

StartChar: uniF11F
Encoding: 61727 61727 34
Width: 448
Flags: W
LayerCount: 2
Fore
SplineSet
356 74 m 1,0,-1
 356 150 l 1,1,-1
 423 150 l 1,2,-1
 405 74 l 1,3,-1
 356 74 l 1,0,-1
356 0 m 1,4,-1
 356 55 l 1,5,-1
 401 55 l 1,6,-1
 395 30 l 2,7,8
 386 0 386 0 356 0 c 1,4,-1
233 0 m 1,9,-1
 233 56 l 1,10,-1
 337 56 l 1,11,-1
 337 0 l 1,12,-1
 233 0 l 1,9,-1
43 74 m 1,13,-1
 26 150 l 1,14,-1
 92 150 l 1,15,-1
 92 74 l 1,16,-1
 43 74 l 1,13,-1
111 168 m 1,17,-1
 111 256 l 1,18,-1
 215 256 l 1,19,-1
 215 168 l 1,20,-1
 111 168 l 1,17,-1
233 168 m 1,21,-1
 233 256 l 1,22,-1
 337 256 l 1,23,-1
 337 168 l 1,24,-1
 233 168 l 1,21,-1
54 30 m 2,25,-1
 47 56 l 1,26,-1
 92 56 l 1,27,-1
 92 0 l 1,28,29
 63 0 63 0 54 30 c 2,25,-1
111 0 m 1,30,-1
 111 56 l 1,31,-1
 215 56 l 1,32,-1
 215 0 l 1,33,-1
 111 0 l 1,30,-1
233 74 m 1,34,-1
 233 150 l 1,35,-1
 337 150 l 1,36,-1
 337 74 l 1,37,-1
 233 74 l 1,34,-1
111 74 m 1,38,-1
 111 150 l 1,39,-1
 215 150 l 1,40,-1
 215 74 l 1,41,-1
 111 74 l 1,38,-1
432 256 m 2,42,43
 440 256 440 256 445 250 c 128,-1,44
 450 244 450 244 448 236 c 2,45,-1
 428 168 l 1,46,-1
 356 168 l 1,47,-1
 356 342 l 2,48,49
 356 356 356 356 342 356 c 2,50,-1
 106 356 l 2,51,52
 92 356 92 356 92 342 c 2,53,-1
 92 168 l 1,54,-1
 20 168 l 1,55,-1
 0 236 l 2,56,57
 -2 244 -2 244 3 250 c 128,-1,58
 8 256 8 256 16 256 c 2,59,-1
 64 256 l 1,60,-1
 64 352 l 2,61,62
 64 366 64 366 73 375 c 128,-1,63
 82 384 82 384 96 384 c 2,64,-1
 352 384 l 2,65,66
 366 384 366 384 375 375 c 128,-1,67
 384 366 384 366 384 352 c 2,68,-1
 384 256 l 1,69,-1
 432 256 l 2,42,43
EndSplineSet
Validated: 1
EndChar

StartChar: uniF120
Encoding: 61728 61728 35
Width: 480
Flags: W
LayerCount: 2
Fore
SplineSet
380 304 m 2,0,1
 400 304 400 304 414 290 c 128,-1,2
 428 276 428 276 428 256 c 2,3,-1
 428 128 l 2,4,5
 428 108 428 108 414 94 c 128,-1,6
 400 80 400 80 380 80 c 2,7,-1
 48 80 l 2,8,9
 28 80 28 80 14 94 c 128,-1,10
 0 108 0 108 0 128 c 2,11,-1
 0 256 l 2,12,13
 0 276 0 276 14 290 c 128,-1,14
 28 304 28 304 48 304 c 2,15,-1
 380 304 l 2,0,1
400 128 m 2,16,-1
 400 256 l 2,17,18
 400 264 400 264 394 270 c 128,-1,19
 388 276 388 276 380 276 c 2,20,-1
 48 276 l 2,21,22
 40 276 40 276 34 270 c 128,-1,23
 28 264 28 264 28 256 c 2,24,-1
 28 128 l 2,25,26
 28 120 28 120 34 114 c 128,-1,27
 40 108 40 108 48 108 c 2,28,-1
 380 108 l 2,29,30
 388 108 388 108 394 114 c 128,-1,31
 400 120 400 120 400 128 c 2,16,-1
448 243 m 1,32,33
 460 243 460 243 470 226.5 c 128,-1,34
 480 210 480 210 480 192 c 128,-1,35
 480 174 480 174 470 157.5 c 128,-1,36
 460 141 460 141 448 141 c 1,37,-1
 448 243 l 1,32,33
368 256 m 2,38,39
 380 256 380 256 380 244 c 2,40,-1
 380 140 l 2,41,42
 380 128 380 128 368 128 c 2,43,-1
 60 128 l 2,44,45
 48 128 48 128 48 140 c 2,46,-1
 48 244 l 2,47,48
 48 256 48 256 60 256 c 2,49,-1
 368 256 l 2,38,39
203 140 m 1,50,-1
 248 201 l 1,51,-1
 221 201 l 1,52,-1
 229 244 l 1,53,-1
 184 183 l 1,54,-1
 211 183 l 1,55,-1
 203 140 l 1,50,-1
EndSplineSet
Validated: 1
EndChar

StartChar: uniF121
Encoding: 61729 61729 36
Width: 480
Flags: W
LayerCount: 2
Fore
SplineSet
380 304 m 2,0,1
 400 304 400 304 414 290 c 128,-1,2
 428 276 428 276 428 256 c 2,3,-1
 428 128 l 2,4,5
 428 108 428 108 414 94 c 128,-1,6
 400 80 400 80 380 80 c 2,7,-1
 48 80 l 2,8,9
 28 80 28 80 14 94 c 128,-1,10
 0 108 0 108 0 128 c 2,11,-1
 0 256 l 2,12,13
 0 276 0 276 14 290 c 128,-1,14
 28 304 28 304 48 304 c 2,15,-1
 380 304 l 2,0,1
400 128 m 2,16,-1
 400 256 l 2,17,18
 400 264 400 264 394 270 c 128,-1,19
 388 276 388 276 380 276 c 2,20,-1
 48 276 l 2,21,22
 40 276 40 276 34 270 c 128,-1,23
 28 264 28 264 28 256 c 2,24,-1
 28 128 l 2,25,26
 28 120 28 120 34 114 c 128,-1,27
 40 108 40 108 48 108 c 2,28,-1
 380 108 l 2,29,30
 388 108 388 108 394 114 c 128,-1,31
 400 120 400 120 400 128 c 2,16,-1
448 243 m 1,32,33
 460 243 460 243 470 226.5 c 128,-1,34
 480 210 480 210 480 192 c 128,-1,35
 480 174 480 174 470 157.5 c 128,-1,36
 460 141 460 141 448 141 c 1,37,-1
 448 243 l 1,32,33
EndSplineSet
Validated: 1
EndChar

StartChar: uniF122
Encoding: 61730 61730 37
Width: 480
Flags: W
LayerCount: 2
Fore
SplineSet
380 304 m 2,0,1
 400 304 400 304 414 290 c 128,-1,2
 428 276 428 276 428 256 c 2,3,-1
 428 128 l 2,4,5
 428 108 428 108 414 94 c 128,-1,6
 400 80 400 80 380 80 c 2,7,-1
 48 80 l 2,8,9
 28 80 28 80 14 94 c 128,-1,10
 0 108 0 108 0 128 c 2,11,-1
 0 256 l 2,12,13
 0 276 0 276 14 290 c 128,-1,14
 28 304 28 304 48 304 c 2,15,-1
 380 304 l 2,0,1
400 128 m 2,16,-1
 400 256 l 2,17,18
 400 264 400 264 394 270 c 128,-1,19
 388 276 388 276 380 276 c 2,20,-1
 48 276 l 2,21,22
 40 276 40 276 34 270 c 128,-1,23
 28 264 28 264 28 256 c 2,24,-1
 28 128 l 2,25,26
 28 120 28 120 34 114 c 128,-1,27
 40 108 40 108 48 108 c 2,28,-1
 380 108 l 2,29,30
 388 108 388 108 394 114 c 128,-1,31
 400 120 400 120 400 128 c 2,16,-1
448 243 m 1,32,33
 460 243 460 243 470 226.5 c 128,-1,34
 480 210 480 210 480 192 c 128,-1,35
 480 174 480 174 470 157.5 c 128,-1,36
 460 141 460 141 448 141 c 1,37,-1
 448 243 l 1,32,33
368 256 m 2,38,39
 380 256 380 256 380 244 c 2,40,-1
 380 140 l 2,41,42
 380 128 380 128 368 128 c 2,43,-1
 60 128 l 2,44,45
 48 128 48 128 48 140 c 2,46,-1
 48 244 l 2,47,48
 48 256 48 256 60 256 c 2,49,-1
 368 256 l 2,38,39
EndSplineSet
Validated: 1
EndChar

StartChar: uniF123
Encoding: 61731 61731 38
Width: 384
Flags: W
LayerCount: 2
Fore
SplineSet
0 256 m 1,0,-1
 85 256 l 1,1,-1
 192 368 l 1,2,-1
 192 16 l 1,3,-1
 85 128 l 1,4,-1
 0 128 l 1,5,-1
 0 256 l 1,0,-1
288 192 m 0,6,7
 288 163 288 163 273.5 139 c 128,-1,8
 259 115 259 115 235 104 c 1,9,-1
 235 281 l 1,10,11
 259 269 259 269 273.5 244.5 c 128,-1,12
 288 220 288 220 288 192 c 0,6,7
235 384 m 1,13,14
 299 369 299 369 341.5 315 c 128,-1,15
 384 261 384 261 384 192 c 128,-1,16
 384 123 384 123 341.5 69 c 128,-1,17
 299 15 299 15 235 0 c 1,18,-1
 235 45 l 1,19,20
 282 59 282 59 311.5 100 c 128,-1,21
 341 141 341 141 341 192 c 128,-1,22
 341 243 341 243 311.5 284 c 128,-1,23
 282 325 282 325 235 339 c 1,24,-1
 235 384 l 1,13,14
EndSplineSet
Validated: 1
EndChar

StartChar: uniF124
Encoding: 61732 61732 39
Width: 384
Flags: W
LayerCount: 2
Fore
SplineSet
381 400 m 2,0,1
 384 400 384 400 384 398 c 2,2,-1
 381 392 l 1,3,-1
 378 388 l 2,4,5
 376 385 376 385 374 381.5 c 128,-1,6
 372 378 372 378 370 371.5 c 128,-1,7
 368 365 368 365 367 359 c 2,8,-1
 367 49 l 2,9,10
 367 23 367 23 348.5 3.5 c 128,-1,11
 330 -16 330 -16 304 -16 c 2,12,-1
 96 -16 l 2,13,14
 70 -16 70 -16 51 3 c 128,-1,15
 32 22 32 22 32 48 c 2,16,-1
 32 324 l 2,17,18
 32 347 32 347 27.5 352 c 128,-1,19
 23 357 23 357 0 360 c 1,20,21
 0 368 0 368 4 376 c 128,-1,22
 8 384 8 384 23.5 392 c 128,-1,23
 39 400 39 400 64 400 c 2,24,-1
 334 400 l 1,25,-1
 381 400 l 2,0,1
48 371 m 1,26,27
 60 358 60 358 60 324 c 2,28,-1
 60 288 l 1,29,-1
 339 288 l 1,30,-1
 339 359 l 1,31,-1
 339 362 l 2,32,33
 339 364 339 364 341 372 c 1,34,-1
 334 372 l 1,35,-1
 64 372 l 2,36,37
 54 372 54 372 48 371 c 1,26,27
EndSplineSet
Validated: 1
EndChar

StartChar: uniF125
Encoding: 61733 61733 40
Width: 416
Flags: W
LayerCount: 2
Fore
SplineSet
0 192 m 128,-1,1
 0 278 0 278 61 339 c 128,-1,2
 122 400 122 400 208 400 c 128,-1,3
 294 400 294 400 355 339 c 128,-1,4
 416 278 416 278 416 192 c 128,-1,5
 416 106 416 106 355 45 c 128,-1,6
 294 -16 294 -16 208 -16 c 128,-1,7
 122 -16 122 -16 61 45 c 128,-1,0
 0 106 0 106 0 192 c 128,-1,1
289 235 m 2,8,-1
 208 156 l 1,9,-1
 127 237 l 2,10,11
 114 250 114 250 100 237 c 128,-1,12
 86 224 86 224 100 210 c 2,13,-1
 195 115 l 2,14,15
 208 102 208 102 222 114 c 2,16,-1
 316 208 l 2,17,18
 322 214 322 214 322 222 c 0,19,20
 322 229 322 229 316 235 c 0,21,22
 302 248 302 248 289 235 c 2,8,-1
EndSplineSet
Validated: 33
EndChar

StartChar: uniF126
Encoding: 61734 61734 41
Width: 384
Flags: W
LayerCount: 2
Fore
SplineSet
48 286 m 2,0,-1
 48 190 l 1,1,-1
 22 190 l 2,2,3
 15 190 15 190 10 195 c 128,-1,4
 5 200 5 200 5 207 c 0,5,6
 5 215 5 215 10.5 225.5 c 128,-1,7
 16 236 16 236 16 242 c 2,8,-1
 16 293 l 2,9,10
 16 301 16 301 8 309.5 c 128,-1,11
 0 318 0 318 0 334 c 2,12,-1
 0 338 l 2,13,14
 0 357 0 357 15 369 c 128,-1,15
 30 381 30 381 50 381 c 0,16,17
 63 381 63 381 73 379 c 128,-1,18
 83 377 83 377 89 385 c 0,19,20
 104 402 104 402 125 402 c 0,21,22
 141 402 141 402 151 395 c 0,23,24
 161 389 161 389 168 398 c 0,25,26
 184 416 184 416 212 416 c 0,27,28
 230 416 230 416 245.5 405 c 128,-1,29
 261 394 261 394 268 377 c 0,30,31
 272 368 272 368 281 368 c 2,32,-1
 282 368 l 2,33,34
 298 368 298 368 309 357 c 128,-1,35
 320 346 320 346 320 330 c 2,36,-1
 320 308 l 2,37,38
 320 306 320 306 318 305.5 c 128,-1,39
 316 305 316 305 315 306 c 0,40,41
 310 310 310 310 302 310 c 2,42,-1
 72 310 l 2,43,44
 62 310 62 310 55 303 c 128,-1,45
 48 296 48 296 48 286 c 2,0,-1
322 -4 m 2,46,47
 336 -4 336 -4 336 -18 c 128,-1,48
 336 -32 336 -32 322 -32 c 2,49,-1
 46 -32 l 2,50,51
 32 -32 32 -32 32 -18 c 128,-1,52
 32 -4 32 -4 46 -4 c 2,53,-1
 322 -4 l 2,46,47
336 254 m 2,54,55
 356 254 356 254 370 240 c 128,-1,56
 384 226 384 226 384 206 c 2,57,-1
 384 110 l 2,58,59
 384 90 384 90 370 76 c 128,-1,60
 356 62 356 62 336 62 c 2,61,-1
 304 62 l 1,62,63
 304 52 304 52 309 32 c 0,64,65
 311 21 311 21 304 16 c 0,66,67
 300 12 300 12 293 12 c 2,68,-1
 79 12 l 2,69,70
 69 12 69 12 64 20 c 0,71,72
 59 26 59 26 61 34 c 0,73,74
 64 52 64 52 64 64 c 2,75,-1
 64 278 l 2,76,77
 64 294 64 294 80 294 c 2,78,-1
 288 294 l 2,79,80
 304 294 304 294 304 278 c 2,81,-1
 304 254 l 1,82,-1
 336 254 l 2,54,55
356 110 m 2,83,-1
 356 206 l 2,84,85
 356 214 356 214 350 220 c 128,-1,86
 344 226 344 226 336 226 c 2,87,-1
 304 226 l 1,88,-1
 304 90 l 1,89,-1
 336 90 l 2,90,91
 344 90 344 90 350 96 c 128,-1,92
 356 102 356 102 356 110 c 2,83,-1
EndSplineSet
Validated: 33
EndChar

StartChar: uniF127
Encoding: 61735 61735 42
Width: 448
Flags: W
LayerCount: 2
Fore
SplineSet
93 159 m 0,0,1
 67 159 67 159 47 139 c 0,2,3
 28 120 28 120 28 93 c 128,-1,4
 28 66 28 66 47 47 c 128,-1,5
 66 28 66 28 93 28 c 128,-1,6
 120 28 120 28 139 47 c 0,7,8
 159 67 159 67 159 93 c 0,9,10
 159 120 159 120 139 140 c 0,11,12
 120 159 120 159 93 159 c 0,0,1
93 187 m 128,-1,14
 131 187 131 187 159 159 c 128,-1,15
 187 131 187 131 187 93 c 128,-1,16
 187 55 187 55 159 27.5 c 128,-1,17
 131 0 131 0 93 0 c 128,-1,18
 55 0 55 0 27.5 27.5 c 128,-1,19
 0 55 0 55 0 93 c 128,-1,20
 0 131 0 131 27.5 159 c 128,-1,13
 55 187 55 187 93 187 c 128,-1,14
288 320 m 128,-1,22
 274 320 274 320 265 329 c 128,-1,23
 256 338 256 338 256 352 c 128,-1,24
 256 366 256 366 265 375 c 128,-1,25
 274 384 274 384 288 384 c 128,-1,26
 302 384 302 384 311 375 c 128,-1,27
 320 366 320 366 320 352 c 128,-1,28
 320 338 320 338 311 329 c 128,-1,21
 302 320 302 320 288 320 c 128,-1,22
355 159 m 0,29,30
 329 159 329 159 309 139 c 128,-1,31
 289 119 289 119 289 93 c 128,-1,32
 289 67 289 67 309 47 c 0,33,34
 328 28 328 28 355 28 c 128,-1,35
 382 28 382 28 401 47 c 128,-1,36
 420 66 420 66 420 93 c 0,37,38
 420 121 420 121 401 140 c 128,-1,39
 382 159 382 159 355 159 c 0,29,30
355 187 m 128,-1,41
 393 187 393 187 420.5 159 c 128,-1,42
 448 131 448 131 448 93 c 128,-1,43
 448 55 448 55 420.5 27.5 c 128,-1,44
 393 0 393 0 355 0 c 128,-1,45
 317 0 317 0 289 27.5 c 128,-1,46
 261 55 261 55 261 93 c 128,-1,47
 261 131 261 131 289 159 c 128,-1,40
 317 187 317 187 355 187 c 128,-1,41
336 256 m 2,48,49
 352 256 352 256 352 240 c 128,-1,50
 352 224 352 224 336 224 c 2,51,-1
 279 224 l 2,52,53
 274 224 274 224 269.5 230 c 128,-1,54
 265 236 265 236 256 251 c 128,-1,55
 247 266 247 266 241 276 c 1,56,-1
 192 224 l 1,57,58
 198 219 198 219 211.5 211.5 c 128,-1,59
 225 204 225 204 232.5 198 c 128,-1,60
 240 192 240 192 240 186 c 2,61,-1
 240 96 l 2,62,63
 240 80 240 80 224 80 c 128,-1,64
 208 80 208 80 208 96 c 2,65,-1
 208 162 l 2,66,67
 208 166 208 166 206.5 169 c 128,-1,68
 205 172 205 172 199.5 175.5 c 128,-1,69
 194 179 194 179 188 182 c 128,-1,70
 182 185 182 185 169.5 191.5 c 128,-1,71
 157 198 157 198 146 204 c 0,72,73
 128 216 128 216 128 231 c 0,74,75
 128 245 128 245 137 254 c 2,76,-1
 209 323 l 2,77,78
 218 332 218 332 231 332 c 0,79,80
 247 332 247 332 258 316 c 2,81,-1
 288 256 l 1,82,-1
 336 256 l 2,48,49
EndSplineSet
Validated: 1
EndChar

StartChar: uniF128
Encoding: 61736 61736 43
Width: 256
Flags: W
LayerCount: 2
Fore
SplineSet
250 115 m 2,0,1
 262 105 262 105 251 92 c 2,2,-1
 135 -28 l 2,3,4
 131 -32 131 -32 126 -32 c 0,5,6
 115 -32 115 -32 115 -21 c 2,7,-1
 115 149 l 1,8,-1
 30 75 l 2,9,10
 25 71 25 71 17.5 71.5 c 128,-1,11
 10 72 10 72 5 77 c 0,12,13
 -6 90 -6 90 7 101 c 2,14,-1
 115 192 l 1,15,-1
 6 284 l 2,16,17
 -7 295 -7 295 4 308 c 128,-1,18
 15 321 15 321 29 309 c 2,19,-1
 115 236 l 1,20,-1
 115 405 l 2,21,22
 115 416 115 416 126 416 c 0,23,24
 131 416 131 416 135 412 c 2,25,-1
 251 291 l 2,26,27
 262 278 262 278 250 268 c 2,28,-1
 162 192 l 1,29,-1
 250 115 l 2,0,1
151 347 m 2,30,31
 149 347 149 347 148 346 c 2,32,-1
 148 227 l 2,33,34
 148 226 148 226 149 225 c 128,-1,35
 150 224 150 224 151 225 c 2,36,-1
 214 278 l 2,37,38
 216 280 216 280 214 281 c 2,39,-1
 151 347 l 2,30,31
148 38 m 2,40,41
 148 37 148 37 149 36.5 c 128,-1,42
 150 36 150 36 151 37 c 2,43,-1
 214 102 l 2,44,45
 216 104 216 104 214 105 c 2,46,-1
 151 158 l 2,47,48
 150 159 150 159 149 158 c 128,-1,49
 148 157 148 157 148 156 c 2,50,-1
 148 38 l 2,40,41
EndSplineSet
Validated: 33
EndChar

StartChar: uniF129
Encoding: 61737 61737 44
Width: 416
Flags: W
LayerCount: 2
Fore
SplineSet
208 400 m 128,-1,1
 294 400 294 400 355 339 c 128,-1,2
 416 278 416 278 416 192 c 128,-1,3
 416 106 416 106 355 45 c 128,-1,4
 294 -16 294 -16 208 -16 c 128,-1,5
 122 -16 122 -16 61 45 c 128,-1,6
 0 106 0 106 0 192 c 128,-1,7
 0 278 0 278 61 339 c 128,-1,0
 122 400 122 400 208 400 c 128,-1,1
251 111 m 2,8,-1
 172 192 l 1,9,-1
 253 273 l 2,10,11
 266 286 266 286 253 300 c 128,-1,12
 240 314 240 314 226 300 c 2,13,-1
 131 205 l 2,14,15
 118 192 118 192 130 178 c 2,16,-1
 224 84 l 2,17,18
 230 78 230 78 238 78 c 0,19,20
 245 78 245 78 251 84 c 0,21,22
 264 98 264 98 251 111 c 2,8,-1
EndSplineSet
Validated: 33
EndChar

StartChar: uniF12A
Encoding: 61738 61738 45
Width: 400
Flags: W
LayerCount: 2
Fore
SplineSet
296 26 m 1,0,1
 323 2 323 2 359 -10 c 0,2,3
 360 -11 360 -11 360 -12.5 c 128,-1,4
 360 -14 360 -14 358 -14 c 0,5,6
 332 -12 332 -12 296 -2 c 1,7,8
 265 -16 265 -16 200 -16 c 0,9,10
 140 -16 140 -16 104 -2 c 1,11,12
 79 -9 79 -9 42 -14 c 0,13,14
 40 -14 40 -14 40 -12.5 c 128,-1,15
 40 -11 40 -11 41 -10 c 0,16,17
 57 -5 57 -5 72.5 4 c 128,-1,18
 88 13 88 13 96 20 c 2,19,-1
 104 26 l 1,20,21
 147 11 147 11 200 11 c 128,-1,22
 253 11 253 11 296 26 c 1,0,1
390 185 m 2,23,24
 400 180 400 180 400 169 c 0,25,26
 400 164 400 164 399 162 c 2,27,-1
 344 26 l 1,28,29
 332 26 332 26 317.5 31.5 c 128,-1,30
 303 37 303 37 295 42 c 2,31,-1
 287 48 l 1,32,33
 256 33 256 33 208 29 c 1,34,-1
 200 29 l 1,35,-1
 192 29 l 1,36,37
 144 33 144 33 113 48 c 1,38,39
 84 26 84 26 56 26 c 1,40,-1
 1 162 l 2,41,42
 0 164 0 164 0 169 c 0,43,44
 0 180 0 180 10 185 c 2,45,-1
 197 270 l 2,46,47
 200 272 200 272 203 270 c 2,48,-1
 390 185 l 2,23,24
156 160 m 128,-1,50
 168 160 168 160 168 182 c 128,-1,51
 168 204 168 204 156 204 c 128,-1,52
 144 204 144 204 144 182 c 128,-1,49
 144 160 144 160 156 160 c 128,-1,50
244 160 m 128,-1,54
 256 160 256 160 256 182 c 128,-1,55
 256 204 256 204 244 204 c 128,-1,56
 232 204 232 204 232 182 c 128,-1,53
 232 160 232 160 244 160 c 128,-1,54
336 321 m 2,57,-1
 354 224 l 2,58,59
 355 222 355 222 353 220.5 c 128,-1,60
 351 219 351 219 349 220 c 2,61,-1
 323 231 l 2,62,63
 321 231 321 231 321 234 c 2,64,-1
 305 320 l 2,65,66
 301 336 301 336 289 336 c 2,67,-1
 112 336 l 2,68,69
 98 336 98 336 95 320 c 2,70,-1
 79 234 l 2,71,72
 79 231 79 231 77 231 c 2,73,-1
 52 220 l 2,74,75
 50 219 50 219 47.5 220.5 c 128,-1,76
 45 222 45 222 46 224 c 2,77,-1
 64 321 l 2,78,79
 73 368 73 368 104 368 c 2,80,-1
 138 368 l 1,81,-1
 140 376 l 2,82,83
 147 400 147 400 171 400 c 2,84,-1
 228 400 l 2,85,86
 252 400 252 400 259 376 c 2,87,-1
 261 368 l 1,88,-1
 296 368 l 2,89,90
 326 368 326 368 336 321 c 2,57,-1
EndSplineSet
Validated: 1
EndChar

StartChar: uniF12B
Encoding: 61739 61739 46
Width: 416
Flags: W
LayerCount: 2
Fore
SplineSet
0 192 m 128,-1,1
 0 278 0 278 61 339 c 128,-1,2
 122 400 122 400 208 400 c 128,-1,3
 294 400 294 400 355 339 c 128,-1,4
 416 278 416 278 416 192 c 128,-1,5
 416 106 416 106 355 45 c 128,-1,6
 294 -16 294 -16 208 -16 c 128,-1,7
 122 -16 122 -16 61 45 c 128,-1,0
 0 106 0 106 0 192 c 128,-1,1
244 192 m 1,8,-1
 165 111 l 2,9,10
 152 98 152 98 165 84 c 0,11,12
 171 78 171 78 178 78 c 0,13,14
 186 78 186 78 192 84 c 2,15,-1
 286 178 l 2,16,17
 298 192 298 192 285 205 c 2,18,-1
 190 300 l 2,19,20
 176 314 176 314 163 300 c 128,-1,21
 150 286 150 286 163 273 c 2,22,-1
 244 192 l 1,8,-1
EndSplineSet
Validated: 33
EndChar

StartChar: uniF12C
Encoding: 61740 61740 47
Width: 384
Flags: W
LayerCount: 2
Fore
SplineSet
207 97 m 2,0,-1
 222 22 l 2,1,2
 223 19 223 19 223 14 c 0,3,4
 223 1 223 1 214 -7.5 c 128,-1,5
 205 -16 205 -16 191 -16 c 128,-1,6
 177 -16 177 -16 168 -7.5 c 128,-1,7
 159 1 159 1 159 14 c 0,8,9
 159 15 159 15 159.5 17.5 c 128,-1,10
 160 20 160 20 160 21 c 2,11,-1
 175 100 l 2,12,13
 178 112 178 112 191 112 c 0,14,15
 205 112 205 112 207 97 c 2,0,-1
242 93 m 1024,16,-1
325 62 m 0,17,18
 332 56 332 56 332 45.5 c 128,-1,19
 332 35 332 35 325 27 c 0,20,21
 317 20 317 20 306.5 20 c 128,-1,22
 296 20 296 20 290 27 c 0,23,24
 288 29 288 29 287 31 c 2,25,-1
 242 93 l 2,26,27
 237 101 237 101 244 108 c 0,28,29
 250 116 250 116 260 109 c 2,30,-1
 320 66 l 2,31,32
 321 66 321 66 322.5 64 c 128,-1,33
 324 62 324 62 325 62 c 0,17,18
308 113 m 1024,34,-1
371 128 m 2,35,36
 384 128 384 128 384 110 c 0,37,38
 384 103 384 103 378 98 c 128,-1,39
 372 93 372 93 366 95 c 2,40,-1
 309 113 l 1,41,-1
 308 113 l 1,42,43
 303 117 303 117 304 122 c 0,44,45
 306 128 306 128 312 128 c 2,46,-1
 371 128 l 2,35,36
75 113 m 1024,47,-1
75 113 m 2,48,-1
 17 95 l 2,49,50
 11 94 11 94 5.5 98.5 c 128,-1,51
 0 103 0 103 0 110 c 0,52,53
 0 128 0 128 12 128 c 2,54,-1
 72 128 l 2,55,56
 78 128 78 128 80 122 c 0,57,58
 81 117 81 117 75 113 c 2,48,-1
124 109 m 2,59,60
 131 115 131 115 140 108 c 0,61,62
 147 101 147 101 142 93 c 2,63,-1
 97 32 l 2,64,65
 95 28 95 28 94 27 c 0,66,67
 76 10 76 10 59 27 c 128,-1,68
 42 44 42 44 59 62 c 0,69,70
 62 65 62 65 64 66 c 2,71,-1
 124 109 l 2,59,60
295 309 m 0,72,73
 295 260 295 260 244 228 c 0,74,75
 237 224 237 224 214.5 211 c 128,-1,76
 192 198 192 198 180.5 190 c 128,-1,77
 169 182 169 182 155 165 c 128,-1,78
 141 148 141 148 135 128 c 1,79,80
 133 129 133 129 129 131 c 128,-1,81
 125 133 125 133 115.5 140.5 c 128,-1,82
 106 148 106 148 99.5 157.5 c 128,-1,83
 93 167 93 167 88.5 183.5 c 128,-1,84
 84 200 84 200 87 219 c 0,85,86
 90 241 90 241 110 264.5 c 128,-1,87
 130 288 130 288 151.5 305 c 128,-1,88
 173 322 173 322 188 347.5 c 128,-1,89
 203 373 203 373 199 400 c 1,90,91
 224 400 224 400 259.5 373.5 c 128,-1,92
 295 347 295 347 295 309 c 0,72,73
295 188 m 0,93,94
 275 128 275 128 215 128 c 0,95,96
 187 128 187 128 168 156 c 1,97,98
 182 173 182 173 215 190 c 2,99,-1
 227 196 l 2,100,101
 239 202 239 202 244 206 c 0,102,103
 282 231 282 231 292 252 c 1,104,105
 296 241 296 241 297 220.5 c 128,-1,106
 298 200 298 200 295 188 c 0,93,94
98 276 m 1,107,108
 85 284 85 284 87 305 c 0,109,110
 88 314 88 314 104 334 c 128,-1,111
 120 354 120 354 119 370 c 1,112,113
 147 374 147 374 164 344 c 1,114,115
 158 333 158 333 136 312 c 0,116,117
 101 280 101 280 98 276 c 1,107,108
EndSplineSet
Validated: 33
EndChar

StartChar: uniF12D
Encoding: 61741 61741 48
Width: 416
Flags: W
LayerCount: 2
Fore
SplineSet
208 -16 m 128,-1,1
 122 -16 122 -16 61 45 c 128,-1,2
 0 106 0 106 0 192 c 128,-1,3
 0 278 0 278 61 339 c 128,-1,4
 122 400 122 400 208 400 c 128,-1,5
 294 400 294 400 355 339 c 128,-1,6
 416 278 416 278 416 192 c 128,-1,7
 416 106 416 106 355 45 c 128,-1,0
 294 -16 294 -16 208 -16 c 128,-1,1
208 228 m 1,8,-1
 289 149 l 2,9,10
 302 136 302 136 316 149 c 0,11,12
 322 155 322 155 322 162 c 0,13,14
 322 170 322 170 316 176 c 2,15,-1
 222 270 l 2,16,17
 208 282 208 282 195 269 c 2,18,-1
 100 174 l 2,19,20
 86 160 86 160 100 147 c 128,-1,21
 114 134 114 134 127 147 c 2,22,-1
 208 228 l 1,8,-1
EndSplineSet
Validated: 33
EndChar

StartChar: uniF12E
Encoding: 61742 61742 49
Width: 256
Flags: W
LayerCount: 2
Fore
SplineSet
0 368 m 2,0,1
 0 382 0 382 9 391 c 128,-1,2
 18 400 18 400 32 400 c 2,3,-1
 224 400 l 2,4,5
 238 400 238 400 247 391 c 128,-1,6
 256 382 256 382 256 368 c 2,7,-1
 256 -12 l 2,8,9
 256 -19 256 -19 250 -15 c 2,10,-1
 133 77 l 2,11,12
 128 80 128 80 123 77 c 2,13,-1
 6 -15 l 2,14,15
 0 -19 0 -19 0 -12 c 2,16,-1
 0 368 l 2,0,1
EndSplineSet
Validated: 1
EndChar

StartChar: uniF12F
Encoding: 61743 61743 50
Width: 256
Flags: W
LayerCount: 2
Fore
SplineSet
254 5 m 2,0,1
 261 -7 261 -7 249 -14 c 0,2,3
 245 -16 245 -16 242 -16 c 0,4,5
 235 -16 235 -16 230 -9 c 2,6,-1
 2 379 l 2,7,8
 -5 391 -5 391 7 398 c 0,9,10
 20 405 20 405 27 393 c 2,11,-1
 254 5 l 2,0,1
197 135 m 1,12,-1
 144 224 l 1,13,-1
 248 224 l 2,14,15
 253 224 253 224 255.5 219 c 128,-1,16
 258 214 258 214 255 210 c 2,17,-1
 197 135 l 1,12,-1
192 411 m 2,18,-1
 141 229 l 1,19,-1
 99 301 l 1,20,-1
 185 414 l 2,21,22
 187 417 187 417 190 415.5 c 128,-1,23
 193 414 193 414 192 411 c 2,18,-1
59 249 m 1,24,-1
 112 160 l 1,25,-1
 8 160 l 2,26,27
 3 160 3 160 1 165 c 128,-1,28
 -1 170 -1 170 2 174 c 2,29,-1
 59 249 l 1,24,-1
64 -27 m 2,30,-1
 115 155 l 1,31,-1
 157 83 l 1,32,-1
 71 -30 l 2,33,34
 69 -33 69 -33 66 -31.5 c 128,-1,35
 63 -30 63 -30 64 -27 c 2,30,-1
EndSplineSet
Validated: 33
EndChar

StartChar: uniF130
Encoding: 61744 61744 51
Width: 448
Flags: W
LayerCount: 2
Fore
SplineSet
259 234 m 0,0,1
 279 200 279 200 276 149 c 1,2,-1
 271 127 l 1,3,4
 259 120 259 120 235 120 c 2,5,-1
 224 120 l 2,6,7
 208 121 208 121 198 125 c 128,-1,8
 188 129 188 129 186 132 c 2,9,-1
 184 135 l 1,10,11
 188 147 188 147 192 178 c 0,12,13
 194 192 194 192 194 206.5 c 128,-1,14
 194 221 194 221 193 228 c 2,15,-1
 192 236 l 1,16,17
 199 241 199 241 211 243 c 0,18,19
 223 246 223 246 234 246 c 0,20,21
 252 246 252 246 259 234 c 0,0,1
174 239 m 1,22,-1
 176 207 l 1,23,-1
 176 197 l 2,24,25
 176 196 176 196 175.5 192.5 c 128,-1,26
 175 189 175 189 175 187 c 0,27,28
 175 177 175 177 174 172 c 2,29,-1
 172 162 l 1,30,-1
 162 128 l 1,31,32
 85 48 85 48 52 48 c 0,33,34
 31 48 31 48 15.5 91.5 c 128,-1,35
 0 135 0 135 0 192 c 0,36,37
 0 248 0 248 16 292 c 128,-1,38
 32 336 32 336 52 336 c 0,39,40
 77 336 77 336 117 303.5 c 128,-1,41
 157 271 157 271 174 239 c 1,22,-1
396 336 m 0,42,43
 416 336 416 336 432 292 c 128,-1,44
 448 248 448 248 448 192 c 0,45,46
 448 135 448 135 432.5 91.5 c 128,-1,47
 417 48 417 48 396 48 c 0,48,49
 372 48 372 48 339 77.5 c 128,-1,50
 306 107 306 107 290 127 c 1,51,52
 294 132 294 132 295 149 c 2,53,-1
 295 158 l 1,54,-1
 295 166 l 2,55,56
 295 179 295 179 291 199 c 2,57,-1
 288 210 l 2,58,59
 285 220 285 220 278 234 c 2,60,-1
 276 238 l 1,61,-1
 277 239 l 1,62,63
 295 271 295 271 332.5 303.5 c 128,-1,64
 370 336 370 336 396 336 c 0,42,43
EndSplineSet
Validated: 33
EndChar

StartChar: uniF131
Encoding: 61745 61745 52
Width: 288
Flags: W
LayerCount: 2
Fore
SplineSet
0 256 m 1,0,-1
 85 256 l 1,1,-1
 192 368 l 1,2,-1
 192 16 l 1,3,-1
 85 128 l 1,4,-1
 0 128 l 1,5,-1
 0 256 l 1,0,-1
288 192 m 0,6,7
 288 163 288 163 273.5 139 c 128,-1,8
 259 115 259 115 235 104 c 1,9,-1
 235 281 l 1,10,11
 259 269 259 269 273.5 244.5 c 128,-1,12
 288 220 288 220 288 192 c 0,6,7
EndSplineSet
Validated: 1
EndChar

StartChar: uniF132
Encoding: 61746 61746 53
Width: 448
Flags: W
LayerCount: 2
Fore
SplineSet
118 165 m 0,0,1
 159 165 159 165 188 135.5 c 128,-1,2
 217 106 217 106 208 63 c 0,3,4
 194 -1 194 -1 118 -14 c 0,5,6
 106 -16 106 -16 96 -16 c 0,7,8
 23 -16 23 -16 1 17 c 0,9,10
 -1 21 -1 21 2 23 c 0,11,12
 34 37 34 37 34 70 c 0,13,14
 34 109 34 109 57 137 c 128,-1,15
 80 165 80 165 118 165 c 0,0,1
436 388 m 0,16,17
 459 365 459 365 441 343 c 2,18,-1
 296 178 l 2,19,20
 288 168 288 168 288 158 c 2,21,-1
 288 157 l 2,22,23
 288 148 288 148 282 142 c 2,24,-1
 237 90 l 2,25,26
 232 86 232 86 229 89 c 0,27,28
 227 91 227 91 227 94 c 0,29,30
 227 130 227 130 201.5 153.5 c 128,-1,31
 176 177 176 177 140 180 c 0,32,33
 137 180 137 180 135 184 c 0,34,35
 133 187 133 187 137 191 c 2,36,-1
 190 234 l 2,37,38
 196 240 196 240 206 240 c 1,39,-1
 206 240 l 1,40,41
 218 240 218 240 226 248 c 2,42,-1
 391 393 l 2,43,44
 399 400 399 400 410 400 c 0,45,46
 424 400 424 400 436 388 c 0,16,17
EndSplineSet
Validated: 33
EndChar

StartChar: uniF133
Encoding: 61747 61747 54
Width: 320
Flags: W
LayerCount: 2
Fore
SplineSet
193 45 m 0,0,1
 199 45 199 45 203 40 c 128,-1,2
 207 35 207 35 206 29 c 0,3,4
 198 -8 198 -8 160 -8 c 0,5,6
 121 -8 121 -8 113 29 c 0,7,8
 112 35 112 35 116 40 c 128,-1,9
 120 45 120 45 126 45 c 0,10,11
 136 45 136 45 138 35 c 0,12,13
 139 29 139 29 143 24 c 0,14,15
 149 18 149 18 160 18 c 0,16,17
 173 18 173 18 176 24 c 0,18,19
 180 29 180 29 181 35 c 0,20,21
 183 45 183 45 193 45 c 0,0,1
316 96 m 0,22,23
 323 86 323 86 317.5 75 c 128,-1,24
 312 64 312 64 300 64 c 2,25,-1
 160 64 l 1,26,-1
 20 64 l 2,27,28
 8 64 8 64 2.5 75 c 128,-1,29
 -3 86 -3 86 4 96 c 0,30,31
 6 98 6 98 17 110.5 c 128,-1,32
 28 123 28 123 33 131.5 c 128,-1,33
 38 140 38 140 44 163.5 c 128,-1,34
 50 187 50 187 50 219 c 0,35,36
 50 283 50 283 73 317 c 128,-1,37
 96 351 96 351 129 359 c 0,38,39
 136 361 136 361 136 365 c 2,40,-1
 136 368 l 2,41,42
 136 378 136 378 143 385 c 128,-1,43
 150 392 150 392 160 392 c 1,44,-1
 160 392 l 1,45,46
 170 392 170 392 177 385 c 128,-1,47
 184 378 184 378 184 368 c 2,48,-1
 184 365 l 2,49,50
 184 360 184 360 190 359 c 0,51,52
 223 351 223 351 246.5 317 c 128,-1,53
 270 283 270 283 270 219 c 0,54,55
 270 187 270 187 276 163.5 c 128,-1,56
 282 140 282 140 287 131.5 c 128,-1,57
 292 123 292 123 303 110.5 c 128,-1,58
 314 98 314 98 316 96 c 0,22,23
277 90 m 2,59,60
 285 90 285 90 280 97 c 0,61,62
 265 115 265 115 258 131 c 0,63,64
 244 163 244 163 244 219 c 0,65,66
 244 276 244 276 223 306 c 0,67,68
 208 329 208 329 184 333 c 0,69,70
 172 336 172 336 166 344 c 128,-1,71
 160 352 160 352 154 344 c 128,-1,72
 148 336 148 336 135 333 c 0,73,74
 111 329 111 329 96 306 c 0,75,76
 75 276 75 276 75 219 c 0,77,78
 75 163 75 163 61 131 c 0,79,80
 54 113 54 113 40 97 c 0,81,82
 35 90 35 90 43 90 c 2,83,-1
 277 90 l 2,59,60
EndSplineSet
Validated: 37
EndChar

StartChar: uniF134
Encoding: 61748 61748 55
Width: 448
Flags: W
LayerCount: 2
Fore
SplineSet
343 321 m 1,0,1
 335 299 335 299 314 278 c 0,2,3
 277 241 277 241 224 241 c 0,4,5
 170 241 170 241 133 278 c 0,6,7
 114 297 114 297 105 321 c 1,8,9
 152 384 152 384 224 384 c 128,-1,10
 296 384 296 384 343 321 c 1,0,1
90 298 m 1,11,12
 107 263 107 263 140 240 c 128,-1,13
 173 217 173 217 212 215 c 1,14,-1
 212 0 l 1,15,16
 156 3 156 3 112 55 c 1,17,-1
 107 50 l 2,18,19
 99 44 99 44 103 33 c 0,20,21
 108 20 108 20 98 8 c 0,22,23
 82 -10 82 -10 64 6 c 128,-1,24
 46 22 46 22 62 40 c 2,25,-1
 65 43 l 1,26,-1
 67 44 l 1,27,28
 73 65 73 65 94 81 c 1,29,30
 69 124 69 124 65 170 c 0,31,32
 64 170 64 170 62 169.5 c 128,-1,33
 60 169 60 169 59 169 c 0,34,35
 50 168 50 168 47 160 c 0,36,37
 40 142 40 142 22 144 c 0,38,39
 2 146 2 146 0 166 c 0,40,41
 -1 177 -1 177 6.5 184.5 c 128,-1,42
 14 192 14 192 24 192 c 2,43,-1
 27 192 l 1,44,-1
 39 198 l 2,45,46
 53 202 53 202 64 202 c 1,47,48
 65 234 65 234 77 267 c 1,49,50
 65 275 65 275 62 278 c 0,51,52
 55 284 55 284 50 292 c 0,53,54
 46 297 46 297 44 299 c 0,55,56
 42 300 42 300 38 304 c 0,57,58
 28 314 28 314 35 331 c 0,59,60
 40 340 40 340 49.5 343 c 128,-1,61
 59 346 59 346 68 341 c 0,62,63
 87 330 87 330 78 310 c 1,64,65
 81 304 81 304 84 301 c 2,66,-1
 90 298 l 1,11,12
424 192 m 2,67,68
 434 192 434 192 441.5 184.5 c 128,-1,69
 449 177 449 177 448 166 c 0,70,71
 446 146 446 146 426 144 c 0,72,73
 409 142 409 142 402 159 c 0,74,75
 399 167 399 167 389 169 c 0,76,77
 388 169 388 169 386 169.5 c 128,-1,78
 384 170 384 170 383 170 c 0,79,80
 379 123 379 123 354 80 c 1,81,82
 375 64 375 64 381 44 c 0,83,84
 382 44 382 44 383 43 c 2,85,-1
 386 40 l 2,86,87
 402 22 402 22 384 6 c 128,-1,88
 366 -10 366 -10 350 8 c 0,89,90
 340 19 340 19 345 32 c 0,91,92
 349 44 349 44 341 50 c 0,93,94
 339 51 339 51 336 54 c 1,95,96
 293 3 293 3 236 0 c 1,97,-1
 236 215 l 1,98,99
 275 217 275 217 308 240 c 128,-1,100
 341 263 341 263 358 297 c 0,101,102
 362 299 362 299 364 301 c 2,103,-1
 370 310 l 1,104,105
 361 330 361 330 380 341 c 0,106,107
 403 352 403 352 413 332 c 0,108,109
 424 309 424 309 404 299 c 0,110,111
 400 297 400 297 398 293 c 0,112,113
 392 283 392 283 386 278 c 0,114,115
 383 275 383 275 371 267 c 1,116,117
 383 234 383 234 384 202 c 1,118,119
 395 202 395 202 409 198 c 2,120,-1
 421 192 l 1,121,-1
 424 192 l 2,67,68
EndSplineSet
Validated: 33
EndChar

StartChar: uniF135
Encoding: 61749 61749 56
Width: 416
Flags: W
LayerCount: 2
Fore
SplineSet
208 400 m 128,-1,1
 294 400 294 400 355 339 c 128,-1,2
 416 278 416 278 416 192 c 128,-1,3
 416 106 416 106 355 45 c 128,-1,4
 294 -16 294 -16 208 -16 c 128,-1,5
 122 -16 122 -16 61 45 c 128,-1,6
 0 106 0 106 0 192 c 128,-1,7
 0 278 0 278 61 339 c 128,-1,0
 122 400 122 400 208 400 c 128,-1,1
208 64 m 0,8,9
 258 64 258 64 295 98 c 128,-1,10
 332 132 332 132 336 181 c 0,11,12
 336 192 336 192 326 192 c 128,-1,13
 316 192 316 192 316 183 c 0,14,15
 313 142 313 142 282 113.5 c 128,-1,16
 251 85 251 85 209 84 c 0,17,18
 165 83 165 83 133 114.5 c 128,-1,19
 101 146 101 146 100 190 c 0,20,21
 99 235 99 235 131 267.5 c 128,-1,22
 163 300 163 300 208 300 c 1,23,-1
 208 258 l 2,24,25
 208 254 208 254 212 251.5 c 128,-1,26
 216 249 216 249 220 251 c 2,27,-1
 293 298 l 2,28,29
 297 300 297 300 297 304.5 c 128,-1,30
 297 309 297 309 293 311 c 2,31,-1
 220 364 l 2,32,33
 216 367 216 367 212 364.5 c 128,-1,34
 208 362 208 362 208 357 c 2,35,-1
 208 320 l 1,36,37
 155 320 155 320 117.5 282.5 c 128,-1,38
 80 245 80 245 80 192 c 128,-1,39
 80 139 80 139 117.5 101.5 c 128,-1,40
 155 64 155 64 208 64 c 0,8,9
EndSplineSet
Validated: 33
EndChar

StartChar: uniF136
Encoding: 61750 61750 57
Width: 416
Flags: W
LayerCount: 2
Fore
SplineSet
393 317 m 2,0,1
 400 322 400 322 405 316 c 0,2,3
 418 297 418 297 416 282 c 0,4,5
 413 249 413 249 386 222 c 0,6,7
 356 192 356 192 314 192 c 0,8,9
 298 192 298 192 282 200 c 0,10,11
 278 202 278 202 273 202 c 0,12,13
 267 202 267 202 262 197 c 2,14,-1
 74 -3 l 2,15,16
 62 -16 62 -16 44 -16 c 128,-1,17
 26 -16 26 -16 13 -3 c 128,-1,18
 0 10 0 10 0 28 c 128,-1,19
 0 46 0 46 13 58 c 0,20,21
 205 239 205 239 213 246 c 0,22,23
 220 253 220 253 215 266 c 0,24,25
 191 321 191 321 238 370 c 0,26,27
 264 397 264 397 298 400 c 2,28,-1
 300 400 l 2,29,30
 316 400 316 400 332 389 c 0,31,32
 339 383 339 383 333 377 c 2,33,-1
 288 332 l 2,34,35
 287 331 287 331 287 329 c 2,36,-1
 295 282 l 2,37,38
 295 279 295 279 298 279 c 2,39,-1
 345 271 l 2,40,41
 347 271 347 271 348 272 c 2,42,-1
 393 317 l 2,0,1
55 19 m 0,43,44
 64 28 64 28 55 39 c 0,45,46
 45 47 45 47 35 39 c 0,47,48
 27 29 27 29 35 19 c 0,49,50
 45 11 45 11 55 19 c 0,43,44
EndSplineSet
Validated: 33
EndChar

StartChar: uniF137
Encoding: 61751 61751 58
Width: 448
Flags: W
LayerCount: 2
Fore
SplineSet
376 224 m 2,0,1
 408 224 408 224 428 215 c 128,-1,2
 448 206 448 206 448 192 c 128,-1,3
 448 178 448 178 428 169 c 128,-1,4
 408 160 408 160 376 160 c 2,5,-1
 358 160 l 1,6,-1
 293 162 l 2,7,8
 291 162 291 162 291 161 c 2,9,-1
 194 15 l 2,10,11
 190 8 190 8 180 8 c 2,12,-1
 157 8 l 2,13,14
 147 8 147 8 151 19 c 2,15,-1
 201 162 l 2,16,17
 201 164 201 164 199 164 c 2,18,-1
 78 167 l 2,19,20
 74 167 74 167 71 164 c 2,21,-1
 33 118 l 2,22,23
 28 112 28 112 21 112 c 2,24,-1
 4 112 l 2,25,26
 -2 112 -2 112 0 118 c 2,27,-1
 20 186 l 2,28,29
 23 192 23 192 20 198 c 2,30,-1
 0 267 l 2,31,32
 -2 272 -2 272 4 272 c 2,33,-1
 21 272 l 2,34,35
 28 272 28 272 33 266 c 2,36,-1
 70 221 l 2,37,38
 73 218 73 218 77 218 c 2,39,-1
 199 220 l 2,40,41
 201 220 201 220 201 222 c 2,42,-1
 151 365 l 2,43,44
 147 376 147 376 157 376 c 2,45,-1
 180 376 l 2,46,47
 190 376 190 376 194 369 c 2,48,-1
 291 223 l 2,49,50
 291 222 291 222 293 222 c 2,51,-1
 358 224 l 1,52,-1
 376 224 l 2,0,1
EndSplineSet
Validated: 1
EndChar

StartChar: uniF138
Encoding: 61752 61752 59
Width: 296
Flags: W
LayerCount: 2
Fore
SplineSet
296 259 m 0,0,1
 296 221 296 221 266 179 c 0,2,3
 261 173 261 173 250 163 c 128,-1,4
 239 153 239 153 234 144 c 0,5,6
 218 116 218 116 216 88 c 0,7,8
 216 82 216 82 211 77.5 c 128,-1,9
 206 73 206 73 200 73 c 2,10,-1
 190 73 l 2,11,12
 186 73 186 73 186 77 c 2,13,-1
 186 171 l 2,14,15
 186 180 186 180 189 186 c 2,16,-1
 211 228 l 2,17,18
 213 233 213 233 210.5 238 c 128,-1,19
 208 243 208 243 202 243 c 0,20,21
 197 243 197 243 193 237 c 2,22,-1
 167 186 l 2,23,24
 164 180 164 180 164 172 c 2,25,-1
 164 77 l 2,26,27
 164 73 164 73 160 73 c 2,28,-1
 136 73 l 2,29,30
 132 73 132 73 132 77 c 2,31,-1
 132 172 l 2,32,33
 132 180 132 180 129 186 c 2,34,-1
 103 237 l 2,35,36
 100 243 100 243 94 243 c 128,-1,37
 88 243 88 243 85 238 c 128,-1,38
 82 233 82 233 85 228 c 2,39,-1
 106 186 l 2,40,41
 109 180 109 180 109 172 c 2,42,-1
 109 77 l 2,43,44
 109 73 109 73 105 73 c 2,45,-1
 96 73 l 2,46,47
 80 73 80 73 80 88 c 0,48,49
 78 115 78 115 61 144 c 0,50,51
 56 153 56 153 45.5 163 c 128,-1,52
 35 173 35 173 30 179 c 0,53,54
 0 221 0 221 0 259 c 0,55,56
 0 317 0 317 44.5 358.5 c 128,-1,57
 89 400 89 400 148 400 c 128,-1,58
 207 400 207 400 251.5 358.5 c 128,-1,59
 296 317 296 317 296 259 c 0,0,1
130 -16 m 2,60,61
 116 -16 116 -16 116 -2 c 128,-1,62
 116 12 116 12 130 12 c 2,63,-1
 166 12 l 2,64,65
 180 12 180 12 180 -2 c 128,-1,66
 180 -16 180 -16 166 -16 c 2,67,-1
 130 -16 l 2,60,61
110 28 m 2,68,69
 96 28 96 28 96 42 c 128,-1,70
 96 56 96 56 110 56 c 2,71,-1
 186 56 l 2,72,73
 200 56 200 56 200 42 c 128,-1,74
 200 28 200 28 186 28 c 2,75,-1
 110 28 l 2,68,69
EndSplineSet
Validated: 1
EndChar

StartChar: uniF139
Encoding: 61753 61753 60
Width: 448
Flags: W
LayerCount: 2
Fore
SplineSet
426 240 m 128,-1,1
 435 240 435 240 441.5 233.5 c 128,-1,2
 448 227 448 227 448 218 c 2,3,-1
 448 38 l 2,4,5
 448 29 448 29 441.5 22.5 c 128,-1,6
 435 16 435 16 426 16 c 128,-1,7
 417 16 417 16 410.5 22.5 c 128,-1,8
 404 29 404 29 404 38 c 2,9,-1
 404 44 l 2,10,11
 404 48 404 48 400 48 c 2,12,-1
 48 48 l 2,13,14
 44 48 44 48 44 44 c 2,15,-1
 44 38 l 2,16,17
 44 29 44 29 37.5 22.5 c 128,-1,18
 31 16 31 16 22 16 c 128,-1,19
 13 16 13 16 6.5 22.5 c 128,-1,20
 0 29 0 29 0 38 c 2,21,-1
 0 218 l 2,22,23
 0 227 0 227 6.5 233.5 c 128,-1,24
 13 240 13 240 22 240 c 128,-1,25
 31 240 31 240 37.5 233.5 c 128,-1,26
 44 227 44 227 44 218 c 0,27,28
 44 216 44 216 46 216 c 2,29,-1
 402 216 l 2,30,31
 404 216 404 216 404 218 c 0,32,33
 404 227 404 227 410.5 233.5 c 128,-1,0
 417 240 417 240 426 240 c 128,-1,1
52 234 m 2,34,35
 44 234 44 234 44 242 c 2,36,-1
 44 336 l 2,37,38
 44 350 44 350 53 359 c 128,-1,39
 62 368 62 368 76 368 c 2,40,-1
 372 368 l 2,41,42
 386 368 386 368 395 359 c 128,-1,43
 404 350 404 350 404 336 c 2,44,-1
 404 242 l 2,45,46
 404 234 404 234 396 234 c 2,47,-1
 374 234 l 2,48,49
 370 234 370 234 370 238 c 2,50,-1
 370 251 l 2,51,52
 370 267 370 267 354 267 c 2,53,-1
 256 267 l 2,54,55
 240 267 240 267 240 251 c 2,56,-1
 240 238 l 2,57,58
 240 234 240 234 236 234 c 2,59,-1
 212 234 l 2,60,61
 208 234 208 234 208 238 c 2,62,-1
 208 251 l 2,63,64
 208 267 208 267 192 267 c 2,65,-1
 94 267 l 2,66,67
 78 267 78 267 78 251 c 2,68,-1
 78 238 l 2,69,70
 78 234 78 234 74 234 c 2,71,-1
 52 234 l 2,34,35
EndSplineSet
Validated: 1
EndChar

StartChar: uniF13A
Encoding: 61754 61754 61
Width: 320
Flags: W
LayerCount: 2
Fore
SplineSet
14 31 m 0,0,1
 17 27 17 27 20.5 25 c 128,-1,2
 24 23 24 23 30 22.5 c 128,-1,3
 36 22 36 22 39.5 22 c 128,-1,4
 43 22 43 22 54.5 22 c 128,-1,5
 66 22 66 22 72 22 c 1,6,7
 72 0 72 0 69 0 c 2,8,-1
 14 0 l 2,9,10
 9 0 9 0 8 29 c 0,11,12
 8 31 8 31 10 32 c 128,-1,13
 12 33 12 33 14 31 c 0,0,1
306 31 m 0,14,15
 308 33 308 33 310 32 c 128,-1,16
 312 31 312 31 312 29 c 0,17,18
 311 0 311 0 306 0 c 2,19,-1
 251 0 l 2,20,21
 248 0 248 0 248 22 c 1,22,23
 254 22 254 22 265.5 22 c 128,-1,24
 277 22 277 22 280.5 22 c 128,-1,25
 284 22 284 22 290 22.5 c 128,-1,26
 296 23 296 23 299.5 25 c 128,-1,27
 303 27 303 27 306 31 c 0,14,15
288 384 m 2,28,29
 302 384 302 384 311 375 c 128,-1,30
 320 366 320 366 320 352 c 2,31,-1
 320 76 l 2,32,33
 320 60 320 60 308 48 c 128,-1,34
 296 36 296 36 280 36 c 2,35,-1
 40 36 l 2,36,37
 24 36 24 36 12 48 c 128,-1,38
 0 60 0 60 0 76 c 2,39,-1
 0 352 l 2,40,41
 0 366 0 366 9 375 c 128,-1,42
 18 384 18 384 32 384 c 2,43,-1
 40 384 l 1,44,-1
 280 384 l 1,45,-1
 288 384 l 2,28,29
66 72 m 0,46,47
 86 74 86 74 88 94 c 0,48,49
 89 105 89 105 81 113 c 128,-1,50
 73 121 73 121 62 120 c 0,51,52
 42 118 42 118 40 98 c 0,53,54
 39 87 39 87 47 79 c 128,-1,55
 55 71 55 71 66 72 c 0,46,47
142 150 m 2,56,57
 146 150 146 150 146 154 c 2,58,-1
 146 294 l 2,59,60
 146 298 146 298 142 298 c 2,61,-1
 44 298 l 2,62,63
 28 298 28 298 28 282 c 2,64,-1
 28 166 l 2,65,66
 28 150 28 150 44 150 c 2,67,-1
 142 150 l 2,56,57
258 72 m 0,68,69
 278 74 278 74 280 94 c 0,70,71
 281 105 281 105 273 113 c 128,-1,72
 265 121 265 121 254 120 c 0,73,74
 234 118 234 118 232 98 c 0,75,76
 231 87 231 87 239 79 c 128,-1,77
 247 71 247 71 258 72 c 0,68,69
292 166 m 2,78,-1
 292 282 l 2,79,80
 292 298 292 298 276 298 c 2,81,-1
 178 298 l 2,82,83
 174 298 174 298 174 294 c 2,84,-1
 174 154 l 2,85,86
 174 150 174 150 178 150 c 2,87,-1
 276 150 l 2,88,89
 292 150 292 150 292 166 c 2,78,-1
277 328 m 2,90,91
 292 328 292 328 292 342 c 128,-1,92
 292 356 292 356 277 356 c 2,93,-1
 43 356 l 2,94,95
 28 356 28 356 28 342 c 128,-1,96
 28 328 28 328 43 328 c 2,97,-1
 277 328 l 2,90,91
EndSplineSet
Validated: 33
EndChar

StartChar: uniF13B
Encoding: 61755 61755 62
Width: 448
Flags: W
LayerCount: 2
Fore
SplineSet
337 302 m 2,0,1
 383 302 383 302 415.5 271 c 128,-1,2
 448 240 448 240 448 193 c 128,-1,3
 448 146 448 146 415.5 114 c 128,-1,4
 383 82 383 82 337 82 c 2,5,-1
 111 82 l 2,6,7
 65 82 65 82 32.5 114 c 128,-1,8
 0 146 0 146 0 193 c 128,-1,9
 0 240 0 240 32.5 271 c 128,-1,10
 65 302 65 302 111 302 c 2,11,-1
 337 302 l 2,0,1
168 181 m 2,12,-1
 168 203 l 2,13,14
 168 208 168 208 163 208 c 2,15,-1
 128 208 l 1,16,-1
 128 243 l 2,17,18
 128 248 128 248 123 248 c 2,19,-1
 101 248 l 2,20,21
 96 248 96 248 96 243 c 2,22,-1
 96 208 l 1,23,-1
 60 208 l 2,24,25
 56 208 56 208 56 203 c 2,26,-1
 56 182 l 2,27,28
 56 176 56 176 61 176 c 2,29,-1
 96 176 l 1,30,-1
 96 140 l 2,31,32
 96 136 96 136 101 136 c 2,33,-1
 122 136 l 2,34,35
 128 136 128 136 128 141 c 2,36,-1
 128 176 l 1,37,-1
 163 176 l 2,38,39
 168 176 168 176 168 181 c 2,12,-1
288 172 m 128,-1,41
 296 172 296 172 301.5 178 c 128,-1,42
 307 184 307 184 307 192 c 0,43,44
 307 211 307 211 288 211 c 0,45,46
 280 211 280 211 274 205.5 c 128,-1,47
 268 200 268 200 268 192 c 128,-1,48
 268 184 268 184 274 178 c 128,-1,40
 280 172 280 172 288 172 c 128,-1,41
330 131 m 0,49,50
 338 131 338 131 344 136.5 c 128,-1,51
 350 142 350 142 350 150 c 128,-1,52
 350 158 350 158 344 163.5 c 128,-1,53
 338 169 338 169 330 169 c 0,54,55
 311 169 311 169 311 150 c 128,-1,56
 311 131 311 131 330 131 c 0,49,50
330 214 m 128,-1,58
 338 214 338 214 344 220 c 128,-1,59
 350 226 350 226 350 234 c 128,-1,60
 350 242 350 242 344 247.5 c 128,-1,61
 338 253 338 253 330 253 c 0,62,63
 311 253 311 253 311 234 c 0,64,65
 311 226 311 226 316.5 220 c 128,-1,57
 322 214 322 214 330 214 c 128,-1,58
373 172 m 128,-1,67
 381 172 381 172 386.5 178 c 128,-1,68
 392 184 392 184 392 192 c 0,69,70
 392 211 392 211 373 211 c 128,-1,71
 354 211 354 211 354 192 c 0,72,73
 354 184 354 184 359.5 178 c 128,-1,66
 365 172 365 172 373 172 c 128,-1,67
EndSplineSet
Validated: 1
EndChar

StartChar: uniF13C
Encoding: 61756 61756 63
Width: 416
Flags: W
LayerCount: 2
Fore
SplineSet
322 44 m 2,0,1
 336 44 336 44 336 29 c 0,2,3
 336 16 336 16 321 16 c 2,4,-1
 62 16 l 2,5,6
 48 16 48 16 48 31 c 0,7,8
 48 44 48 44 62 44 c 2,9,-1
 322 44 l 2,0,1
351 330 m 1,10,11
 380 319 380 319 398 295 c 128,-1,12
 416 271 416 271 416 242 c 0,13,14
 416 203 416 203 386 175 c 0,15,16
 358 148 358 148 314 148 c 2,17,-1
 308 148 l 1,18,19
 284 105 284 105 250 84 c 0,20,21
 218 64 218 64 206 64 c 2,22,-1
 146 64 l 2,23,24
 136 64 136 64 112.5 76.5 c 128,-1,25
 89 89 89 89 68 113 c 0,26,27
 40 146 40 146 24 192 c 0,28,29
 3 249 3 249 0 328 c 0,30,31
 0 346 0 346 12 358 c 0,32,33
 22 368 22 368 39 368 c 2,34,-1
 313 368 l 2,35,36
 329 368 329 368 339 358 c 0,37,38
 351 346 351 346 351 330 c 1,10,11
322 176 m 1,39,40
 350 178 350 178 369 197 c 128,-1,41
 388 216 388 216 388 242 c 0,42,43
 388 261 388 261 375 279 c 0,44,45
 365 292 365 292 349 300 c 1,46,47
 343 226 343 226 322 176 c 1,39,40
EndSplineSet
Validated: 1
EndChar

StartChar: uniF13D
Encoding: 61757 61757 64
Width: 416
Flags: W
LayerCount: 2
Fore
SplineSet
360 396 m 0,0,1
 416 343 416 343 416 270 c 1,2,-1
 416 270 l 1,3,4
 416 196 416 196 360 143 c 0,5,6
 356 140 356 140 351 140 c 0,7,8
 347 140 347 140 341 144 c 0,9,10
 337 148 337 148 337 153 c 0,11,12
 337 160 337 160 341 163 c 0,13,14
 388 208 388 208 388 270 c 0,15,16
 388 333 388 333 341 377 c 0,17,18
 337 381 337 381 337 386 c 0,19,20
 337 392 337 392 341 396 c 0,21,22
 347 400 347 400 351 400 c 0,23,24
 354 400 354 400 360 396 c 0,0,1
303 351 m 0,25,26
 338 318 338 318 338 270 c 1,27,-1
 338 270 l 1,28,29
 338 222 338 222 303 189 c 0,30,31
 299 185 299 185 294 185 c 0,32,33
 288 185 288 185 285 188 c 0,34,35
 281 192 281 192 281 197 c 128,-1,36
 281 202 281 202 285 206 c 0,37,38
 313 232 313 232 313 270 c 128,-1,39
 313 308 313 308 285 334 c 0,40,41
 281 338 281 338 281 343 c 0,42,43
 281 347 281 347 285 351 c 128,-1,44
 289 355 289 355 294 355 c 128,-1,45
 299 355 299 355 303 351 c 0,25,26
75 377 m 0,46,47
 28 333 28 333 28 270 c 128,-1,48
 28 207 28 207 75 163 c 0,49,50
 79 159 79 159 79 153 c 0,51,52
 79 148 79 148 75 144 c 0,53,54
 69 140 69 140 65 140 c 0,55,56
 60 140 60 140 56 143 c 0,57,58
 0 196 0 196 0 270 c 1,59,-1
 0 270 l 1,60,61
 0 343 0 343 56 396 c 0,62,63
 62 400 62 400 65 400 c 0,64,65
 69 400 69 400 75 396 c 0,66,67
 79 392 79 392 79 386 c 128,-1,68
 79 380 79 380 75 377 c 0,46,47
131 334 m 0,69,70
 103 308 103 308 103 270 c 128,-1,71
 103 232 103 232 131 206 c 0,72,73
 135 202 135 202 135 197 c 128,-1,74
 135 192 135 192 131 188 c 0,75,76
 128 185 128 185 122 185 c 0,77,78
 117 185 117 185 113 189 c 0,79,80
 78 222 78 222 78 270 c 1,81,-1
 78 270 l 1,82,83
 78 318 78 318 113 351 c 0,84,85
 117 355 117 355 122 355 c 128,-1,86
 127 355 127 355 131 351 c 128,-1,87
 135 347 135 347 135 343 c 0,88,89
 135 338 135 338 131 334 c 0,69,70
208 325 m 128,-1,91
 228 325 228 325 242 310.5 c 128,-1,92
 256 296 256 296 256 277 c 0,93,94
 256 241 256 241 222 231 c 1,95,-1
 222 -2 l 2,96,97
 222 -16 222 -16 208 -16 c 128,-1,98
 194 -16 194 -16 194 -2 c 2,99,-1
 194 231 l 1,100,101
 160 241 160 241 160 277 c 0,102,103
 160 296 160 296 174 310.5 c 128,-1,90
 188 325 188 325 208 325 c 128,-1,91
EndSplineSet
Validated: 5
EndChar

StartChar: uniF13E
Encoding: 61758 61758 65
Width: 384
Flags: W
LayerCount: 2
Fore
SplineSet
373 83 m 0,0,1
 387 69 387 69 382 57 c 128,-1,2
 377 45 377 45 369 33 c 0,3,4
 355 12 355 12 339 4 c 0,5,6
 309 -11 309 -11 244 26 c 0,7,8
 171 67 171 67 119 119 c 1,9,-1
 119 119 l 1,10,-1
 119 119 l 1,11,12
 69 168 69 168 26 244 c 0,13,14
 -10 308 -10 308 5 338 c 0,15,16
 14 356 14 356 33 369 c 2,17,-1
 57 382 l 2,18,19
 69 387 69 387 83 373 c 0,20,21
 110 346 110 346 128 306 c 0,22,23
 136 291 136 291 136 282.5 c 128,-1,24
 136 274 136 274 128 264 c 0,25,26
 127 262 127 262 122 255.5 c 128,-1,27
 117 249 117 249 117 248 c 128,-1,28
 117 247 117 247 114 239.5 c 128,-1,29
 111 232 111 232 114 230 c 0,30,31
 119 208 119 208 164 163 c 0,32,33
 208 119 208 119 230 114 c 0,34,35
 242 111 242 111 264 128 c 0,36,37
 274 136 274 136 282.5 136 c 128,-1,38
 291 136 291 136 306 128 c 0,39,40
 348 108 348 108 373 83 c 0,0,1
EndSplineSet
Validated: 33
EndChar

StartChar: uniF13F
Encoding: 61759 61759 66
Width: 448
Flags: W
LayerCount: 2
Fore
SplineSet
392 21 m 2,0,1
 402 11 402 11 392 1 c 0,2,3
 391 0 391 0 388 -1 c 2,4,-1
 385 -2 l 2,5,6
 377 -4 377 -4 372 1 c 2,7,-1
 4 363 l 2,8,9
 -6 373 -6 373 4 383 c 128,-1,10
 14 393 14 393 24 383 c 2,11,-1
 392 21 l 2,0,1
32 279 m 0,12,13
 32 296 32 296 36 309 c 1,14,-1
 306 44 l 1,15,-1
 240 -8 l 1,16,17
 139 64 139 64 79 146 c 0,18,19
 32 209 32 209 32 279 c 0,12,13
402 146 m 0,20,21
 378 113 378 113 350 85 c 1,22,-1
 68 362 l 1,23,24
 101 392 101 392 144 392 c 1,25,-1
 144 392 l 1,26,-1
 145 392 l 2,27,28
 206 392 206 392 240 340 c 1,29,30
 274 392 274 392 335 392 c 2,31,-1
 336 392 l 1,32,-1
 336 392 l 1,33,34
 383 391 383 391 415.5 358 c 128,-1,35
 448 325 448 325 448 279 c 0,36,37
 448 208 448 208 402 146 c 0,20,21
EndSplineSet
Validated: 37
EndChar

StartChar: uniF140
Encoding: 61760 61760 67
Width: 416
Flags: W
LayerCount: 2
Fore
SplineSet
368 252 m 1,0,1
 416 211 416 211 416 167 c 2,2,-1
 416 91 l 2,3,4
 416 84 416 84 410 83 c 0,5,6
 360 73 360 73 208 73 c 128,-1,7
 56 73 56 73 6 83 c 0,8,9
 0 84 0 84 0 91 c 2,10,-1
 0 167 l 2,11,12
 0 185 0 185 8 202 c 128,-1,13
 16 219 16 219 24 228 c 128,-1,14
 32 237 32 237 48 252 c 1,15,16
 90 344 90 344 148 344 c 2,17,-1
 268 344 l 2,18,19
 326 344 326 344 368 252 c 1,0,1
142 320 m 2,20,21
 119 320 119 320 99.5 291.5 c 128,-1,22
 80 263 80 263 80 250 c 1,23,-1
 336 250 l 1,24,25
 336 264 336 264 318 292 c 128,-1,26
 300 320 300 320 274 320 c 2,27,-1
 142 320 l 2,20,21
64 116 m 128,-1,29
 78 116 78 116 87 125 c 128,-1,30
 96 134 96 134 96 148 c 128,-1,31
 96 162 96 162 87 171 c 128,-1,32
 78 180 78 180 64 180 c 128,-1,33
 50 180 50 180 41 171 c 128,-1,34
 32 162 32 162 32 148 c 128,-1,35
 32 134 32 134 41 125 c 128,-1,28
 50 116 50 116 64 116 c 128,-1,29
280 148 m 128,-1,37
 280 164 280 164 264 164 c 2,38,-1
 152 164 l 2,39,40
 136 164 136 164 136 148 c 128,-1,41
 136 132 136 132 152 132 c 2,42,-1
 264 132 l 2,43,36
 280 132 280 132 280 148 c 128,-1,37
352 116 m 128,-1,45
 366 116 366 116 375 125 c 128,-1,46
 384 134 384 134 384 148 c 128,-1,47
 384 162 384 162 375 171 c 128,-1,48
 366 180 366 180 352 180 c 128,-1,49
 338 180 338 180 329 171 c 128,-1,50
 320 162 320 162 320 148 c 128,-1,51
 320 134 320 134 329 125 c 128,-1,44
 338 116 338 116 352 116 c 128,-1,45
112 64 m 1,52,53
 112 40 112 40 107 40 c 2,54,-1
 22 40 l 2,55,56
 16 40 16 40 16 69 c 1,57,58
 64 64 64 64 112 64 c 1,52,53
304 64 m 1,59,-1
 400 69 l 1,60,61
 400 40 400 40 395 40 c 2,62,-1
 309 40 l 2,63,64
 304 40 304 40 304 64 c 1,59,-1
EndSplineSet
Validated: 1
EndChar

StartChar: uniF141
Encoding: 61761 61761 68
Width: 170
Flags: W
LayerCount: 2
Fore
SplineSet
146 416 m 2,0,1
 170 416 170 416 170 384 c 1,2,-1
 0 384 l 1,3,4
 0 416 0 416 24 416 c 2,5,-1
 146 416 l 2,0,1
25 300 m 0,6,7
 0 328 0 328 0 368 c 1,8,-1
 170 368 l 1,9,10
 170 330 170 330 145 300 c 0,11,12
 133 286 133 286 133 269 c 2,13,-1
 133 3 l 2,14,15
 133 -13 133 -13 121.5 -22.5 c 128,-1,16
 110 -32 110 -32 93 -32 c 2,17,-1
 77 -32 l 2,18,19
 60 -32 60 -32 48.5 -22.5 c 128,-1,20
 37 -13 37 -13 37 3 c 2,21,-1
 37 269 l 2,22,23
 37 286 37 286 25 300 c 0,6,7
57 210 m 2,24,-1
 57 174 l 2,25,26
 57 162 57 162 65.5 154 c 128,-1,27
 74 146 74 146 85 146 c 128,-1,28
 96 146 96 146 104.5 154 c 128,-1,29
 113 162 113 162 113 174 c 2,30,-1
 113 210 l 2,31,32
 113 222 113 222 104.5 230 c 128,-1,33
 96 238 96 238 85 238 c 128,-1,34
 74 238 74 238 65.5 230 c 128,-1,35
 57 222 57 222 57 210 c 2,24,-1
65 175 m 128,-1,37
 65 183 65 183 71 189 c 128,-1,38
 77 195 77 195 85 195 c 128,-1,39
 93 195 93 195 99 189 c 128,-1,40
 105 183 105 183 105 175 c 128,-1,41
 105 167 105 167 99 161 c 128,-1,42
 93 155 93 155 85 155 c 128,-1,43
 77 155 77 155 71 161 c 128,-1,36
 65 167 65 167 65 175 c 128,-1,37
EndSplineSet
Validated: 1
EndChar

StartChar: uniF142
Encoding: 61762 61762 69
Width: 448
Flags: W
LayerCount: 2
Fore
SplineSet
448 320 m 2,0,-1
 448 272 l 1,1,-1
 0 272 l 1,2,-1
 0 320 l 2,3,4
 0 334 0 334 9 343 c 128,-1,5
 18 352 18 352 32 352 c 2,6,-1
 416 352 l 2,7,8
 430 352 430 352 439 343 c 128,-1,9
 448 334 448 334 448 320 c 2,0,-1
0 64 m 2,10,-1
 0 224 l 1,11,-1
 448 224 l 1,12,-1
 448 64 l 2,13,14
 448 50 448 50 439 41 c 128,-1,15
 430 32 430 32 416 32 c 2,16,-1
 32 32 l 2,17,18
 18 32 18 32 9 41 c 128,-1,19
 0 50 0 50 0 64 c 2,10,-1
142 112 m 2,20,21
 128 112 128 112 128 98 c 128,-1,22
 128 84 128 84 142 84 c 2,23,-1
 306 84 l 2,24,25
 320 84 320 84 320 98 c 128,-1,26
 320 112 320 112 306 112 c 2,27,-1
 142 112 l 2,20,21
70 112 m 2,28,29
 56 112 56 112 56 98 c 128,-1,30
 56 84 56 84 70 84 c 2,31,-1
 82 84 l 2,32,33
 96 84 96 84 96 98 c 128,-1,34
 96 112 96 112 82 112 c 2,35,-1
 70 112 l 2,28,29
EndSplineSet
Validated: 1
EndChar

StartChar: uniF143
Encoding: 61763 61763 70
Width: 416
Flags: W
LayerCount: 2
Fore
SplineSet
0 365 m 2,0,1
 0 379 0 379 10.5 389.5 c 128,-1,2
 21 400 21 400 35 400 c 2,3,-1
 381 400 l 2,4,5
 395 400 395 400 405.5 389.5 c 128,-1,6
 416 379 416 379 416 365 c 2,7,-1
 416 19 l 2,8,9
 416 5 416 5 405.5 -5.5 c 128,-1,10
 395 -16 395 -16 381 -16 c 2,11,-1
 35 -16 l 2,12,13
 21 -16 21 -16 10.5 -5.5 c 128,-1,14
 0 5 0 5 0 19 c 2,15,-1
 0 365 l 2,0,1
89 68 m 0,16,17
 104 70 104 70 106 85 c 0,18,19
 108 95 108 95 101 102 c 128,-1,20
 94 109 94 109 84 108 c 0,21,22
 69 106 69 106 67 91 c 0,23,24
 65 81 65 81 72 74 c 128,-1,25
 79 67 79 67 89 68 c 0,16,17
89 172 m 0,26,27
 104 174 104 174 106 189 c 0,28,29
 108 199 108 199 101 206 c 128,-1,30
 94 213 94 213 84 212 c 0,31,32
 69 210 69 210 67 195 c 0,33,34
 65 185 65 185 72 178 c 128,-1,35
 79 171 79 171 89 172 c 0,26,27
89 276 m 0,36,37
 104 278 104 278 106 293 c 0,38,39
 108 303 108 303 101 310 c 128,-1,40
 94 317 94 317 84 316 c 0,41,42
 69 314 69 314 67 299 c 0,43,44
 65 289 65 289 72 282 c 128,-1,45
 79 275 79 275 89 276 c 0,36,37
337 74 m 2,46,47
 351 74 351 74 351 88 c 128,-1,48
 351 102 351 102 337 102 c 2,49,-1
 157 102 l 2,50,51
 143 102 143 102 143 88 c 128,-1,52
 143 74 143 74 157 74 c 2,53,-1
 337 74 l 2,46,47
337 178 m 2,54,55
 351 178 351 178 351 192 c 128,-1,56
 351 206 351 206 337 206 c 2,57,-1
 157 206 l 2,58,59
 143 206 143 206 143 192 c 128,-1,60
 143 178 143 178 157 178 c 2,61,-1
 337 178 l 2,54,55
337 282 m 2,62,63
 351 282 351 282 351 296 c 128,-1,64
 351 310 351 310 337 310 c 2,65,-1
 157 310 l 2,66,67
 143 310 143 310 143 296 c 128,-1,68
 143 282 143 282 157 282 c 2,69,-1
 337 282 l 2,62,63
EndSplineSet
Validated: 33
EndChar

StartChar: uniF144
Encoding: 61764 61764 71
Width: 448
Flags: W
LayerCount: 2
Fore
SplineSet
434 92 m 2,0,1
 448 92 448 92 448 78 c 128,-1,2
 448 64 448 64 434 64 c 2,3,-1
 14 64 l 2,4,5
 0 64 0 64 0 78 c 128,-1,6
 0 92 0 92 14 92 c 2,7,-1
 434 92 l 2,0,1
434 44 m 2,8,9
 448 44 448 44 448 30 c 128,-1,10
 448 16 448 16 434 16 c 2,11,-1
 14 16 l 2,12,13
 0 16 0 16 0 30 c 128,-1,14
 0 44 0 44 14 44 c 2,15,-1
 434 44 l 2,8,9
413 368 m 2,16,17
 427 368 427 368 437.5 357.5 c 128,-1,18
 448 347 448 347 448 333 c 2,19,-1
 448 155 l 2,20,21
 448 141 448 141 437.5 130.5 c 128,-1,22
 427 120 427 120 413 120 c 2,23,-1
 35 120 l 2,24,25
 21 120 21 120 10.5 130.5 c 128,-1,26
 0 141 0 141 0 155 c 2,27,-1
 0 333 l 2,28,29
 0 347 0 347 10.5 357.5 c 128,-1,30
 21 368 21 368 35 368 c 2,31,-1
 413 368 l 2,16,17
82 152 m 2,32,33
 96 152 96 152 96 166 c 128,-1,34
 96 180 96 180 82 180 c 2,35,-1
 46 180 l 2,36,37
 32 180 32 180 32 166 c 128,-1,38
 32 152 32 152 46 152 c 2,39,-1
 82 152 l 2,32,33
82 308 m 2,40,41
 96 308 96 308 96 322 c 128,-1,42
 96 336 96 336 82 336 c 2,43,-1
 46 336 l 2,44,45
 32 336 32 336 32 322 c 128,-1,46
 32 308 32 308 46 308 c 2,47,-1
 82 308 l 2,40,41
224 164 m 128,-1,49
 257 164 257 164 280.5 187.5 c 128,-1,50
 304 211 304 211 304 244 c 128,-1,51
 304 277 304 277 280.5 300.5 c 128,-1,52
 257 324 257 324 224 324 c 128,-1,53
 191 324 191 324 167.5 300.5 c 128,-1,54
 144 277 144 277 144 244 c 128,-1,55
 144 211 144 211 167.5 187.5 c 128,-1,48
 191 164 191 164 224 164 c 128,-1,49
402 152 m 2,56,57
 416 152 416 152 416 166 c 128,-1,58
 416 180 416 180 402 180 c 2,59,-1
 366 180 l 2,60,61
 352 180 352 180 352 166 c 128,-1,62
 352 152 352 152 366 152 c 2,63,-1
 402 152 l 2,56,57
402 308 m 2,64,65
 416 308 416 308 416 322 c 128,-1,66
 416 336 416 336 402 336 c 2,67,-1
 366 336 l 2,68,69
 352 336 352 336 352 322 c 128,-1,70
 352 308 352 308 366 308 c 2,71,-1
 402 308 l 2,64,65
171 242 m 128,-1,73
 171 264 171 264 186.5 279.5 c 128,-1,74
 202 295 202 295 224 295 c 128,-1,75
 246 295 246 295 261.5 279.5 c 128,-1,76
 277 264 277 264 277 242 c 128,-1,77
 277 220 277 220 261.5 204.5 c 128,-1,78
 246 189 246 189 224 189 c 128,-1,79
 202 189 202 189 186.5 204.5 c 128,-1,72
 171 220 171 220 171 242 c 128,-1,73
EndSplineSet
Validated: 1
EndChar

StartChar: uniF145
Encoding: 61765 61765 72
Width: 416
Flags: W
LayerCount: 2
Fore
SplineSet
320 296 m 128,-1,1
 320 316 320 316 334 330 c 128,-1,2
 348 344 348 344 368 344 c 128,-1,3
 388 344 388 344 402 330 c 128,-1,4
 416 316 416 316 416 296 c 128,-1,5
 416 276 416 276 402 262 c 128,-1,6
 388 248 388 248 368 248 c 128,-1,7
 348 248 348 248 334 262 c 128,-1,0
 320 276 320 276 320 296 c 128,-1,1
368 230 m 0,8,9
 398 230 398 230 416 250 c 1,10,-1
 416 72 l 2,11,12
 416 58 416 58 407 49 c 128,-1,13
 398 40 398 40 384 40 c 2,14,-1
 32 40 l 2,15,16
 18 40 18 40 9 49 c 128,-1,17
 0 58 0 58 0 72 c 2,18,-1
 0 291 l 2,19,20
 0 292 0 292 1 293 c 128,-1,21
 2 294 2 294 3 293 c 2,22,-1
 111 183 l 2,23,24
 112 182 112 182 111 180 c 2,25,-1
 36 100 l 2,26,27
 27 91 27 91 36 82 c 0,28,29
 40 78 40 78 45 78 c 128,-1,30
 50 78 50 78 54 82 c 2,31,-1
 129 162 l 2,32,33
 130 164 130 164 132 162 c 2,34,-1
 150 144 l 2,35,36
 175 119 175 119 208 119 c 0,37,38
 244 119 244 119 266 143 c 2,39,-1
 284 162 l 2,40,41
 286 164 286 164 287 162 c 2,42,-1
 362 82 l 2,43,44
 366 78 366 78 371 78 c 128,-1,45
 376 78 376 78 380 82 c 0,46,47
 389 91 389 91 380 100 c 2,48,-1
 305 180 l 2,49,50
 304 182 304 182 305 183 c 2,51,-1
 352 231 l 1,52,53
 357 230 357 230 368 230 c 0,8,9
302 296 m 0,54,55
 302 262 302 262 328 243 c 1,56,-1
 247 161 l 2,57,58
 232 145 232 145 208 145 c 128,-1,59
 184 145 184 145 169 161 c 2,60,-1
 12 321 l 1,61,62
 21 328 21 328 32 328 c 2,63,-1
 310 328 l 1,64,65
 302 312 302 312 302 296 c 0,54,55
EndSplineSet
Validated: 33
EndChar

StartChar: uniF146
Encoding: 61766 61766 73
Width: 416
Flags: W
LayerCount: 2
Fore
SplineSet
383 127 m 2,0,-1
 399 69 l 2,1,2
 400 67 400 67 400 66 c 0,3,4
 400 58 400 58 392 58 c 2,5,-1
 388 59 l 1,6,-1
 331 80 l 2,7,8
 325 82 325 82 321 82 c 0,9,10
 318 82 318 82 312 80 c 0,11,12
 297 75 297 75 286 72 c 0,13,14
 257 64 257 64 239 64 c 0,15,16
 168 64 168 64 118 114 c 128,-1,17
 68 164 68 164 68 233 c 0,18,19
 68 245 68 245 72 267 c 0,20,21
 84 324 84 324 132 362 c 128,-1,22
 180 400 180 400 242 400 c 0,23,24
 314 400 314 400 365 351 c 128,-1,25
 416 302 416 302 416 233 c 0,26,27
 416 186 416 186 388 143 c 0,28,29
 388 142 388 142 387 142 c 2,30,-1
 386 140 l 2,31,32
 383 134 383 134 383 127 c 2,0,-1
270 56 m 128,-1,34
 272 56 272 56 276.5 57 c 128,-1,35
 281 58 281 58 283 59 c 1,36,-1
 276 50 l 2,37,38
 228 -6 228 -6 156 -6 c 0,39,40
 128 -6 128 -6 95 6 c 2,41,-1
 89 8 l 2,42,43
 85 8 85 8 83 7 c 2,44,-1
 27 -15 l 2,45,46
 26 -15 26 -15 24 -16 c 0,47,48
 23 -16 23 -16 19 -14 c 0,49,50
 15 -10 15 -10 16 -6 c 0,51,52
 28 54 28 54 28 56 c 128,-1,53
 28 58 28 58 25 64 c 0,54,55
 0 101 0 101 0 146 c 0,56,57
 0 211 0 211 52 257 c 2,58,-1
 60 264 l 1,59,60
 60 262 60 262 58 257.5 c 128,-1,61
 56 253 56 253 56 251 c 128,-1,62
 56 249 56 249 55 244.5 c 128,-1,63
 54 240 54 240 54 238 c 0,64,65
 52 226 52 226 52 217 c 0,66,67
 52 148 52 148 102 98 c 128,-1,68
 152 48 152 48 223 48 c 0,69,70
 237 48 237 48 257 52 c 0,71,72
 260 53 260 53 264 54.5 c 128,-1,33
 268 56 268 56 270 56 c 128,-1,34
EndSplineSet
Validated: 1
EndChar

StartChar: uniF147
Encoding: 61767 61767 74
Width: 384
Flags: W
LayerCount: 2
Fore
SplineSet
352 384 m 2,0,1
 366 384 366 384 375 375 c 128,-1,2
 384 366 384 366 384 352 c 2,3,-1
 384 32 l 2,4,5
 384 18 384 18 375 9 c 128,-1,6
 366 0 366 0 352 0 c 2,7,-1
 32 0 l 2,8,9
 18 0 18 0 9 9 c 128,-1,10
 0 18 0 18 0 32 c 2,11,-1
 0 352 l 2,12,13
 0 366 0 366 9 375 c 128,-1,14
 18 384 18 384 32 384 c 2,15,-1
 352 384 l 2,0,1
356 36 m 2,16,-1
 356 348 l 2,17,18
 356 356 356 356 348 356 c 2,19,-1
 36 356 l 2,20,21
 28 356 28 356 28 348 c 2,22,-1
 28 36 l 2,23,24
 28 28 28 28 36 28 c 2,25,-1
 348 28 l 2,26,27
 356 28 356 28 356 36 c 2,16,-1
300 255 m 2,28,29
 302 253 302 253 300 249 c 2,30,-1
 166 115 l 2,31,32
 161 110 161 110 154 110 c 0,33,34
 148 110 148 110 143 115 c 2,35,-1
 87 171 l 2,36,37
 84 174 84 174 87 177 c 2,38,-1
 104 195 l 2,39,40
 105 196 105 196 107 196 c 128,-1,41
 109 196 109 196 110 195 c 2,42,-1
 154 150 l 1,43,-1
 276 273 l 2,44,45
 277 274 277 274 279 274 c 128,-1,46
 281 274 281 274 282 273 c 2,47,-1
 300 255 l 2,28,29
EndSplineSet
Validated: 1
EndChar

StartChar: uniF148
Encoding: 61768 61768 75
Width: 384
Flags: W
LayerCount: 2
Fore
SplineSet
352 384 m 2,0,1
 366 384 366 384 375 375 c 128,-1,2
 384 366 384 366 384 352 c 2,3,-1
 384 32 l 2,4,5
 384 18 384 18 375 9 c 128,-1,6
 366 0 366 0 352 0 c 2,7,-1
 32 0 l 2,8,9
 18 0 18 0 9 9 c 128,-1,10
 0 18 0 18 0 32 c 2,11,-1
 0 352 l 2,12,13
 0 366 0 366 9 375 c 128,-1,14
 18 384 18 384 32 384 c 2,15,-1
 352 384 l 2,0,1
300 250 m 2,16,17
 302 252 302 252 299 255 c 2,18,-1
 282 273 l 2,19,20
 280 275 280 275 279 275 c 128,-1,21
 278 275 278 275 276 273 c 2,22,-1
 154 150 l 1,23,-1
 110 195 l 2,24,25
 109 196 109 196 107 196 c 128,-1,26
 105 196 105 196 104 195 c 2,27,-1
 86 177 l 2,28,29
 83 174 83 174 86 171 c 2,30,-1
 142 115 l 2,31,32
 147 110 147 110 154 110 c 128,-1,33
 161 110 161 110 166 115 c 2,34,-1
 300 250 l 2,16,17
EndSplineSet
Validated: 1
EndChar

StartChar: uniF149
Encoding: 61769 61769 76
Width: 416
Flags: W
LayerCount: 2
Fore
SplineSet
315 255 m 2,0,1
 317 253 317 253 315 249 c 2,2,-1
 181 115 l 2,3,4
 176 110 176 110 169 110 c 0,5,6
 163 110 163 110 158 115 c 2,7,-1
 102 171 l 2,8,9
 99 174 99 174 102 177 c 2,10,-1
 119 195 l 2,11,12
 120 196 120 196 122 196 c 128,-1,13
 124 196 124 196 125 195 c 2,14,-1
 169 150 l 1,15,-1
 291 273 l 2,16,17
 292 274 292 274 294 274 c 128,-1,18
 296 274 296 274 297 273 c 2,19,-1
 315 255 l 2,0,1
208 372 m 128,-1,21
 134 372 134 372 81 319 c 128,-1,22
 28 266 28 266 28 192 c 128,-1,23
 28 118 28 118 81 65 c 128,-1,24
 134 12 134 12 208 12 c 128,-1,25
 282 12 282 12 335 65 c 128,-1,26
 388 118 388 118 388 192 c 128,-1,27
 388 266 388 266 335 319 c 128,-1,20
 282 372 282 372 208 372 c 128,-1,21
208 400 m 128,-1,29
 294 400 294 400 355 339 c 128,-1,30
 416 278 416 278 416 192 c 128,-1,31
 416 106 416 106 355 45 c 128,-1,32
 294 -16 294 -16 208 -16 c 128,-1,33
 122 -16 122 -16 61 45 c 128,-1,34
 0 106 0 106 0 192 c 128,-1,35
 0 278 0 278 61 339 c 128,-1,28
 122 400 122 400 208 400 c 128,-1,29
EndSplineSet
Validated: 1
EndChar

StartChar: uniF14A
Encoding: 61770 61770 77
Width: 416
Flags: W
LayerCount: 2
Fore
SplineSet
208 400 m 128,-1,1
 294 400 294 400 355 339 c 128,-1,2
 416 278 416 278 416 192 c 128,-1,3
 416 106 416 106 355 45 c 128,-1,4
 294 -16 294 -16 208 -16 c 128,-1,5
 122 -16 122 -16 61 45 c 128,-1,6
 0 106 0 106 0 192 c 128,-1,7
 0 278 0 278 61 339 c 128,-1,0
 122 400 122 400 208 400 c 128,-1,1
314 250 m 2,8,9
 316 252 316 252 314 255 c 2,10,-1
 297 273 l 2,11,12
 295 275 295 275 294 275 c 128,-1,13
 293 275 293 275 291 273 c 2,14,-1
 169 150 l 1,15,-1
 125 195 l 2,16,17
 124 196 124 196 122 196 c 128,-1,18
 120 196 120 196 119 195 c 2,19,-1
 101 177 l 2,20,21
 98 174 98 174 101 171 c 2,22,-1
 157 115 l 2,23,24
 162 110 162 110 169 110 c 128,-1,25
 176 110 176 110 181 115 c 2,26,-1
 314 250 l 2,8,9
EndSplineSet
Validated: 1
EndChar

StartChar: uniF14B
Encoding: 61771 61771 78
Width: 416
Flags: W
LayerCount: 2
Fore
SplineSet
414 394 m 0,0,1
 424 350 424 350 393 273 c 128,-1,2
 362 196 362 196 312 146 c 0,3,4
 295 129 295 129 272 113 c 1,5,6
 275 77 275 77 265 54 c 0,7,8
 240 -3 240 -3 160 -16 c 0,9,10
 155 -17 155 -17 151.5 -13.5 c 128,-1,11
 148 -10 148 -10 149 -6 c 2,12,-1
 158 75 l 1,13,14
 154 75 154 75 148 75.5 c 128,-1,15
 142 76 142 76 140 76 c 0,16,17
 135 76 135 76 129 82 c 2,18,-1
 97 113 l 2,19,20
 92 118 92 118 92 124 c 0,21,22
 92 125 92 125 91.5 131.5 c 128,-1,23
 91 138 91 138 91 142 c 1,24,-1
 10 134 l 2,25,26
 5 133 5 133 2 136.5 c 128,-1,27
 -1 140 -1 140 0 144 c 0,28,29
 13 224 13 224 69 249 c 0,30,31
 93 259 93 259 129 256 c 1,32,33
 145 279 145 279 162 296 c 0,34,35
 212 346 212 346 290.5 377 c 128,-1,36
 369 408 369 408 411 398 c 0,37,38
 414 398 414 398 414 394 c 0,0,1
251 234 m 128,-1,40
 264 221 264 221 281 221 c 128,-1,41
 298 221 298 221 311 234 c 128,-1,42
 324 247 324 247 324 264.5 c 128,-1,43
 324 282 324 282 311 295 c 128,-1,44
 298 308 298 308 281 308 c 128,-1,45
 264 308 264 308 251 295 c 128,-1,46
 238 282 238 282 238 264.5 c 128,-1,39
 238 247 238 247 251 234 c 128,-1,40
127 68 m 0,47,48
 132 73 132 73 132 65 c 0,49,50
 130 49 130 49 119 38 c 0,51,52
 111 30 111 30 89.5 25 c 128,-1,53
 68 20 68 20 51 19 c 2,54,-1
 34 18 l 1,55,56
 36 85 36 85 54 103 c 0,57,58
 65 114 65 114 81 116 c 0,59,60
 83 116 83 116 84.5 114 c 128,-1,61
 86 112 86 112 84 110 c 0,62,63
 78 104 78 104 76 90 c 0,64,65
 74 77 74 77 83.5 67.5 c 128,-1,66
 93 58 93 58 107 60 c 128,-1,67
 121 62 121 62 127 68 c 0,47,48
EndSplineSet
Validated: 33
EndChar

StartChar: uniF14C
Encoding: 61772 61772 79
Width: 352
Flags: W
LayerCount: 2
Fore
SplineSet
60 288 m 2,0,1
 60 304 60 304 76 304 c 2,2,-1
 276 304 l 2,3,4
 292 304 292 304 292 288 c 2,5,-1
 292 48 l 2,6,7
 292 32 292 32 276 32 c 2,8,-1
 76 32 l 2,9,10
 60 32 60 32 60 48 c 2,11,-1
 60 288 l 2,0,1
242 367 m 2,12,13
 256 367 256 367 256 352 c 2,14,-1
 256 334 l 2,15,16
 256 332 256 332 254 332 c 2,17,-1
 98 332 l 2,18,19
 96 332 96 332 96 334 c 2,20,-1
 96 350 l 2,21,22
 96 367 96 367 114 367 c 2,23,-1
 128 367 l 1,24,25
 128 376 128 376 131 383 c 0,26,27
 133 389 133 389 141 399 c 0,28,29
 156 416 156 416 176 416 c 0,30,31
 197 416 197 416 212 399 c 0,32,33
 220 389 220 389 222 383 c 0,34,35
 224 378 224 378 224 367 c 1,36,-1
 242 367 l 2,12,13
179 352 m 0,37,38
 190 354 190 354 192 365 c 0,39,40
 193 372 193 372 187 378 c 128,-1,41
 181 384 181 384 174 383 c 0,42,43
 163 381 163 381 161 369 c 0,44,45
 160 362 160 362 165.5 356.5 c 128,-1,46
 171 351 171 351 179 352 c 0,37,38
320 400 m 2,47,48
 334 400 334 400 343 391 c 128,-1,49
 352 382 352 382 352 368 c 2,50,-1
 352 0 l 2,51,52
 352 -13 352 -13 342.5 -22.5 c 128,-1,53
 333 -32 333 -32 320 -32 c 2,54,-1
 32 -32 l 2,55,56
 0 -32 0 -32 0 24 c 2,57,-1
 0 368 l 2,58,59
 0 382 0 382 9 391 c 128,-1,60
 18 400 18 400 32 400 c 2,61,-1
 108 400 l 2,62,63
 109 400 109 400 110 399 c 128,-1,64
 111 398 111 398 110 397 c 0,65,66
 104 390 104 390 102 381 c 0,67,68
 102 380 102 380 101 380 c 2,69,-1
 100 380 l 2,70,71
 73 380 73 380 73 343 c 2,72,-1
 73 334 l 2,73,74
 73 332 73 332 71 332 c 2,75,-1
 49 332 l 2,76,77
 33 332 33 332 33 316 c 2,78,-1
 33 19 l 2,79,80
 33 3 33 3 49 3 c 2,81,-1
 302 3 l 2,82,83
 318 3 318 3 318 19 c 2,84,-1
 318 316 l 2,85,86
 318 332 318 332 302 332 c 2,87,-1
 282 332 l 2,88,89
 280 332 280 332 280 334 c 2,90,-1
 280 348 l 1,91,-1
 280 349 l 2,92,93
 278 383 278 383 253 383 c 2,94,-1
 252 383 l 2,95,96
 250 383 250 383 250 384 c 0,97,98
 247 392 247 392 243 397 c 0,99,100
 242 398 242 398 243 399 c 128,-1,101
 244 400 244 400 245 400 c 2,102,-1
 320 400 l 2,47,48
EndSplineSet
Validated: 1
EndChar

StartChar: uniF14D
Encoding: 61773 61773 80
Width: 416
Flags: W
LayerCount: 2
Fore
SplineSet
283 139 m 2,0,1
 294 128 294 128 283 117 c 128,-1,2
 272 106 272 106 261 117 c 2,3,-1
 208 169 l 1,4,-1
 155 117 l 2,5,6
 144 106 144 106 133 117 c 128,-1,7
 122 128 122 128 133 139 c 2,8,-1
 185 192 l 1,9,10
 139 239 139 239 133 245 c 0,11,12
 122 256 122 256 133 267 c 128,-1,13
 144 278 144 278 155 267 c 2,14,-1
 208 215 l 1,15,-1
 261 267 l 2,16,17
 272 278 272 278 283 267 c 128,-1,18
 294 256 294 256 283 245 c 2,19,-1
 231 192 l 1,20,-1
 283 139 l 2,0,1
208 372 m 128,-1,22
 134 372 134 372 81 319 c 128,-1,23
 28 266 28 266 28 192 c 128,-1,24
 28 118 28 118 81 65 c 128,-1,25
 134 12 134 12 208 12 c 128,-1,26
 282 12 282 12 335 65 c 128,-1,27
 388 118 388 118 388 192 c 128,-1,28
 388 266 388 266 335 319 c 128,-1,21
 282 372 282 372 208 372 c 128,-1,22
208 400 m 128,-1,30
 294 400 294 400 355 339 c 128,-1,31
 416 278 416 278 416 192 c 128,-1,32
 416 106 416 106 355 45 c 128,-1,33
 294 -16 294 -16 208 -16 c 128,-1,34
 122 -16 122 -16 61 45 c 128,-1,35
 0 106 0 106 0 192 c 128,-1,36
 0 278 0 278 61 339 c 128,-1,29
 122 400 122 400 208 400 c 128,-1,30
EndSplineSet
Validated: 33
EndChar

StartChar: uniF14E
Encoding: 61774 61774 81
Width: 416
Flags: W
LayerCount: 2
Fore
SplineSet
208 400 m 128,-1,1
 294 400 294 400 355 339 c 128,-1,2
 416 278 416 278 416 192 c 128,-1,3
 416 106 416 106 355 45 c 128,-1,4
 294 -16 294 -16 208 -16 c 128,-1,5
 122 -16 122 -16 61 45 c 128,-1,6
 0 106 0 106 0 192 c 128,-1,7
 0 278 0 278 61 339 c 128,-1,0
 122 400 122 400 208 400 c 128,-1,1
261 117 m 2,8,9
 272 106 272 106 283 117 c 128,-1,10
 294 128 294 128 283 139 c 2,11,-1
 231 192 l 1,12,-1
 283 245 l 2,13,14
 294 256 294 256 283 267 c 128,-1,15
 272 278 272 278 261 267 c 2,16,-1
 208 215 l 1,17,-1
 155 267 l 2,18,19
 144 278 144 278 133 267 c 0,20,21
 128 262 128 262 128 256 c 128,-1,22
 128 250 128 250 133 245 c 2,23,-1
 185 192 l 1,24,-1
 133 139 l 2,25,26
 128 134 128 134 128 128 c 128,-1,27
 128 122 128 122 133 117 c 0,28,29
 144 106 144 106 155 117 c 2,30,-1
 208 169 l 1,31,-1
 261 117 l 2,8,9
EndSplineSet
Validated: 33
EndChar

StartChar: uniF14F
Encoding: 61775 61775 82
Width: 384
Flags: W
LayerCount: 2
Fore
SplineSet
324 416 m 2,0,1
 349 416 349 416 366.5 398.5 c 128,-1,2
 384 381 384 381 384 356 c 2,3,-1
 384 28 l 2,4,5
 384 3 384 3 366.5 -14.5 c 128,-1,6
 349 -32 349 -32 324 -32 c 2,7,-1
 60 -32 l 2,8,9
 35 -32 35 -32 17.5 -14.5 c 128,-1,10
 0 3 0 3 0 28 c 2,11,-1
 0 356 l 2,12,13
 0 381 0 381 17.5 398.5 c 128,-1,14
 35 416 35 416 60 416 c 2,15,-1
 324 416 l 2,0,1
356 28 m 2,16,-1
 356 356 l 2,17,18
 356 370 356 370 347 379 c 128,-1,19
 338 388 338 388 324 388 c 2,20,-1
 60 388 l 2,21,22
 46 388 46 388 37 379 c 128,-1,23
 28 370 28 370 28 356 c 2,24,-1
 28 28 l 2,25,26
 28 14 28 14 37 5 c 128,-1,27
 46 -4 46 -4 60 -4 c 2,28,-1
 324 -4 l 2,29,30
 338 -4 338 -4 347 5 c 128,-1,31
 356 14 356 14 356 28 c 2,16,-1
296 272 m 2,32,33
 306 272 306 272 313 265 c 128,-1,34
 320 258 320 258 320 248 c 2,35,-1
 320 56 l 2,36,37
 320 46 320 46 313 39 c 128,-1,38
 306 32 306 32 296 32 c 2,39,-1
 88 32 l 2,40,41
 78 32 78 32 71 39 c 128,-1,42
 64 46 64 46 64 56 c 2,43,-1
 64 248 l 2,44,45
 64 258 64 258 71 265 c 128,-1,46
 78 272 78 272 88 272 c 2,47,-1
 296 272 l 2,32,33
78 324 m 2,48,49
 64 324 64 324 64 338 c 128,-1,50
 64 352 64 352 78 352 c 2,51,-1
 178 352 l 2,52,53
 192 352 192 352 192 338 c 128,-1,54
 192 324 192 324 178 324 c 2,55,-1
 78 324 l 2,48,49
EndSplineSet
Validated: 1
EndChar

StartChar: uniF150
Encoding: 61776 61776 83
Width: 416
Flags: W
LayerCount: 2
Fore
SplineSet
208 287 m 128,-1,1
 247 287 247 287 275 259 c 128,-1,2
 303 231 303 231 303 192 c 128,-1,3
 303 153 303 153 275 125 c 128,-1,4
 247 97 247 97 208 97 c 128,-1,5
 169 97 169 97 141 125 c 128,-1,6
 113 153 113 153 113 192 c 128,-1,7
 113 231 113 231 141 259 c 128,-1,0
 169 287 169 287 208 287 c 128,-1,1
301 322 m 128,-1,9
 301 340 301 340 313.5 352.5 c 128,-1,10
 326 365 326 365 344 365 c 128,-1,11
 362 365 362 365 374.5 352.5 c 128,-1,12
 387 340 387 340 387 322 c 128,-1,13
 387 304 387 304 374.5 291 c 128,-1,14
 362 278 362 278 344 278 c 128,-1,15
 326 278 326 278 313.5 291 c 128,-1,8
 301 304 301 304 301 322 c 128,-1,9
397 278 m 1,16,17
 416 235 416 235 416 192 c 0,18,19
 416 106 416 106 355 45 c 128,-1,20
 294 -16 294 -16 208 -16 c 128,-1,21
 122 -16 122 -16 61 45 c 128,-1,22
 0 106 0 106 0 192 c 128,-1,23
 0 278 0 278 61 339 c 128,-1,24
 122 400 122 400 208 400 c 0,25,26
 257 400 257 400 303 377 c 2,27,-1
 307 375 l 1,28,-1
 304 372 l 2,29,30
 290 360 290 360 285 347 c 2,31,-1
 284 344 l 1,32,-1
 281 346 l 1,33,34
 248 362 248 362 208 362 c 0,35,36
 138 362 138 362 88 312 c 128,-1,37
 38 262 38 262 38 192 c 128,-1,38
 38 122 38 122 88 72 c 128,-1,39
 138 22 138 22 208 22 c 128,-1,40
 278 22 278 22 328 72 c 128,-1,41
 378 122 378 122 378 192 c 0,42,43
 378 227 378 227 365 257 c 2,44,-1
 364 260 l 1,45,-1
 366 261 l 2,46,47
 383 268 383 268 393 279 c 2,48,-1
 396 282 l 1,49,-1
 397 278 l 1,16,17
EndSplineSet
Validated: 1
EndChar

StartChar: uniF151
Encoding: 61777 61777 84
Width: 426
Flags: W
LayerCount: 2
Fore
SplineSet
425 179 m 0,0,1
 430 117 430 117 406 114 c 2,2,-1
 399 114 l 1,3,4
 385 54 385 54 337.5 13 c 128,-1,5
 290 -28 290 -28 227 -32 c 0,6,7
 175 -35 175 -35 130 -10.5 c 128,-1,8
 85 14 85 14 58 57 c 1,9,-1
 42 54 l 2,10,11
 29 52 29 52 17 71 c 128,-1,12
 5 90 5 90 1 118 c 128,-1,13
 -3 146 -3 146 3.5 167.5 c 128,-1,14
 10 189 10 189 23 191 c 2,15,-1
 35 192 l 1,16,17
 48 253 48 253 95.5 294 c 128,-1,18
 143 335 143 335 207 339 c 0,19,20
 264 342 264 342 312 313.5 c 128,-1,21
 360 285 360 285 384 236 c 0,22,23
 399 205 399 205 401 164 c 1,24,25
 407 201 407 201 393 236 c 1,26,27
 420 239 420 239 425 179 c 0,0,1
47 184 m 1,28,29
 64 160 64 160 68 126 c 0,30,31
 72 89 72 89 63 65 c 1,32,33
 82 86 82 86 76 129 c 0,34,35
 70 167 70 167 47 184 c 1,28,29
231 68 m 128,-1,37
 237 68 237 68 241.5 73 c 128,-1,38
 246 78 246 78 246 84 c 128,-1,39
 246 90 246 90 240.5 94 c 128,-1,40
 235 98 235 98 229 98 c 0,41,42
 215 98 215 98 215 82 c 0,43,44
 215 76 215 76 220 72 c 128,-1,36
 225 68 225 68 231 68 c 128,-1,37
312 72 m 128,-1,46
 318 72 318 72 322.5 77.5 c 128,-1,47
 327 83 327 83 327 89 c 128,-1,48
 327 95 327 95 321.5 99 c 128,-1,49
 316 103 316 103 310 103 c 0,50,51
 296 103 296 103 296 87 c 0,52,53
 296 81 296 81 301 76.5 c 128,-1,45
 306 72 306 72 312 72 c 128,-1,46
123 378 m 1,54,-1
 122 378 l 1,55,-1
 122 382 l 2,56,57
 122 386 122 386 127 391 c 0,58,59
 131 395 131 395 141 400 c 0,60,61
 142 400 142 400 142 400.5 c 128,-1,62
 142 401 142 401 143 401 c 0,63,64
 144 402 144 402 147 402 c 0,65,66
 155 414 155 414 164 416 c 0,67,68
 176 418 176 418 183 412 c 1,69,-1
 185 412 l 1,70,-1
 187 412 l 1,71,-1
 203 412 l 2,72,73
 209 410 209 410 211 409 c 0,74,75
 212 409 212 409 214 410 c 0,76,77
 220 410 220 410 220 404 c 128,-1,78
 220 398 220 398 214 398 c 1,79,-1
 214 397 l 2,80,81
 214 396 214 396 213 396 c 2,82,-1
 212 394 l 2,83,84
 211 393 211 393 208 391 c 0,85,86
 208 390 208 390 207 390 c 128,-1,87
 206 390 206 390 205 389 c 2,88,-1
 197 384 l 1,89,-1
 196 384 l 1,90,-1
 197 386 l 1,91,-1
 203 389 l 2,92,93
 204 390 204 390 205 391 c 128,-1,94
 206 392 206 392 207 392 c 2,95,-1
 210 395 l 2,96,97
 210 396 210 396 211 396 c 2,98,-1
 212 398 l 1,99,100
 207 400 207 400 207 404 c 0,101,102
 207 406 207 406 208 407 c 1,103,104
 206 408 206 408 202 408 c 2,105,-1
 191 408 l 1,106,-1
 187 408 l 1,107,-1
 186 408 l 2,108,109
 172 406 172 406 164 404 c 2,110,-1
 163 404 l 2,111,112
 162 403 162 403 161 403 c 1,113,114
 180 407 180 407 190 405 c 0,115,116
 192 401 192 401 194 395 c 0,117,118
 197 375 197 375 180 367 c 1,119,-1
 184 343 l 1,120,-1
 171 341 l 1,121,-1
 167 365 l 1,122,123
 148 365 148 365 144 386 c 0,124,125
 143 392 143 392 144 396 c 1,126,-1
 143 396 l 2,127,128
 142 395 142 395 141 395 c 0,129,130
 139 394 139 394 130 388 c 0,131,132
 125 383 125 383 125 380 c 2,133,-1
 125 378 l 2,134,135
 125 377 125 377 126 377 c 0,136,137
 128 375 128 375 135 373 c 0,138,139
 138 372 138 372 146 372 c 2,140,-1
 147 372 l 1,141,-1
 149 371 l 1,142,-1
 146 371 l 2,143,144
 144 371 144 371 139.5 371.5 c 128,-1,145
 135 372 135 372 134 372 c 0,146,147
 132 372 132 372 130 373 c 0,148,149
 126 373 126 373 125 374 c 0,150,151
 123 376 123 376 123 377 c 2,152,-1
 123 378 l 1,153,-1
 123 378 l 1,54,-1
EndSplineSet
Validated: 37
EndChar

StartChar: uniF152
Encoding: 61778 61778 85
Width: 416
Flags: W
LayerCount: 2
Fore
SplineSet
208 400 m 128,-1,1
 294 400 294 400 355 339 c 128,-1,2
 416 278 416 278 416 192 c 128,-1,3
 416 106 416 106 355 45 c 128,-1,4
 294 -16 294 -16 208 -16 c 128,-1,5
 122 -16 122 -16 61 45 c 128,-1,6
 0 106 0 106 0 192 c 128,-1,7
 0 278 0 278 61 339 c 128,-1,0
 122 400 122 400 208 400 c 128,-1,1
291 128 m 2,8,9
 310 128 310 128 323 141.5 c 128,-1,10
 336 155 336 155 336 175 c 0,11,12
 336 192 336 192 325.5 205 c 128,-1,13
 315 218 315 218 298 221 c 1,14,15
 295 250 295 250 274.5 269 c 128,-1,16
 254 288 254 288 226 288 c 0,17,18
 186 288 186 288 164 254 c 1,19,20
 156 258 156 258 149 258 c 0,21,22
 134 258 134 258 123.5 247 c 128,-1,23
 113 236 113 236 113 221 c 1,24,25
 80 211 80 211 80 175 c 0,26,27
 80 155 80 155 93 141.5 c 128,-1,28
 106 128 106 128 125 128 c 2,29,-1
 291 128 l 2,8,9
EndSplineSet
Validated: 1
EndChar

StartChar: uniF153
Encoding: 61779 61779 86
Width: 448
Flags: W
LayerCount: 2
Fore
SplineSet
412 240 m 0,0,1
 434 226 434 226 444 214 c 1,2,3
 448 186 448 186 448 152 c 2,4,-1
 442 59 l 2,5,6
 441 59 441 59 439.5 58.5 c 128,-1,7
 438 58 438 58 437 58 c 1,8,9
 437 53 437 53 435 37 c 0,10,11
 435 32 435 32 429 32 c 2,12,-1
 365 32 l 2,13,14
 360 32 360 32 360 35 c 2,15,-1
 359 52 l 1,16,-1
 347 52 l 2,17,18
 333 52 333 52 328.5 56 c 128,-1,19
 324 60 324 60 320 60 c 0,20,21
 318 60 318 60 283 58.5 c 128,-1,22
 248 57 248 57 224 57 c 128,-1,23
 200 57 200 57 165 58.5 c 128,-1,24
 130 60 130 60 128 60 c 0,25,26
 124 60 124 60 119.5 56 c 128,-1,27
 115 52 115 52 101 52 c 2,28,-1
 90 52 l 1,29,-1
 89 35 l 2,30,31
 89 32 89 32 84 32 c 2,32,-1
 19 32 l 2,33,34
 13 32 13 32 13 37 c 0,35,36
 11 53 11 53 11 58 c 1,37,38
 10 58 10 58 8.5 58.5 c 128,-1,39
 7 59 7 59 6 59 c 0,40,41
 0 104 0 104 0 152 c 2,42,-1
 4 214 l 1,43,44
 12 223 12 223 36 239 c 0,45,46
 38 240 38 240 38 243 c 128,-1,47
 38 246 38 246 35 247 c 2,48,-1
 30 248 l 1,49,50
 9 248 9 248 4 253 c 0,51,52
 0 257 0 257 0 262 c 0,53,54
 0 268 0 268 5 273 c 0,55,56
 9 277 9 277 28 279 c 0,57,58
 35 280 35 280 39 278 c 0,59,60
 42 276 42 276 42 266 c 0,61,62
 42 261 42 261 48 259 c 0,63,64
 50 259 50 259 51 262 c 0,65,66
 67 303 67 303 72 313 c 0,67,68
 85 336 85 336 100 342 c 0,69,70
 107 345 107 345 143 348 c 0,71,72
 177 352 177 352 224 352 c 0,73,74
 270 352 270 352 304 348 c 0,75,76
 344 343 344 343 347 342 c 0,77,78
 363 336 363 336 376 313 c 0,79,80
 376 312 376 312 395 264 c 0,81,82
 397 258 397 258 403 260 c 2,83,-1
 404 260 l 2,84,85
 406 260 406 260 406 263 c 0,86,87
 406 276 406 276 409 278 c 0,88,89
 413 280 413 280 419 279 c 0,90,91
 440 276 440 276 443 273 c 0,92,93
 448 268 448 268 448 262 c 0,94,95
 448 257 448 257 444 253 c 0,96,97
 439 248 439 248 418 248 c 1,98,-1
 413 247 l 2,99,100
 410 246 410 246 410 243.5 c 128,-1,101
 410 241 410 241 412 240 c 0,0,1
91 293 m 0,102,103
 79 266 79 266 82 260 c 0,104,105
 84 256 84 256 94 257 c 0,106,107
 133 260 133 260 224 260 c 128,-1,108
 315 260 315 260 354 257 c 0,109,110
 364 256 364 256 366 260 c 0,111,112
 368 265 368 265 356 293 c 0,113,114
 354 298 354 298 346 310 c 128,-1,115
 338 322 338 322 326 323 c 0,116,117
 286 330 286 330 224 330 c 128,-1,118
 162 330 162 330 122 323 c 0,119,120
 109 321 109 321 101 310 c 0,121,122
 93 298 93 298 91 293 c 0,102,103
100 177 m 0,123,124
 102 177 102 177 120 180 c 0,125,126
 123 181 123 181 123 183.5 c 128,-1,127
 123 186 123 186 121 187 c 0,128,129
 104 199 104 199 84 205 c 0,130,131
 58 212 58 212 29 212 c 0,132,133
 25 212 25 212 25 209 c 0,134,135
 25 194 25 194 26 190 c 0,136,137
 27 183 27 183 38 179 c 128,-1,138
 49 175 49 175 54 175 c 0,139,140
 55 175 55 175 58.5 176.5 c 128,-1,141
 62 178 62 178 65 178 c 0,142,143
 67 178 67 178 80.5 177.5 c 128,-1,144
 94 177 94 177 100 177 c 0,123,124
310 104 m 0,145,146
 321 106 321 106 328 115 c 128,-1,147
 335 124 335 124 328 134 c 0,148,149
 319 146 319 146 279 152 c 0,150,151
 249 156 249 156 224 156 c 0,152,153
 198 156 198 156 168 152 c 0,154,155
 132 147 132 147 119 134 c 0,156,157
 111 125 111 125 119 115.5 c 128,-1,158
 127 106 127 106 138 104 c 0,159,160
 151 102 151 102 224 102 c 128,-1,161
 297 102 297 102 310 104 c 0,145,146
422 189 m 2,162,-1
 422 209 l 2,163,164
 422 212 422 212 419 212 c 0,165,166
 393 212 393 212 363 204 c 0,167,168
 341 197 341 197 326 187 c 0,169,170
 323 183 323 183 328 180 c 0,171,172
 346 177 346 177 348 177 c 0,173,174
 354 177 354 177 367.5 177.5 c 128,-1,175
 381 178 381 178 383 178 c 0,176,177
 386 178 386 178 389.5 176 c 128,-1,178
 393 174 393 174 394 174 c 0,179,180
 399 174 399 174 410 178 c 128,-1,181
 421 182 421 182 422 189 c 2,162,-1
EndSplineSet
Validated: 33
EndChar

StartChar: uniF154
Encoding: 61780 61780 87
Width: 512
Flags: W
LayerCount: 2
Fore
SplineSet
437 218 m 1,0,1
 469 212 469 212 490.5 186 c 128,-1,2
 512 160 512 160 512 126 c 0,3,4
 512 88 512 88 485 60 c 128,-1,5
 458 32 458 32 421 32 c 2,6,-1
 91 32 l 2,7,8
 54 32 54 32 27 60 c 128,-1,9
 0 88 0 88 0 126 c 0,10,11
 0 157 0 157 18 183 c 128,-1,12
 36 209 36 209 66 219 c 1,13,14
 67 249 67 249 88 271 c 128,-1,15
 109 293 109 293 138 293 c 0,16,17
 149 293 149 293 165 287 c 1,18,19
 210 352 210 352 288 352 c 0,20,21
 345 352 345 352 388 313.5 c 128,-1,22
 431 275 431 275 437 218 c 1,0,1
362 236 m 2,23,24
 364 238 364 238 362 241 c 2,25,-1
 345 259 l 2,26,27
 343 261 343 261 342 261 c 128,-1,28
 341 261 341 261 339 259 c 2,29,-1
 217 136 l 1,30,-1
 173 181 l 2,31,32
 172 182 172 182 170 182 c 128,-1,33
 168 182 168 182 167 181 c 2,34,-1
 149 163 l 2,35,36
 146 160 146 160 149 157 c 2,37,-1
 205 101 l 2,38,39
 210 96 210 96 217 96 c 128,-1,40
 224 96 224 96 229 101 c 2,41,-1
 362 236 l 2,23,24
EndSplineSet
Validated: 1
EndChar

StartChar: uniF155
Encoding: 61781 61781 88
Width: 384
Flags: W
LayerCount: 2
Fore
SplineSet
268 305 m 2,0,-1
 382 196 l 2,1,2
 384 194 384 194 384 192 c 128,-1,3
 384 190 384 190 382 188 c 2,4,-1
 268 79 l 2,5,6
 266 77 266 77 264 77 c 128,-1,7
 262 77 262 77 260 79 c 2,8,-1
 246 92 l 2,9,10
 244 94 244 94 244 96 c 128,-1,11
 244 98 244 98 246 100 c 2,12,-1
 342 192 l 1,13,-1
 246 284 l 2,14,15
 244 286 244 286 244 288 c 128,-1,16
 244 290 244 290 246 292 c 2,17,-1
 260 305 l 2,18,19
 262 307 262 307 264 307 c 128,-1,20
 266 307 266 307 268 305 c 2,0,-1
42 192 m 1,21,-1
 138 100 l 2,22,23
 140 98 140 98 140 96 c 128,-1,24
 140 94 140 94 138 92 c 2,25,-1
 124 79 l 2,26,27
 122 77 122 77 120 77 c 128,-1,28
 118 77 118 77 116 79 c 2,29,-1
 2 188 l 2,30,31
 0 190 0 190 0 192 c 128,-1,32
 0 194 0 194 2 196 c 2,33,-1
 116 305 l 2,34,35
 118 307 118 307 120 307 c 128,-1,36
 122 307 122 307 124 305 c 2,37,-1
 138 292 l 2,38,39
 140 290 140 290 140 288 c 128,-1,40
 140 286 140 286 138 284 c 2,41,-1
 42 192 l 1,21,-1
269 181 m 128,-1,43
 269 175 269 175 264 170 c 2,44,-1
 202 113 l 2,45,46
 196 109 196 109 192 109 c 128,-1,47
 188 109 188 109 182 113 c 2,48,-1
 120 170 l 2,49,50
 115 175 115 175 115 181 c 128,-1,51
 115 187 115 187 119 191 c 128,-1,52
 123 195 123 195 130 195 c 0,53,54
 134 195 134 195 139 192 c 2,55,-1
 178 157 l 1,56,-1
 178 263 l 2,57,58
 178 278 178 278 192 278 c 128,-1,59
 206 278 206 278 206 263 c 2,60,-1
 206 157 l 1,61,-1
 245 192 l 2,62,63
 251 196 251 196 254 196 c 0,64,65
 259 196 259 196 264 191 c 1,66,-1
 265 191 l 1,67,42
 269 187 269 187 269 181 c 128,-1,43
EndSplineSet
Validated: 1
EndChar

StartChar: uniF156
Encoding: 61782 61782 89
Width: 384
Flags: W
LayerCount: 2
Fore
SplineSet
382 196 m 2,0,1
 384 194 384 194 384 192 c 128,-1,2
 384 190 384 190 382 188 c 2,3,-1
 268 79 l 2,4,5
 266 77 266 77 264 77 c 128,-1,6
 262 77 262 77 260 79 c 2,7,-1
 246 92 l 2,8,9
 244 94 244 94 244 96 c 128,-1,10
 244 98 244 98 246 100 c 2,11,-1
 342 192 l 1,12,-1
 246 284 l 2,13,14
 244 286 244 286 244 288 c 128,-1,15
 244 290 244 290 246 292 c 2,16,-1
 260 305 l 2,17,18
 262 307 262 307 264 307 c 128,-1,19
 266 307 266 307 268 305 c 2,20,-1
 382 196 l 2,0,1
42 192 m 1,21,-1
 138 100 l 2,22,23
 140 98 140 98 140 96 c 128,-1,24
 140 94 140 94 138 92 c 2,25,-1
 124 79 l 2,26,27
 122 77 122 77 120 77 c 128,-1,28
 118 77 118 77 116 79 c 2,29,-1
 2 188 l 2,30,31
 0 190 0 190 0 192 c 128,-1,32
 0 194 0 194 2 196 c 2,33,-1
 116 305 l 2,34,35
 118 307 118 307 120 307 c 128,-1,36
 122 307 122 307 124 305 c 2,37,-1
 138 292 l 2,38,39
 140 290 140 290 140 288 c 128,-1,40
 140 286 140 286 138 284 c 2,41,-1
 42 192 l 1,21,-1
170 192 m 128,-1,43
 170 201 170 201 176.5 207.5 c 128,-1,44
 183 214 183 214 192 214 c 128,-1,45
 201 214 201 214 207.5 207.5 c 128,-1,46
 214 201 214 201 214 192 c 128,-1,47
 214 183 214 183 207.5 176.5 c 128,-1,48
 201 170 201 170 192 170 c 128,-1,49
 183 170 183 170 176.5 176.5 c 128,-1,42
 170 183 170 183 170 192 c 128,-1,43
106 192 m 128,-1,51
 106 201 106 201 112.5 207.5 c 128,-1,52
 119 214 119 214 128 214 c 128,-1,53
 137 214 137 214 143.5 207.5 c 128,-1,54
 150 201 150 201 150 192 c 128,-1,55
 150 183 150 183 143.5 176.5 c 128,-1,56
 137 170 137 170 128 170 c 128,-1,57
 119 170 119 170 112.5 176.5 c 128,-1,50
 106 183 106 183 106 192 c 128,-1,51
234 192 m 128,-1,59
 234 201 234 201 240.5 207.5 c 128,-1,60
 247 214 247 214 256 214 c 128,-1,61
 265 214 265 214 271.5 207.5 c 128,-1,62
 278 201 278 201 278 192 c 128,-1,63
 278 183 278 183 271.5 176.5 c 128,-1,64
 265 170 265 170 256 170 c 128,-1,65
 247 170 247 170 240.5 176.5 c 128,-1,58
 234 183 234 183 234 192 c 128,-1,59
EndSplineSet
Validated: 1
EndChar

StartChar: uniF157
Encoding: 61783 61783 90
Width: 384
Flags: W
LayerCount: 2
Fore
SplineSet
268 305 m 2,0,-1
 382 196 l 2,1,2
 384 194 384 194 384 192 c 128,-1,3
 384 190 384 190 382 188 c 2,4,-1
 268 79 l 2,5,6
 266 77 266 77 264 77 c 128,-1,7
 262 77 262 77 260 79 c 2,8,-1
 246 92 l 2,9,10
 244 94 244 94 244 96 c 128,-1,11
 244 98 244 98 246 100 c 2,12,-1
 342 192 l 1,13,-1
 246 284 l 2,14,15
 244 286 244 286 244 288 c 128,-1,16
 244 290 244 290 246 292 c 2,17,-1
 260 305 l 2,18,19
 262 307 262 307 264 307 c 128,-1,20
 266 307 266 307 268 305 c 2,0,-1
140 288 m 128,-1,22
 140 286 140 286 138 284 c 2,23,-1
 42 192 l 1,24,-1
 138 100 l 2,25,26
 140 98 140 98 140 96 c 128,-1,27
 140 94 140 94 138 92 c 2,28,-1
 124 79 l 2,29,30
 122 77 122 77 120 77 c 128,-1,31
 118 77 118 77 116 79 c 2,32,-1
 2 188 l 2,33,34
 0 190 0 190 0 192 c 128,-1,35
 0 194 0 194 2 196 c 2,36,-1
 116 305 l 2,37,38
 118 307 118 307 120 307 c 128,-1,39
 122 307 122 307 124 305 c 2,40,-1
 138 292 l 2,41,21
 140 290 140 290 140 288 c 128,-1,22
EndSplineSet
Validated: 1
EndChar

StartChar: uniF158
Encoding: 61784 61784 91
Width: 416
Flags: W
LayerCount: 2
Fore
SplineSet
315 171 m 1,0,-1
 229 171 l 1,1,-1
 229 85 l 1,2,-1
 187 85 l 1,3,-1
 187 171 l 1,4,-1
 101 171 l 1,5,-1
 101 213 l 1,6,-1
 187 213 l 1,7,-1
 187 299 l 1,8,-1
 229 299 l 1,9,-1
 229 213 l 1,10,-1
 315 213 l 1,11,-1
 315 171 l 1,0,-1
208 358 m 128,-1,13
 140 358 140 358 91 309 c 128,-1,14
 42 260 42 260 42 192 c 128,-1,15
 42 124 42 124 91 75 c 128,-1,16
 140 26 140 26 208 26 c 128,-1,17
 276 26 276 26 325 75 c 128,-1,18
 374 124 374 124 374 192 c 128,-1,19
 374 260 374 260 325 309 c 128,-1,12
 276 358 276 358 208 358 c 128,-1,13
208 400 m 128,-1,21
 294 400 294 400 355 339 c 128,-1,22
 416 278 416 278 416 192 c 128,-1,23
 416 106 416 106 355 45 c 128,-1,24
 294 -16 294 -16 208 -16 c 128,-1,25
 122 -16 122 -16 61 45 c 128,-1,26
 0 106 0 106 0 192 c 128,-1,27
 0 278 0 278 61 339 c 128,-1,20
 122 400 122 400 208 400 c 128,-1,21
EndSplineSet
Validated: 1
EndChar

StartChar: uniF159
Encoding: 61785 61785 92
Width: 384
Flags: W
LayerCount: 2
Fore
SplineSet
167 330 m 1,0,-1
 339 160 l 2,1,2
 342 157 342 157 340 153 c 128,-1,3
 338 149 338 149 334 149 c 0,4,5
 312 149 312 149 305 142 c 0,6,7
 293 130 293 130 179 19 c 0,8,9
 171 12 171 12 159.5 12 c 128,-1,10
 148 12 148 12 140 19 c 2,11,-1
 9 145 l 2,12,13
 1 153 1 153 0.5 165 c 128,-1,14
 0 177 0 177 8 185 c 2,15,-1
 93 269 l 1,16,-1
 43 318 l 2,17,18
 29 332 29 332 29 352 c 128,-1,19
 29 372 29 372 43 386 c 128,-1,20
 57 400 57 400 77 400 c 128,-1,21
 97 400 97 400 111 386 c 2,22,-1
 167 330 l 1,0,-1
64 338 m 2,23,-1
 112 289 l 1,24,-1
 141 317 l 1,25,-1
 91 366 l 2,26,27
 85 372 85 372 77 372 c 0,28,29
 68 372 68 372 62 364 c 0,30,31
 52 350 52 350 64 338 c 2,23,-1
339 108 m 0,32,33
 384 59 384 59 384 32 c 0,34,35
 384 12 384 12 370 -2 c 128,-1,36
 356 -16 356 -16 336 -16 c 128,-1,37
 316 -16 316 -16 302 -2 c 128,-1,38
 288 12 288 12 288 32 c 0,39,40
 288 54 288 54 333 108 c 0,41,42
 336 111 336 111 339 108 c 0,32,33
EndSplineSet
Validated: 33
EndChar

StartChar: uniF15A
Encoding: 61786 61786 93
Width: 384
Flags: W
LayerCount: 2
Fore
SplineSet
384 112 m 1,0,-1
 224 160 l 1,1,-1
 224 46 l 1,2,-1
 272 15 l 1,3,-1
 272 -16 l 1,4,-1
 192 0 l 1,5,-1
 112 -16 l 1,6,-1
 112 15 l 1,7,-1
 160 46 l 1,8,-1
 160 160 l 1,9,-1
 0 112 l 1,10,-1
 0 152 l 1,11,-1
 160 256 l 1,12,-1
 160 369 l 2,13,14
 160 382 160 382 169.5 391 c 128,-1,15
 179 400 179 400 192 400 c 128,-1,16
 205 400 205 400 214.5 391 c 128,-1,17
 224 382 224 382 224 369 c 2,18,-1
 224 256 l 1,19,-1
 384 152 l 1,20,-1
 384 112 l 1,0,-1
EndSplineSet
Validated: 1
EndChar

StartChar: uniF15B
Encoding: 61787 61787 94
Width: 384
Flags: W
LayerCount: 2
Fore
SplineSet
366 100 m 0,0,1
 375 91 375 91 375.5 76.5 c 128,-1,2
 376 62 376 62 366 52 c 0,3,4
 306 0 306 0 217 0 c 2,5,-1
 216 0 l 2,6,7
 125 0 125 0 63 55 c 0,8,9
 0 110 0 110 0 189 c 128,-1,10
 0 268 0 268 63 324 c 0,11,12
 130 384 130 384 221 384 c 0,13,14
 298 384 298 384 349 339 c 0,15,16
 384 308 384 308 384 264.5 c 128,-1,17
 384 221 384 221 349 190 c 2,18,-1
 319 163 l 2,19,20
 308 153 308 153 308 141 c 128,-1,21
 308 129 308 129 319 119 c 0,22,23
 328 111 328 111 342 109 c 0,24,25
 358 107 358 107 366 100 c 0,0,1
56 232 m 128,-1,27
 56 218 56 218 65 209 c 128,-1,28
 74 200 74 200 88 200 c 128,-1,29
 102 200 102 200 111 209 c 128,-1,30
 120 218 120 218 120 232 c 128,-1,31
 120 246 120 246 111 255 c 128,-1,32
 102 264 102 264 88 264 c 128,-1,33
 74 264 74 264 65 255 c 128,-1,26
 56 246 56 246 56 232 c 128,-1,27
96 106 m 128,-1,35
 110 106 110 106 119 115 c 128,-1,36
 128 124 128 124 128 138 c 128,-1,37
 128 152 128 152 119 161 c 128,-1,38
 110 170 110 170 96 170 c 128,-1,39
 82 170 82 170 73 161 c 128,-1,40
 64 152 64 152 64 138 c 128,-1,41
 64 124 64 124 73 115 c 128,-1,34
 82 106 82 106 96 106 c 128,-1,35
160 267 m 128,-1,43
 174 267 174 267 183 276.5 c 128,-1,44
 192 286 192 286 192 299 c 128,-1,45
 192 312 192 312 183 321.5 c 128,-1,46
 174 331 174 331 160 331 c 128,-1,47
 146 331 146 331 137 321.5 c 128,-1,48
 128 312 128 312 128 299 c 128,-1,49
 128 286 128 286 137 276.5 c 128,-1,42
 146 267 146 267 160 267 c 128,-1,43
232 48 m 128,-1,51
 252 48 252 48 266 62 c 128,-1,52
 280 76 280 76 280 96 c 128,-1,53
 280 116 280 116 266 130 c 128,-1,54
 252 144 252 144 232 144 c 128,-1,55
 212 144 212 144 198 130 c 128,-1,56
 184 116 184 116 184 96 c 128,-1,57
 184 76 184 76 198 62 c 128,-1,50
 212 48 212 48 232 48 c 128,-1,51
256 256 m 128,-1,59
 270 256 270 256 279 265 c 128,-1,60
 288 274 288 274 288 288 c 128,-1,61
 288 302 288 302 279 311 c 128,-1,62
 270 320 270 320 256 320 c 128,-1,63
 242 320 242 320 233 311 c 128,-1,64
 224 302 224 302 224 288 c 128,-1,65
 224 274 224 274 233 265 c 128,-1,58
 242 256 242 256 256 256 c 128,-1,59
EndSplineSet
Validated: 33
EndChar

StartChar: uniF15C
Encoding: 61788 61788 95
Width: 320
Flags: W
LayerCount: 2
Fore
SplineSet
292 352 m 2,0,1
 303 352 303 352 311.5 343.5 c 128,-1,2
 320 335 320 335 320 324 c 2,3,-1
 320 60 l 2,4,5
 320 49 320 49 311.5 40.5 c 128,-1,6
 303 32 303 32 292 32 c 2,7,-1
 28 32 l 2,8,9
 17 32 17 32 8.5 40.5 c 128,-1,10
 0 49 0 49 0 60 c 2,11,-1
 0 324 l 2,12,13
 0 335 0 335 8.5 343.5 c 128,-1,14
 17 352 17 352 28 352 c 2,15,-1
 292 352 l 2,0,1
292 68 m 2,16,-1
 292 316 l 2,17,18
 292 324 292 324 284 324 c 2,19,-1
 36 324 l 2,20,21
 28 324 28 324 28 316 c 2,22,-1
 28 68 l 2,23,24
 28 60 28 60 36 60 c 2,25,-1
 284 60 l 2,26,27
 292 60 292 60 292 68 c 2,16,-1
EndSplineSet
Validated: 1
EndChar

StartChar: uniF15D
Encoding: 61789 61789 96
Width: 416
Flags: W
LayerCount: 2
Fore
SplineSet
232 168 m 2,0,1
 234 166 234 166 232 164 c 2,2,-1
 134 115 l 2,3,4
 132 114 132 114 131 115 c 128,-1,5
 130 116 130 116 131 118 c 2,6,-1
 180 216 l 2,7,8
 182 218 182 218 184 216 c 2,9,-1
 232 168 l 2,0,1
208 400 m 128,-1,11
 294 400 294 400 355 339 c 128,-1,12
 416 278 416 278 416 192 c 128,-1,13
 416 106 416 106 355 45 c 128,-1,14
 294 -16 294 -16 208 -16 c 128,-1,15
 122 -16 122 -16 61 45 c 128,-1,16
 0 106 0 106 0 192 c 128,-1,17
 0 278 0 278 61 339 c 128,-1,10
 122 400 122 400 208 400 c 128,-1,11
249 151 m 1,18,-1
 330 311 l 2,19,20
 331 312 331 312 329.5 313.5 c 128,-1,21
 328 315 328 315 327 314 c 2,22,-1
 168 233 l 1,23,-1
 167 233 l 1,24,-1
 86 73 l 2,25,26
 85 72 85 72 86.5 70.5 c 128,-1,27
 88 69 88 69 89 70 c 2,28,-1
 249 151 l 1,18,-1
EndSplineSet
Validated: 1
EndChar

StartChar: uniF15E
Encoding: 61790 61790 97
Width: 448
Flags: W
LayerCount: 2
Fore
SplineSet
360 352 m 1,0,-1
 448 192 l 1,1,-1
 360 32 l 1,2,-1
 282 32 l 1,3,-1
 370 192 l 1,4,-1
 319 285 l 1,5,-1
 166 32 l 1,6,-1
 88 32 l 1,7,-1
 0 192 l 1,8,-1
 88 352 l 1,9,-1
 166 352 l 1,10,-1
 78 192 l 1,11,-1
 129 99 l 1,12,-1
 282 352 l 1,13,-1
 360 352 l 1,0,-1
EndSplineSet
Validated: 1
EndChar

StartChar: uniF15F
Encoding: 61791 61791 98
Width: 480
Flags: W
LayerCount: 2
Fore
SplineSet
364 384 m 1024,0,-1
259 390 m 0,1,2
 277 378 277 378 269 378 c 0,3,4
 234 384 234 384 209 363 c 0,5,6
 179 337 179 337 178 310 c 0,7,8
 177 294 177 294 184 282 c 128,-1,9
 191 270 191 270 213 248 c 1,10,-1
 218 251 l 2,11,12
 219 252 219 252 222 252 c 0,13,14
 227 252 227 252 229 250 c 2,15,-1
 243 236 l 1,16,-1
 193 189 l 1,17,-1
 180 202 l 2,18,19
 176 206 176 206 179 212 c 2,20,-1
 183 219 l 1,21,22
 147 255 147 255 132 259 c 0,23,24
 124 261 124 261 120 261 c 0,25,26
 106 261 106 261 99 254 c 0,27,28
 85 240 85 240 94 231 c 2,29,-1
 106 219 l 2,30,31
 110 215 110 215 106 211 c 2,32,-1
 73 176 l 2,33,34
 72 175 72 175 69 175 c 128,-1,35
 66 175 66 175 65 176 c 2,36,-1
 2 240 l 2,37,38
 -2 244 -2 244 2 247 c 2,39,-1
 36 281 l 2,40,41
 38 283 38 283 40 283 c 0,42,43
 56 275 56 275 64 283 c 0,44,45
 68 287 68 287 67.5 297 c 128,-1,46
 67 307 67 307 70 312 c 0,47,48
 76 321 76 321 93 338 c 0,49,50
 126 371 126 371 174 391 c 0,51,52
 195 400 195 400 221 400 c 0,53,54
 244 400 244 400 259 390 c 0,1,2
446 48 m 2,55,56
 450 44 450 44 446 40 c 2,57,-1
 391 -14 l 2,58,59
 389 -16 389 -16 387 -16 c 128,-1,60
 385 -16 385 -16 383 -14 c 0,61,62
 327 52 327 52 269 113 c 1,63,-1
 316 164 l 1,64,65
 343 138 343 138 375.5 109 c 128,-1,66
 408 80 408 80 427 64 c 2,67,-1
 446 48 l 2,55,56
463 323 m 1,68,69
 482 304 482 304 480 282 c 0,70,71
 477 249 477 249 450 222 c 0,72,73
 420 192 420 192 378 192 c 0,74,75
 362 192 362 192 346 200 c 0,76,77
 342 202 342 202 337 202 c 0,78,79
 331 202 331 202 326 197 c 0,80,81
 325 196 325 196 322.5 193 c 128,-1,82
 320 190 320 190 315 185 c 128,-1,83
 310 180 310 180 305 175 c 0,84,85
 302 171 302 171 294 163 c 0,86,87
 277 146 277 146 268 136 c 0,88,89
 266 134 266 134 262.5 130 c 128,-1,90
 259 126 259 126 257 124 c 2,91,-1
 138 -3 l 2,92,93
 126 -16 126 -16 109 -16 c 0,94,95
 90 -16 90 -16 77 -3 c 128,-1,96
 64 10 64 10 64 28 c 128,-1,97
 64 46 64 46 77 58 c 0,98,99
 147 123 147 123 204 177 c 0,100,101
 206 179 206 179 210 182.5 c 128,-1,102
 214 186 214 186 216 188 c 0,103,104
 226 197 226 197 243 214 c 0,105,106
 244 215 244 215 246.5 217.5 c 128,-1,107
 249 220 249 220 250.5 222 c 128,-1,108
 252 224 252 224 254 225 c 0,109,110
 276 246 276 246 277 246 c 0,111,112
 285 255 285 255 280 266 c 0,113,114
 256 322 256 322 302 370 c 0,115,116
 328 397 328 397 362 400 c 2,117,-1
 364 400 l 2,118,119
 386 400 386 400 403 383 c 1,120,-1
 350 330 l 1,121,-1
 360 279 l 1,122,-1
 411 270 l 1,123,-1
 463 323 l 1,68,69
121 22 m 0,124,125
 130 31 130 31 121 42 c 0,126,127
 112 51 112 51 102 42 c 0,128,129
 93 33 93 33 102 22 c 0,130,131
 111 13 111 13 121 22 c 0,124,125
EndSplineSet
Validated: 33
EndChar

StartChar: uniF160
Encoding: 61792 61792 99
Width: 384
Flags: W
LayerCount: 2
Fore
SplineSet
105 184 m 128,-1,1
 83 184 83 184 67.5 199 c 128,-1,2
 52 214 52 214 52 235 c 128,-1,3
 52 256 52 256 67.5 271 c 128,-1,4
 83 286 83 286 105 286 c 128,-1,5
 127 286 127 286 142 271 c 128,-1,6
 157 256 157 256 157 235 c 128,-1,7
 157 214 157 214 142 199 c 128,-1,0
 127 184 127 184 105 184 c 128,-1,1
314 286 m 2,8,9
 343 286 343 286 363.5 266 c 128,-1,10
 384 246 384 246 384 218 c 2,11,-1
 384 64 l 1,12,-1
 349 64 l 1,13,-1
 349 115 l 1,14,-1
 35 115 l 1,15,-1
 35 64 l 1,16,-1
 0 64 l 1,17,-1
 0 320 l 1,18,-1
 35 320 l 1,19,-1
 35 166 l 1,20,-1
 174 166 l 1,21,-1
 174 286 l 1,22,-1
 314 286 l 2,8,9
EndSplineSet
Validated: 1
EndChar

StartChar: uniF161
Encoding: 61793 61793 100
Width: 416
Flags: W
LayerCount: 2
Fore
SplineSet
208 400 m 128,-1,1
 294 400 294 400 355 339 c 128,-1,2
 416 278 416 278 416 192 c 128,-1,3
 416 106 416 106 355 45 c 128,-1,4
 294 -16 294 -16 208 -16 c 128,-1,5
 122 -16 122 -16 61 45 c 128,-1,6
 0 106 0 106 0 192 c 128,-1,7
 0 278 0 278 61 339 c 128,-1,0
 122 400 122 400 208 400 c 128,-1,1
351 136 m 0,8,9
 365 131 365 131 374 121 c 1,10,11
 388 152 388 152 388 192 c 0,12,13
 388 268 388 268 334 320 c 128,-1,14
 280 372 280 372 206 372 c 0,15,16
 135 372 135 372 81 320 c 0,17,18
 28 267 28 267 28 192 c 0,19,20
 28 144 28 144 53 100 c 1,21,22
 61 104 61 104 95 111 c 0,23,24
 118 114 118 114 120 124 c 0,25,26
 122 132 122 132 122 147 c 0,27,28
 122 149 122 149 119 152 c 0,29,30
 115 156 115 156 111 166 c 0,31,32
 109 174 109 174 107 190 c 1,33,34
 103 189 103 189 100.5 193 c 128,-1,35
 98 197 98 197 96.5 203.5 c 128,-1,36
 95 210 95 210 95 211 c 0,37,38
 91 229 91 229 99 233 c 1,39,40
 96 238 96 238 94 251 c 0,41,42
 91 273 91 273 97 290 c 0,43,44
 104 309 104 309 121.5 319 c 128,-1,45
 139 329 139 329 160 328 c 0,46,47
 208 326 208 326 220 287 c 0,48,49
 225 272 225 272 221 247 c 0,50,51
 220 240 220 240 216 233 c 1,52,53
 226 229 226 229 219 209 c 0,54,55
 219 208 219 208 218 204 c 128,-1,56
 217 200 217 200 216 197 c 128,-1,57
 215 194 215 194 213 191.5 c 128,-1,58
 211 189 211 189 208 190 c 1,59,60
 206 168 206 168 201 159 c 0,61,62
 201 158 201 158 197 154 c 128,-1,63
 193 150 193 150 193 149 c 2,64,-1
 193 138 l 2,65,66
 193 128 193 128 195 123 c 128,-1,67
 197 118 197 118 209 115 c 0,68,69
 216 113 216 113 230 110.5 c 128,-1,70
 244 108 244 108 251 105 c 0,71,72
 296 89 296 89 296 40 c 0,73,74
 296 36 296 36 301 38 c 0,75,76
 302 38 302 38 303.5 39 c 128,-1,77
 305 40 305 40 306 41 c 0,78,79
 312 45 312 45 312 53 c 0,80,81
 309 80 309 80 292 97 c 0,82,83
 283 105 283 105 271.5 111.5 c 128,-1,84
 260 118 260 118 253 120 c 2,85,-1
 246 122 l 2,86,87
 245 122 245 122 243 122.5 c 128,-1,88
 241 123 241 123 238 124 c 128,-1,89
 235 125 235 125 234 125 c 0,90,91
 231 126 231 126 231 129 c 128,-1,92
 231 132 231 132 234 133 c 0,93,94
 236 134 236 134 239 135 c 128,-1,95
 242 136 242 136 244 136.5 c 128,-1,96
 246 137 246 137 247.5 138 c 128,-1,97
 249 139 249 139 250 139 c 0,98,99
 265 143 265 143 266 148 c 2,100,-1
 266 162 l 1,101,-1
 237 168 l 2,102,103
 233 170 233 170 237 179 c 0,104,105
 240 186 240 186 242 230 c 128,-1,106
 244 274 244 274 269 284 c 0,107,108
 278 288 278 288 294 288 c 0,109,110
 314 288 314 288 325 281 c 0,111,112
 345 269 345 269 345 237 c 0,113,114
 345 233 345 233 344.5 222 c 128,-1,115
 344 211 344 211 344 205 c 128,-1,116
 344 199 344 199 346 190 c 128,-1,117
 348 181 348 181 352 175 c 0,118,119
 355 170 355 170 352 169 c 0,120,121
 346 164 346 164 321 163 c 1,122,123
 319 150 319 150 322 146 c 0,124,125
 325 143 325 143 330 141 c 128,-1,126
 335 139 335 139 341.5 138 c 128,-1,127
 348 137 348 137 351 136 c 0,8,9
EndSplineSet
Validated: 33
EndChar

StartChar: uniF162
Encoding: 61794 61794 101
Width: 384
Flags: W
LayerCount: 2
Fore
SplineSet
120 243 m 1,0,-1
 4 360 l 2,1,2
 -6 370 -6 370 4 380 c 0,3,4
 8 384 8 384 14 384 c 128,-1,5
 20 384 20 384 24 380 c 2,6,-1
 141 264 l 1,7,-1
 141 341 l 2,8,9
 141 355 141 355 155 355 c 128,-1,10
 169 355 169 355 169 341 c 2,11,-1
 169 229 l 2,12,13
 169 215 169 215 155 215 c 2,14,-1
 43 215 l 2,15,16
 29 215 29 215 29 229 c 128,-1,17
 29 243 29 243 43 243 c 2,18,-1
 120 243 l 1,0,-1
229 215 m 2,19,20
 215 215 215 215 215 229 c 2,21,-1
 215 341 l 2,22,23
 215 355 215 355 229 355 c 128,-1,24
 243 355 243 355 243 341 c 2,25,-1
 243 264 l 1,26,-1
 360 380 l 2,27,28
 364 384 364 384 370 384 c 128,-1,29
 376 384 376 384 380 380 c 0,30,31
 390 370 390 370 380 360 c 2,32,-1
 264 243 l 1,33,-1
 341 243 l 2,34,35
 355 243 355 243 355 229 c 128,-1,36
 355 215 355 215 341 215 c 2,37,-1
 229 215 l 2,19,20
14 0 m 128,-1,39
 8 0 8 0 4 4 c 0,40,41
 -6 14 -6 14 4 24 c 2,42,-1
 120 141 l 1,43,-1
 43 141 l 2,44,45
 29 141 29 141 29 155 c 128,-1,46
 29 169 29 169 43 169 c 2,47,-1
 155 169 l 2,48,49
 169 169 169 169 169 155 c 2,50,-1
 169 43 l 2,51,52
 169 29 169 29 155 29 c 128,-1,53
 141 29 141 29 141 43 c 2,54,-1
 141 120 l 1,55,-1
 24 4 l 2,56,38
 20 0 20 0 14 0 c 128,-1,39
229 29 m 128,-1,58
 215 29 215 29 215 43 c 2,59,-1
 215 155 l 2,60,61
 215 169 215 169 229 169 c 2,62,-1
 341 169 l 2,63,64
 355 169 355 169 355 155 c 128,-1,65
 355 141 355 141 341 141 c 2,66,-1
 264 141 l 1,67,-1
 380 24 l 2,68,69
 390 14 390 14 380 4 c 0,70,71
 376 0 376 0 370 0 c 128,-1,72
 364 0 364 0 360 4 c 2,73,-1
 243 120 l 1,74,-1
 243 43 l 2,75,57
 243 29 243 29 229 29 c 128,-1,58
EndSplineSet
Validated: 33
EndChar

StartChar: uniF163
Encoding: 61795 61795 102
Width: 416
Flags: W
LayerCount: 2
Fore
SplineSet
208 400 m 128,-1,1
 294 400 294 400 355 339 c 128,-1,2
 416 278 416 278 416 192 c 128,-1,3
 416 106 416 106 355 45 c 128,-1,4
 294 -16 294 -16 208 -16 c 128,-1,5
 122 -16 122 -16 61 45 c 128,-1,6
 0 106 0 106 0 192 c 128,-1,7
 0 278 0 278 61 339 c 128,-1,0
 122 400 122 400 208 400 c 128,-1,1
335 65 m 128,-1,9
 388 118 388 118 388 192 c 128,-1,10
 388 266 388 266 335 319 c 128,-1,11
 282 372 282 372 208 372 c 1,12,-1
 208 12 l 1,13,8
 282 12 282 12 335 65 c 128,-1,9
EndSplineSet
Validated: 1
EndChar

StartChar: uniF164
Encoding: 61796 61796 103
Width: 384
Flags: W
LayerCount: 2
Fore
SplineSet
0 0 m 1,0,-1
 384 384 l 1,1,-1
 384 0 l 1,2,-1
 0 0 l 1,0,-1
EndSplineSet
Validated: 1
EndChar

StartChar: uniF165
Encoding: 61797 61797 104
Width: 448
Flags: W
LayerCount: 2
Fore
SplineSet
372 362 m 2,0,1
 378 368 378 368 384 362 c 2,2,-1
 410 336 l 2,3,4
 416 330 416 330 410 324 c 2,5,-1
 208 122 l 2,6,7
 206 120 206 120 202 120 c 2,8,-1
 176 120 l 2,9,10
 168 120 168 120 168 128 c 2,11,-1
 168 154 l 2,12,13
 168 158 168 158 170 160 c 2,14,-1
 372 362 l 2,0,1
444 381 m 2,15,16
 448 377 448 377 448 369 c 0,17,18
 448 362 448 362 444 358 c 2,19,-1
 432 346 l 2,20,21
 430 344 430 344 427 346 c 2,22,-1
 405 368 l 1,23,-1
 395 378 l 2,24,25
 392 381 392 381 395 384 c 2,26,-1
 406 396 l 2,27,28
 410 400 410 400 418 400 c 0,29,30
 425 400 425 400 429 396 c 1,31,-1
 429 395 l 1,32,-1
 444 381 l 2,15,16
218 106 m 2,33,-1
 219 107 l 1,34,-1
 367 254 l 2,35,36
 371 256 371 256 373 252 c 2,37,-1
 373 43 l 2,38,39
 373 19 373 19 356 1.5 c 128,-1,40
 339 -16 339 -16 315 -16 c 2,41,-1
 59 -16 l 2,42,43
 35 -16 35 -16 17.5 1.5 c 128,-1,44
 0 19 0 19 0 43 c 2,45,-1
 0 267 l 2,46,47
 0 291 0 291 17.5 308 c 128,-1,48
 35 325 35 325 59 325 c 2,49,-1
 300 325 l 2,50,51
 305 324 305 324 302 318 c 2,52,-1
 155 171 l 1,53,-1
 154 170 l 2,54,55
 149 165 149 165 149 159 c 2,56,-1
 149 158 l 1,57,-1
 149 120 l 1,58,-1
 149 117 l 2,59,60
 149 101 149 101 165 101 c 2,61,-1
 168 101 l 1,62,-1
 206 101 l 1,63,-1
 207 101 l 2,64,65
 213 101 213 101 218 106 c 2,33,-1
EndSplineSet
Validated: 1
EndChar

StartChar: uniF166
Encoding: 61798 61798 105
Width: 416
Flags: W
LayerCount: 2
Fore
SplineSet
208 358 m 128,-1,1
 140 358 140 358 91 309 c 128,-1,2
 42 260 42 260 42 192 c 128,-1,3
 42 124 42 124 91 75 c 128,-1,4
 140 26 140 26 208 26 c 128,-1,5
 276 26 276 26 325 75 c 128,-1,6
 374 124 374 124 374 192 c 128,-1,7
 374 260 374 260 325 309 c 128,-1,0
 276 358 276 358 208 358 c 128,-1,1
208 400 m 128,-1,9
 294 400 294 400 355 339 c 128,-1,10
 416 278 416 278 416 192 c 128,-1,11
 416 106 416 106 355 45 c 128,-1,12
 294 -16 294 -16 208 -16 c 128,-1,13
 122 -16 122 -16 61 45 c 128,-1,14
 0 106 0 106 0 192 c 128,-1,15
 0 278 0 278 61 339 c 128,-1,8
 122 400 122 400 208 400 c 128,-1,9
312 117 m 1,16,-1
 283 88 l 1,17,-1
 208 163 l 1,18,-1
 133 88 l 1,19,-1
 104 117 l 1,20,-1
 179 192 l 1,21,-1
 104 267 l 1,22,-1
 133 296 l 1,23,-1
 208 221 l 1,24,-1
 283 296 l 1,25,-1
 312 267 l 1,26,-1
 237 192 l 1,27,-1
 312 117 l 1,16,-1
EndSplineSet
Validated: 1
EndChar

StartChar: uniF167
Encoding: 61799 61799 106
Width: 416
Flags: W
LayerCount: 2
Fore
SplineSet
4 371 m 1,0,-1
 28 396 l 1,1,-1
 412 12 l 1,2,-1
 388 -12 l 1,3,-1
 296 80 l 1,4,5
 283 68 283 68 238 27 c 2,6,-1
 208 0 l 1,7,-1
 178 27 l 2,8,9
 126 75 126 75 103 97 c 128,-1,10
 80 119 80 119 50.5 153 c 128,-1,11
 21 187 21 187 10.5 213.5 c 128,-1,12
 0 240 0 240 0 269 c 0,13,14
 0 314 0 314 29 346 c 1,15,-1
 4 371 l 1,0,-1
416 269 m 0,16,17
 416 205 416 205 344 128 c 1,18,-1
 90 382 l 1,19,20
 98 384 98 384 114 384 c 0,21,22
 171 384 171 384 208 340 c 1,23,24
 245 384 245 384 302 384 c 0,25,26
 350 384 350 384 383 351 c 128,-1,27
 416 318 416 318 416 269 c 0,16,17
EndSplineSet
Validated: 1
EndChar

StartChar: uniF168
Encoding: 61800 61800 107
Width: 416
Flags: W
LayerCount: 2
Fore
SplineSet
393 318 m 2,0,1
 398 316 398 316 398 311 c 128,-1,2
 398 306 398 306 393 304 c 2,3,-1
 214 210 l 2,4,5
 208 207 208 207 202 210 c 2,6,-1
 23 304 l 2,7,8
 18 306 18 306 18 311 c 128,-1,9
 18 316 18 316 23 318 c 2,10,-1
 202 399 l 2,11,12
 208 402 208 402 214 399 c 2,13,-1
 393 318 l 2,0,1
232 -15 m 2,14,15
 228 -17 228 -17 224.5 -15 c 128,-1,16
 221 -13 221 -13 221 -8 c 2,17,-1
 221 179 l 2,18,19
 221 185 221 185 225 186 c 2,20,-1
 405 279 l 2,21,22
 409 281 409 281 412.5 279 c 128,-1,23
 416 277 416 277 416 272 c 2,24,-1
 416 87 l 2,25,26
 416 82 416 82 412 80 c 2,27,-1
 232 -15 l 2,14,15
0 272 m 2,28,29
 0 277 0 277 3.5 279 c 128,-1,30
 7 281 7 281 11 279 c 2,31,-1
 191 186 l 2,32,33
 195 185 195 185 195 179 c 2,34,-1
 195 -8 l 2,35,36
 195 -13 195 -13 191.5 -15 c 128,-1,37
 188 -17 188 -17 184 -15 c 2,38,-1
 4 80 l 2,39,40
 0 82 0 82 0 87 c 2,41,-1
 0 272 l 2,28,29
EndSplineSet
Validated: 1
EndChar

StartChar: uniF169
Encoding: 61801 61801 108
Width: 408
Flags: W
LayerCount: 2
Fore
SplineSet
408 12 m 1,0,-1
 384 -12 l 1,1,-1
 244 128 l 1,2,-1
 172 -16 l 1,3,-1
 172 176 l 1,4,-1
 108 176 l 1,5,-1
 108 264 l 1,6,-1
 0 371 l 1,7,-1
 24 396 l 1,8,-1
 408 12 l 1,0,-1
300 240 m 1,9,-1
 276 192 l 1,10,-1
 108 360 l 1,11,-1
 108 400 l 1,12,-1
 300 400 l 1,13,-1
 236 240 l 1,14,-1
 300 240 l 1,9,-1
EndSplineSet
Validated: 1
EndChar

StartChar: uniF16A
Encoding: 61802 61802 109
Width: 360
Flags: W
LayerCount: 2
Fore
SplineSet
232 171 m 0,0,1
 221 156 221 156 211.5 145.5 c 128,-1,2
 202 135 202 135 198 132 c 2,3,-1
 194 129 l 1,4,-1
 180 120 l 2,5,6
 163 110 163 110 151 92 c 0,7,8
 136 68 136 68 125 34 c 0,9,10
 119 14 119 14 103 -1 c 128,-1,11
 87 -16 87 -16 64 -16 c 0,12,13
 37 -16 37 -16 18 6 c 0,14,15
 0 26 0 26 0 55 c 128,-1,16
 0 84 0 84 18 104 c 0,17,18
 37 126 37 126 64 126 c 0,19,20
 82 126 82 126 98 115 c 1,21,-1
 108 135 l 2,22,23
 113 146 113 146 119 157 c 0,24,25
 122 163 122 163 128 172 c 0,26,27
 130 174 130 174 133 179 c 128,-1,28
 136 184 136 184 137 186 c 0,29,30
 152 208 152 208 152 209 c 2,31,-1
 167 229 l 1,32,-1
 170 233 l 1,33,-1
 180 246 l 1,34,-1
 294 400 l 1,35,36
 307 400 307 400 314 393 c 0,37,38
 333 376 333 376 333 352 c 0,39,40
 333 334 333 334 322 306 c 0,41,42
 315 289 315 289 284.5 244 c 128,-1,43
 254 199 254 199 232 171 c 0,0,1
64 27 m 128,-1,45
 74 27 74 27 81 35 c 128,-1,46
 88 43 88 43 88 55 c 0,47,48
 88 66 88 66 81 74.5 c 128,-1,49
 74 83 74 83 64 83 c 128,-1,50
 54 83 54 83 47 74.5 c 128,-1,51
 40 66 40 66 40 55 c 128,-1,52
 40 44 40 44 47 35.5 c 128,-1,44
 54 27 54 27 64 27 c 128,-1,45
180 160 m 128,-1,54
 196 160 196 160 196 176 c 128,-1,55
 196 192 196 192 180 192 c 128,-1,56
 164 192 164 192 164 176 c 128,-1,53
 164 160 164 160 180 160 c 128,-1,54
116 188 m 1,57,58
 49 279 49 279 38 306 c 0,59,60
 27 334 27 334 27 352 c 0,61,62
 27 382 27 382 46 396 c 0,63,64
 51 400 51 400 65 400 c 1,65,-1
 170 259 l 1,66,-1
 123 194 l 2,67,68
 122 192 122 192 120.5 189 c 128,-1,69
 119 186 119 186 118 185 c 1,70,71
 118 186 118 186 117 186 c 2,72,-1
 116 188 l 1,57,58
296 126 m 0,73,74
 322 126 322 126 341 105 c 128,-1,75
 360 84 360 84 360 55 c 128,-1,76
 360 26 360 26 341 5 c 128,-1,77
 322 -16 322 -16 296 -16 c 0,78,79
 274 -16 274 -16 257 -1 c 0,80,81
 241 14 241 14 235 34 c 0,82,83
 224 68 224 68 209 92 c 0,84,85
 204 99 204 99 194 109 c 1,86,-1
 230 142 l 1,87,-1
 241 156 l 1,88,89
 245 149 245 149 251 135 c 0,90,91
 253 131 253 131 257 124.5 c 128,-1,92
 261 118 261 118 262 115 c 1,93,94
 278 126 278 126 296 126 c 0,73,74
296 27 m 128,-1,96
 306 27 306 27 313 35 c 128,-1,97
 320 43 320 43 320 55 c 0,98,99
 320 66 320 66 313 74.5 c 128,-1,100
 306 83 306 83 296 83 c 128,-1,101
 286 83 286 83 279 74.5 c 128,-1,102
 272 66 272 66 272 55 c 128,-1,103
 272 44 272 44 279 35.5 c 128,-1,95
 286 27 286 27 296 27 c 128,-1,96
EndSplineSet
Validated: 1
EndChar

StartChar: uniF16B
Encoding: 61803 61803 110
Width: 352
Flags: W
LayerCount: 2
Fore
SplineSet
48 150 m 1,0,-1
 49 272 l 1,1,-1
 304 272 l 1,2,-1
 304 150 l 1,3,-1
 240 86 l 1,4,-1
 240 -32 l 1,5,-1
 112 -32 l 1,6,-1
 112 86 l 1,7,-1
 48 150 l 1,0,-1
155 416 m 1,8,-1
 197 416 l 1,9,-1
 197 352 l 1,10,-1
 155 352 l 1,11,-1
 155 416 l 1,8,-1
0 338 m 1,12,-1
 30 368 l 1,13,-1
 75 322 l 1,14,-1
 45 292 l 1,15,-1
 0 338 l 1,12,-1
277 322 m 1,16,-1
 322 368 l 1,17,-1
 352 338 l 1,18,-1
 307 292 l 1,19,-1
 277 322 l 1,16,-1
EndSplineSet
Validated: 1
EndChar

StartChar: uniF16C
Encoding: 61804 61804 111
Width: 448
Flags: W
LayerCount: 2
Fore
SplineSet
320 6 m 0,0,1
 320 0 320 0 315 0 c 2,2,-1
 133 0 l 2,3,4
 128 0 128 0 128 6 c 0,5,6
 128 10 128 10 132 10 c 2,7,-1
 154 12 l 2,8,9
 173 17 173 17 177 40 c 2,10,-1
 178 48 l 1,11,-1
 270 48 l 1,12,-1
 271 40 l 2,13,14
 275 17 275 17 294 12 c 2,15,-1
 316 10 l 2,16,17
 320 10 320 10 320 6 c 0,0,1
441 377 m 128,-1,19
 448 370 448 370 448 360 c 2,20,-1
 448 88 l 2,21,22
 448 78 448 78 441 71 c 128,-1,23
 434 64 434 64 424 64 c 2,24,-1
 24 64 l 2,25,26
 14 64 14 64 7 71 c 128,-1,27
 0 78 0 78 0 88 c 2,28,-1
 0 360 l 2,29,30
 0 370 0 370 7 377 c 128,-1,31
 14 384 14 384 24 384 c 2,32,-1
 424 384 l 2,33,18
 434 384 434 384 441 377 c 128,-1,19
224 88 m 128,-1,35
 232 88 232 88 232 96 c 128,-1,36
 232 104 232 104 224 104 c 128,-1,37
 216 104 216 104 216 96 c 128,-1,34
 216 88 216 88 224 88 c 128,-1,35
428 128 m 2,38,39
 432 128 432 128 432 132 c 2,40,-1
 432 356 l 2,41,42
 432 368 432 368 420 368 c 2,43,-1
 28 368 l 2,44,45
 16 368 16 368 16 356 c 2,46,-1
 16 132 l 2,47,48
 16 128 16 128 20 128 c 2,49,-1
 428 128 l 2,38,39
EndSplineSet
Validated: 1
EndChar

StartChar: uniF16D
Encoding: 61805 61805 112
Width: 416
Flags: W
LayerCount: 2
Fore
SplineSet
208 358 m 128,-1,1
 140 358 140 358 91 309 c 128,-1,2
 42 260 42 260 42 192 c 128,-1,3
 42 124 42 124 91 75 c 128,-1,4
 140 26 140 26 208 26 c 128,-1,5
 276 26 276 26 325 75 c 128,-1,6
 374 124 374 124 374 192 c 128,-1,7
 374 260 374 260 325 309 c 128,-1,0
 276 358 276 358 208 358 c 128,-1,1
208 400 m 128,-1,9
 294 400 294 400 355 339 c 128,-1,10
 416 278 416 278 416 192 c 128,-1,11
 416 106 416 106 355 45 c 128,-1,12
 294 -16 294 -16 208 -16 c 128,-1,13
 122 -16 122 -16 61 45 c 128,-1,14
 0 106 0 106 0 192 c 128,-1,15
 0 278 0 278 61 339 c 128,-1,8
 122 400 122 400 208 400 c 128,-1,9
187 67 m 1,16,-1
 187 109 l 1,17,-1
 229 109 l 1,18,-1
 229 67 l 1,19,-1
 187 67 l 1,16,-1
229 130 m 1,20,-1
 187 130 l 1,21,22
 187 153 187 153 197 168.5 c 128,-1,23
 207 184 207 184 218.5 191 c 128,-1,24
 230 198 230 198 240 209 c 128,-1,25
 250 220 250 220 250 234 c 0,26,27
 250 251 250 251 237.5 263.5 c 128,-1,28
 225 276 225 276 208 276 c 128,-1,29
 191 276 191 276 178.5 263.5 c 128,-1,30
 166 251 166 251 166 234 c 1,31,-1
 125 234 l 1,32,33
 125 268 125 268 149.5 292.5 c 128,-1,34
 174 317 174 317 208 317 c 128,-1,35
 242 317 242 317 266.5 292.5 c 128,-1,36
 291 268 291 268 291 234 c 0,37,38
 291 207 291 207 260 179.5 c 128,-1,39
 229 152 229 152 229 130 c 1,20,-1
EndSplineSet
Validated: 1
EndChar

StartChar: uniF16E
Encoding: 61806 61806 113
Width: 416
Flags: W
LayerCount: 2
Fore
SplineSet
208 282 m 128,-1,1
 246 282 246 282 272 256 c 128,-1,2
 298 230 298 230 298 192 c 128,-1,3
 298 154 298 154 272 128 c 128,-1,4
 246 102 246 102 208 102 c 128,-1,5
 170 102 170 102 144 128 c 128,-1,6
 118 154 118 154 118 192 c 128,-1,7
 118 230 118 230 144 256 c 128,-1,0
 170 282 170 282 208 282 c 128,-1,1
208 152 m 128,-1,9
 224 152 224 152 236 164 c 128,-1,10
 248 176 248 176 248 192 c 128,-1,11
 248 208 248 208 236 220 c 128,-1,12
 224 232 224 232 208 232 c 128,-1,13
 192 232 192 232 180 220 c 128,-1,14
 168 208 168 208 168 192 c 128,-1,15
 168 176 168 176 180 164 c 128,-1,8
 192 152 192 152 208 152 c 128,-1,9
208 400 m 128,-1,17
 294 400 294 400 355 339 c 128,-1,18
 416 278 416 278 416 192 c 128,-1,19
 416 106 416 106 355 45 c 128,-1,20
 294 -16 294 -16 208 -16 c 128,-1,21
 122 -16 122 -16 61 45 c 128,-1,22
 0 106 0 106 0 192 c 128,-1,23
 0 278 0 278 61 339 c 128,-1,16
 122 400 122 400 208 400 c 128,-1,17
208 78 m 128,-1,25
 255 78 255 78 288.5 111.5 c 128,-1,26
 322 145 322 145 322 192 c 128,-1,27
 322 239 322 239 288.5 272.5 c 128,-1,28
 255 306 255 306 208 306 c 128,-1,29
 161 306 161 306 127.5 272.5 c 128,-1,30
 94 239 94 239 94 192 c 128,-1,31
 94 145 94 145 127.5 111.5 c 128,-1,24
 161 78 161 78 208 78 c 128,-1,25
EndSplineSet
Validated: 1
EndChar

StartChar: uniF16F
Encoding: 61807 61807 114
Width: 416
Flags: W
LayerCount: 2
Fore
SplineSet
208 358 m 128,-1,1
 140 358 140 358 91 309 c 128,-1,2
 42 260 42 260 42 192 c 128,-1,3
 42 124 42 124 91 75 c 128,-1,4
 140 26 140 26 208 26 c 128,-1,5
 276 26 276 26 325 75 c 128,-1,6
 374 124 374 124 374 192 c 128,-1,7
 374 260 374 260 325 309 c 128,-1,0
 276 358 276 358 208 358 c 128,-1,1
208 400 m 128,-1,9
 294 400 294 400 355 339 c 128,-1,10
 416 278 416 278 416 192 c 128,-1,11
 416 106 416 106 355 45 c 128,-1,12
 294 -16 294 -16 208 -16 c 128,-1,13
 122 -16 122 -16 61 45 c 128,-1,14
 0 106 0 106 0 192 c 128,-1,15
 0 278 0 278 61 339 c 128,-1,8
 122 400 122 400 208 400 c 128,-1,9
229 88 m 1,16,-1
 187 88 l 1,17,-1
 187 213 l 1,18,-1
 229 213 l 1,19,-1
 229 88 l 1,16,-1
229 254 m 1,20,-1
 187 254 l 1,21,-1
 187 296 l 1,22,-1
 229 296 l 1,23,-1
 229 254 l 1,20,-1
EndSplineSet
Validated: 1
EndChar

StartChar: uniF170
Encoding: 61808 61808 115
Width: 304
Flags: W
LayerCount: 2
Fore
SplineSet
208 293 m 2,0,1
 200 293 200 293 194.5 298.5 c 128,-1,2
 189 304 189 304 189 312 c 2,3,-1
 189 384 l 2,4,5
 189 392 189 392 196 392 c 0,6,7
 207 392 207 392 217 384 c 2,8,-1
 293 321 l 2,9,10
 304 312 304 312 304 298 c 0,11,12
 304 293 304 293 299 293 c 2,13,-1
 208 293 l 2,0,1
163 312 m 2,14,15
 163 293 163 293 176 280 c 128,-1,16
 189 267 189 267 208 267 c 2,17,-1
 304 267 l 1,18,-1
 304 24 l 2,19,20
 304 10 304 10 295 1 c 128,-1,21
 286 -8 286 -8 272 -8 c 2,22,-1
 32 -8 l 2,23,24
 18 -8 18 -8 9 1 c 128,-1,25
 0 10 0 10 0 24 c 2,26,-1
 0 360 l 2,27,28
 0 374 0 374 9 383 c 128,-1,29
 18 392 18 392 32 392 c 2,30,-1
 163 392 l 1,31,-1
 163 312 l 2,14,15
EndSplineSet
Validated: 1
EndChar

StartChar: uniF171
Encoding: 61809 61809 116
Width: 320
Flags: W
LayerCount: 2
Fore
SplineSet
222 238 m 2,0,-1
 155 169 l 1,1,-1
 129 196 l 1,2,-1
 195 265 l 2,3,4
 197 267 197 267 199 267 c 0,5,6
 200 267 200 267 202 265 c 2,7,-1
 222 244 l 2,8,9
 225 241 225 241 222 238 c 2,0,-1
28 195 m 2,10,-1
 104 116 l 1,11,-1
 91 102 l 2,12,13
 85 96 85 96 78 96 c 0,14,15
 72 96 72 96 65 103 c 2,16,-1
 1 168 l 2,17,18
 -2 171 -2 171 1 174 c 2,19,-1
 21 195 l 2,20,21
 22 196 22 196 25 196 c 0,22,23
 27 196 27 196 28 195 c 2,10,-1
319 266 m 2,24,25
 322 262 322 262 319 259 c 2,26,-1
 168 103 l 2,27,28
 162 97 162 97 155 97 c 0,29,30
 147 97 147 97 141 103 c 2,31,-1
 78 168 l 2,32,33
 74 172 74 172 78 175 c 2,34,-1
 98 196 l 2,35,36
 99 197 99 197 101 197 c 0,37,38
 104 197 104 197 105 196 c 2,39,-1
 155 144 l 1,40,-1
 293 287 l 2,41,42
 294 288 294 288 296 288 c 128,-1,43
 298 288 298 288 299 287 c 2,44,-1
 319 266 l 2,24,25
EndSplineSet
Validated: 1
EndChar

StartChar: uniF172
Encoding: 61810 61810 117
Width: 464
Flags: W
LayerCount: 2
Fore
SplineSet
336 320 m 128,-1,1
 336 346 336 346 355 365 c 128,-1,2
 374 384 374 384 400 384 c 128,-1,3
 426 384 426 384 445 365 c 128,-1,4
 464 346 464 346 464 320 c 128,-1,5
 464 294 464 294 445 275 c 128,-1,6
 426 256 426 256 400 256 c 128,-1,7
 374 256 374 256 355 275 c 128,-1,0
 336 294 336 294 336 320 c 128,-1,1
351 245 m 1,8,9
 374 230 374 230 400 230 c 128,-1,10
 426 230 426 230 448 244 c 1,11,-1
 448 59 l 2,12,13
 448 41 448 41 435.5 28.5 c 128,-1,14
 423 16 423 16 405 16 c 2,15,-1
 43 16 l 2,16,17
 25 16 25 16 12.5 28.5 c 128,-1,18
 0 41 0 41 0 59 c 2,19,-1
 0 325 l 2,20,21
 0 343 0 343 12.5 355.5 c 128,-1,22
 25 368 25 368 43 368 c 2,23,-1
 324 368 l 1,24,25
 310 346 310 346 310 320 c 0,26,27
 310 291 310 291 325 270 c 1,28,-1
 224 203 l 1,29,-1
 48 320 l 1,30,-1
 48 277 l 1,31,-1
 224 160 l 1,32,-1
 351 245 l 1,8,9
EndSplineSet
Validated: 1
EndChar

StartChar: uniF173
Encoding: 61811 61811 118
Width: 448
Flags: W
LayerCount: 2
Fore
SplineSet
402 -14 m 2,0,1
 404 -19 404 -19 401 -26 c 0,2,3
 398 -32 398 -32 390 -32 c 2,4,-1
 389 -32 l 2,5,6
 379 -32 379 -32 376 -24 c 2,7,-1
 350 46 l 2,8,9
 348 50 348 50 352 58 c 0,10,11
 355 64 355 64 363 64 c 0,12,13
 372 64 372 64 375 56 c 2,14,-1
 402 -14 l 2,0,1
86 64 m 0,15,16
 94 64 94 64 97 58 c 0,17,18
 101 52 101 52 98 46 c 2,19,-1
 72 -24 l 2,20,21
 69 -32 69 -32 60 -32 c 2,22,-1
 59 -32 l 2,23,24
 51 -32 51 -32 48 -26 c 0,25,26
 44 -19 44 -19 47 -14 c 2,27,-1
 73 56 l 2,28,29
 76 64 76 64 86 64 c 0,15,16
225 64 m 2,30,31
 238 64 238 64 238 51 c 2,32,-1
 238 14 l 2,33,34
 238 9 238 9 234 4.5 c 128,-1,35
 230 0 230 0 225 0 c 2,36,-1
 224 0 l 2,37,38
 219 0 219 0 214.5 4.5 c 128,-1,39
 210 9 210 9 210 14 c 2,40,-1
 210 51 l 2,41,42
 210 56 210 56 214.5 60 c 128,-1,43
 219 64 219 64 224 64 c 2,44,-1
 225 64 l 2,30,31
392 320 m 2,45,46
 400 320 400 320 400 312 c 2,47,-1
 400 136 l 2,48,49
 400 128 400 128 392 128 c 2,50,-1
 56 128 l 2,51,52
 48 128 48 128 48 136 c 2,53,-1
 48 312 l 2,54,55
 48 320 48 320 56 320 c 2,56,-1
 392 320 l 2,45,46
416 368 m 2,57,58
 430 368 430 368 439 359 c 128,-1,59
 448 350 448 350 448 336 c 2,60,-1
 448 112 l 2,61,62
 448 98 448 98 439 89 c 128,-1,63
 430 80 430 80 416 80 c 2,64,-1
 32 80 l 2,65,66
 18 80 18 80 9 89 c 128,-1,67
 0 98 0 98 0 112 c 2,68,-1
 0 336 l 2,69,70
 0 350 0 350 9 359 c 128,-1,71
 18 368 18 368 32 368 c 2,72,-1
 416 368 l 2,57,58
420 124 m 2,73,-1
 420 329 l 2,74,75
 420 334 420 334 417 337 c 128,-1,76
 414 340 414 340 409 340 c 2,77,-1
 44 340 l 2,78,79
 28 340 28 340 28 324 c 2,80,-1
 28 124 l 2,81,82
 28 108 28 108 44 108 c 2,83,-1
 404 108 l 2,84,85
 420 108 420 108 420 124 c 2,73,-1
224 416 m 128,-1,87
 234 416 234 416 241 408 c 128,-1,88
 248 400 248 400 248 390 c 1,89,-1
 200 390 l 1,90,91
 200 400 200 400 207 408 c 128,-1,86
 214 416 214 416 224 416 c 128,-1,87
EndSplineSet
Validated: 1
EndChar

StartChar: uniF174
Encoding: 61812 61812 119
Width: 416
Flags: W
LayerCount: 2
Fore
SplineSet
208 400 m 128,-1,1
 294 400 294 400 355 339 c 128,-1,2
 416 278 416 278 416 192 c 128,-1,3
 416 106 416 106 355 45 c 128,-1,4
 294 -16 294 -16 208 -16 c 128,-1,5
 122 -16 122 -16 61 45 c 128,-1,6
 0 106 0 106 0 192 c 128,-1,7
 0 278 0 278 61 339 c 128,-1,0
 122 400 122 400 208 400 c 128,-1,1
166 98 m 1,8,-1
 291 192 l 1,9,-1
 166 286 l 1,10,-1
 166 98 l 1,8,-1
EndSplineSet
Validated: 1
EndChar

StartChar: uniF175
Encoding: 61813 61813 120
Width: 320
Flags: W
LayerCount: 2
Fore
SplineSet
160 416 m 128,-1,1
 210 416 210 416 265 332.5 c 128,-1,2
 320 249 320 249 320 159 c 0,3,4
 320 68 320 68 276.5 18 c 128,-1,5
 233 -32 233 -32 160 -32 c 128,-1,6
 87 -32 87 -32 43.5 18 c 128,-1,7
 0 68 0 68 0 159 c 0,8,9
 0 249 0 249 55 332.5 c 128,-1,0
 110 416 110 416 160 416 c 128,-1,1
EndSplineSet
Validated: 1
EndChar

StartChar: uniF176
Encoding: 61814 61814 121
Width: 416
Flags: W
LayerCount: 2
Fore
SplineSet
208 358 m 128,-1,1
 140 358 140 358 91 309 c 128,-1,2
 42 260 42 260 42 192 c 128,-1,3
 42 124 42 124 91 75 c 128,-1,4
 140 26 140 26 208 26 c 128,-1,5
 276 26 276 26 325 75 c 128,-1,6
 374 124 374 124 374 192 c 128,-1,7
 374 260 374 260 325 309 c 128,-1,0
 276 358 276 358 208 358 c 128,-1,1
208 400 m 128,-1,9
 294 400 294 400 355 339 c 128,-1,10
 416 278 416 278 416 192 c 128,-1,11
 416 106 416 106 355 45 c 128,-1,12
 294 -16 294 -16 208 -16 c 128,-1,13
 122 -16 122 -16 61 45 c 128,-1,14
 0 106 0 106 0 192 c 128,-1,15
 0 278 0 278 61 339 c 128,-1,8
 122 400 122 400 208 400 c 128,-1,9
315 171 m 1,16,-1
 101 171 l 1,17,-1
 101 213 l 1,18,-1
 315 213 l 1,19,-1
 315 171 l 1,16,-1
EndSplineSet
Validated: 1
EndChar

StartChar: uniF177
Encoding: 61815 61815 122
Width: 416
Flags: W
LayerCount: 2
Fore
SplineSet
96 312 m 2,0,1
 96 328 96 328 108 340 c 128,-1,2
 120 352 120 352 136 352 c 2,3,-1
 376 352 l 2,4,5
 392 352 392 352 404 340 c 128,-1,6
 416 328 416 328 416 312 c 2,7,-1
 416 72 l 2,8,9
 416 56 416 56 404 44 c 128,-1,10
 392 32 392 32 376 32 c 2,11,-1
 136 32 l 2,12,13
 120 32 120 32 108 44 c 128,-1,14
 96 56 96 56 96 72 c 2,15,-1
 96 179 l 1,16,-1
 276 179 l 1,17,-1
 229 131 l 2,18,19
 220 122 220 122 229 113 c 128,-1,20
 238 104 238 104 247 113 c 2,21,-1
 316 183 l 2,22,23
 318 185 318 185 319 187 c 128,-1,24
 320 189 320 189 320 192 c 0,25,26
 320 197 320 197 316 201 c 2,27,-1
 247 271 l 2,28,29
 238 280 238 280 229 271 c 128,-1,30
 220 262 220 262 229 253 c 2,31,-1
 276 205 l 1,32,-1
 96 205 l 1,33,-1
 96 312 l 2,0,1
13 205 m 2,34,-1
 96 205 l 1,35,-1
 96 179 l 1,36,-1
 13 179 l 2,37,38
 0 179 0 179 0 192 c 128,-1,39
 0 205 0 205 13 205 c 2,34,-1
EndSplineSet
Validated: 37
EndChar

StartChar: uniF178
Encoding: 61816 61816 123
Width: 384
Flags: W
LayerCount: 2
Fore
SplineSet
48 356 m 1,0,-1
 165 239 l 2,1,2
 175 229 175 229 165 219 c 0,3,4
 161 215 161 215 155 215 c 128,-1,5
 149 215 149 215 145 219 c 2,6,-1
 28 336 l 1,7,-1
 28 258 l 2,8,9
 28 244 28 244 14 244 c 128,-1,10
 0 244 0 244 0 258 c 2,11,-1
 0 370 l 2,12,13
 0 384 0 384 14 384 c 2,14,-1
 126 384 l 2,15,16
 140 384 140 384 140 370 c 128,-1,17
 140 356 140 356 126 356 c 2,18,-1
 48 356 l 1,0,-1
370 384 m 2,19,20
 384 384 384 384 384 370 c 2,21,-1
 384 258 l 2,22,23
 384 244 384 244 370 244 c 128,-1,24
 356 244 356 244 356 258 c 2,25,-1
 356 336 l 1,26,-1
 239 219 l 2,27,28
 235 215 235 215 229 215 c 128,-1,29
 223 215 223 215 219 219 c 0,30,31
 209 229 209 229 219 239 c 2,32,-1
 336 356 l 1,33,-1
 258 356 l 2,34,35
 244 356 244 356 244 370 c 128,-1,36
 244 384 244 384 258 384 c 2,37,-1
 370 384 l 2,19,20
155 169 m 128,-1,39
 161 169 161 169 165 165 c 0,40,41
 175 155 175 155 165 145 c 2,42,-1
 48 28 l 1,43,-1
 126 28 l 2,44,45
 140 28 140 28 140 14 c 128,-1,46
 140 0 140 0 126 0 c 2,47,-1
 14 0 l 2,48,49
 0 0 0 0 0 14 c 2,50,-1
 0 126 l 2,51,52
 0 140 0 140 14 140 c 128,-1,53
 28 140 28 140 28 126 c 2,54,-1
 28 48 l 1,55,-1
 145 165 l 2,56,38
 149 169 149 169 155 169 c 128,-1,39
370 140 m 128,-1,58
 384 140 384 140 384 126 c 2,59,-1
 384 14 l 2,60,61
 384 0 384 0 370 0 c 2,62,-1
 258 0 l 2,63,64
 244 0 244 0 244 14 c 128,-1,65
 244 28 244 28 258 28 c 2,66,-1
 336 28 l 1,67,-1
 219 145 l 2,68,69
 209 155 209 155 219 165 c 0,70,71
 223 169 223 169 229 169 c 128,-1,72
 235 169 235 169 239 165 c 2,73,-1
 356 48 l 1,74,-1
 356 126 l 2,75,57
 356 140 356 140 370 140 c 128,-1,58
EndSplineSet
Validated: 33
EndChar

StartChar: uniF179
Encoding: 61817 61817 124
Width: 288
Flags: W
LayerCount: 2
Fore
SplineSet
144 26 m 0,0,1
 159 26 159 26 187 37 c 0,2,3
 198 41 198 41 198 30 c 2,4,-1
 194 -21 l 2,5,6
 194 -23 194 -23 192 -24.5 c 128,-1,7
 190 -26 190 -26 188 -24 c 2,8,-1
 173 -13 l 2,9,10
 169 -11 169 -11 168 -14 c 2,11,-1
 147 -46 l 2,12,13
 144 -49 144 -49 141 -46 c 2,14,-1
 120 -14 l 2,15,16
 118 -11 118 -11 114 -13 c 2,17,-1
 100 -24 l 2,18,19
 98 -26 98 -26 96 -24.5 c 128,-1,20
 94 -23 94 -23 94 -21 c 2,21,-1
 90 30 l 2,22,23
 90 41 90 41 101 37 c 0,24,25
 128 26 128 26 144 26 c 0,0,1
286 155 m 2,26,27
 288 153 288 153 288 148 c 2,28,-1
 270 36 l 2,29,30
 268 25 268 25 258 31 c 2,31,-1
 191 76 l 1,32,33
 171 56 171 56 145 56 c 0,34,35
 133 56 133 56 121 61 c 128,-1,36
 109 66 109 66 103 71 c 2,37,-1
 97 76 l 1,38,-1
 30 31 l 2,39,40
 21 25 21 25 19 36 c 2,41,-1
 0 148 l 2,42,43
 0 153 0 153 2 155 c 2,44,-1
 50 204 l 1,45,46
 50 248 50 248 59.5 288 c 128,-1,47
 69 328 69 328 83 353 c 128,-1,48
 97 378 97 378 111 397 c 128,-1,49
 125 416 125 416 134 424 c 2,50,-1
 144 432 l 1,51,52
 148 429 148 429 154 423.5 c 128,-1,53
 160 418 160 418 176.5 397.5 c 128,-1,54
 193 377 193 377 205.5 352.5 c 128,-1,55
 218 328 218 328 228 288 c 128,-1,56
 238 248 238 248 238 204 c 1,57,-1
 286 155 l 2,26,27
144 256 m 128,-1,59
 157 256 157 256 166 265.5 c 128,-1,60
 175 275 175 275 175 288 c 128,-1,61
 175 301 175 301 166 310.5 c 128,-1,62
 157 320 157 320 144 320 c 128,-1,63
 131 320 131 320 122.5 311 c 128,-1,64
 114 302 114 302 114 288 c 128,-1,65
 114 274 114 274 122.5 265 c 128,-1,58
 131 256 131 256 144 256 c 128,-1,59
EndSplineSet
Validated: 1
EndChar

StartChar: uniF17A
Encoding: 61818 61818 125
Width: 448
Flags: W
LayerCount: 2
Fore
SplineSet
56 380 m 2,0,-1
 412 24 l 2,1,2
 422 14 422 14 412 4 c 0,3,4
 411 3 411 3 405 0 c 0,5,6
 398 -2 398 -2 392 4 c 2,7,-1
 36 360 l 2,8,9
 26 370 26 370 36 380 c 128,-1,10
 46 390 46 390 56 380 c 2,0,-1
228 102 m 0,11,12
 247 104 247 104 263 111 c 1,13,-1
 306 67 l 1,14,15
 266 48 266 48 224 48 c 0,16,17
 178 48 178 48 136 68.5 c 128,-1,18
 94 89 94 89 69.5 112 c 128,-1,19
 45 135 45 135 4 181 c 0,20,21
 -7 192 -7 192 4 203 c 0,22,23
 58 261 58 261 89 284 c 1,24,-1
 143 230 l 1,25,26
 136 215 136 215 134 196 c 0,27,28
 132 156 132 156 160 128 c 128,-1,29
 188 100 188 100 228 102 c 0,11,12
444 182 m 0,30,31
 390 123 390 123 359 100 c 1,32,-1
 305 154 l 1,33,34
 312 169 312 169 314 188 c 0,35,36
 316 228 316 228 288 256 c 128,-1,37
 260 284 260 284 220 282 c 0,38,39
 203 282 203 282 185 273 c 1,40,-1
 142 317 l 1,41,42
 183 336 183 336 224 336 c 0,43,44
 336 336 336 336 444 203 c 0,45,46
 453 193 453 193 444 182 c 0,30,31
160 187 m 0,47,48
 159 196 159 196 163 211 c 1,49,-1
 242 131 l 1,50,51
 228 127 228 127 219 128 c 0,52,53
 196 130 196 130 179 147 c 128,-1,54
 162 164 162 164 160 187 c 0,47,48
288 192 m 2,55,56
 288 182 288 182 285 173 c 1,57,-1
 267 192 l 1,58,-1
 270 192 l 2,59,60
 276 192 276 192 288 196 c 1,61,-1
 288 192 l 2,55,56
224 239 m 2,62,-1
 224 234 l 1,63,-1
 205 253 l 1,64,65
 214 256 214 256 224 256 c 2,66,-1
 227 256 l 1,67,68
 224 248 224 248 224 239 c 2,62,-1
EndSplineSet
Validated: 33
EndChar

StartChar: uniF17B
Encoding: 61819 61819 126
Width: 416
Flags: W
LayerCount: 2
Fore
SplineSet
14 -16 m 128,-1,1
 8 -16 8 -16 4 -12 c 0,2,3
 -6 -2 -6 -2 4 7 c 2,4,-1
 49 52 l 1,5,-1
 12 89 l 2,6,7
 2 98 2 98 12 108 c 0,8,9
 15 112 15 112 21 112 c 128,-1,10
 27 112 27 112 31 108 c 2,11,-1
 68 71 l 1,12,-1
 118 121 l 1,13,14
 78 169 78 169 78 231 c 0,15,16
 78 267 78 267 91 297 c 0,17,18
 102 325 102 325 127 350 c 0,19,20
 153 376 153 376 181 387 c 0,21,22
 211 400 211 400 247 400 c 128,-1,23
 283 400 283 400 313 387 c 0,24,25
 340 376 340 376 366 350 c 128,-1,26
 392 324 392 324 403 297 c 0,27,28
 416 267 416 267 416 231 c 128,-1,29
 416 195 416 195 403 165 c 0,30,31
 392 137 392 137 366 111 c 0,32,33
 341 86 341 86 313 75 c 0,34,35
 283 62 283 62 247 62 c 0,36,37
 185 62 185 62 137 102 c 1,38,-1
 87 52 l 1,39,-1
 124 15 l 2,40,41
 134 6 134 6 124 -4 c 0,42,43
 121 -8 121 -8 115 -8 c 128,-1,44
 109 -8 109 -8 105 -4 c 2,45,-1
 68 33 l 1,46,-1
 23 -12 l 2,47,0
 20 -16 20 -16 14 -16 c 128,-1,1
146 331 m 0,48,49
 105 290 105 290 105 231 c 0,50,51
 105 173 105 173 147 131 c 128,-1,52
 189 89 189 89 247 89 c 128,-1,53
 305 89 305 89 347 131 c 128,-1,54
 389 173 389 173 389 231 c 128,-1,55
 389 289 389 289 347 331 c 128,-1,56
 305 373 305 373 247 373 c 0,57,58
 188 373 188 373 146 331 c 0,48,49
EndSplineSet
Validated: 33
EndChar

StartChar: uniF17C
Encoding: 61820 61820 127
Width: 416
Flags: W
LayerCount: 2
Fore
SplineSet
403 266 m 0,0,1
 416 227 416 227 416 193 c 2,2,-1
 416 182 l 2,3,4
 416 177 416 177 411.5 173 c 128,-1,5
 407 169 407 169 402 169 c 0,6,7
 395 169 395 169 392 173 c 0,8,9
 388 179 388 179 388 183 c 0,10,11
 388 184 388 184 388.5 187.5 c 128,-1,12
 389 191 389 191 389 193 c 0,13,14
 389 220 389 220 377 256 c 0,15,16
 366 288 366 288 350 304 c 0,17,18
 340 314 340 314 350 324 c 0,19,20
 354 328 354 328 360 328 c 128,-1,21
 366 328 366 328 370 324 c 0,22,23
 388 306 388 306 403 266 c 0,0,1
95 337 m 0,24,25
 87 337 87 337 84 343 c 0,26,27
 81 348 81 348 82 353 c 0,28,29
 84 360 84 360 87 362 c 0,30,31
 140 400 140 400 208 400 c 0,32,33
 279 400 279 400 339 351 c 0,34,35
 350 342 350 342 341 332 c 0,36,37
 336 327 336 327 330 327 c 0,38,39
 325 327 325 327 322 330 c 0,40,41
 270 373 270 373 208 373 c 0,42,43
 150 373 150 373 103 340 c 0,44,45
 100 337 100 337 95 337 c 0,24,25
27 193 m 0,46,47
 27 159 27 159 42 111 c 0,48,49
 44 104 44 104 41 100 c 256,50,51
 38 96 38 96 32 94 c 2,52,-1
 30 94 l 1,53,-1
 28 93 l 1,54,55
 18 93 18 93 15 103 c 0,56,57
 0 150 0 150 0 193 c 0,58,59
 0 271 0 271 51 330 c 0,60,61
 55 334 55 334 62 334 c 0,62,63
 67 334 67 334 70 331 c 0,64,65
 75 328 75 328 75 322 c 128,-1,66
 75 316 75 316 72 312 c 0,67,68
 27 261 27 261 27 193 c 0,46,47
308 318 m 0,69,70
 349 282 349 282 365 224 c 0,71,72
 384 156 384 156 375 69 c 0,73,74
 373 57 373 57 361 57 c 2,75,-1
 360 57 l 2,76,77
 346 59 346 59 348 72 c 0,78,79
 356 158 356 158 339 217 c 0,80,81
 324 269 324 269 290 298 c 128,-1,82
 256 327 256 327 211 327 c 0,83,84
 148 327 148 327 110 286 c 128,-1,85
 72 245 72 245 77 191 c 0,86,87
 79 164 79 164 86 128 c 0,88,89
 95 86 95 86 92 36 c 0,90,91
 92 31 92 31 87.5 27 c 128,-1,92
 83 23 83 23 78 23 c 2,93,-1
 76 24 l 1,94,-1
 74 24 l 2,95,96
 64 27 64 27 64 38 c 0,97,98
 67 82 67 82 59 123 c 0,99,100
 52 162 52 162 50 189 c 0,101,102
 45 256 45 256 90 304 c 0,103,104
 137 354 137 354 211 354 c 0,105,106
 268 354 268 354 308 318 c 0,69,70
326 180 m 0,107,108
 333 137 333 137 333 103 c 0,109,110
 333 91 333 91 332.5 79 c 128,-1,111
 332 67 332 67 331 58 c 128,-1,112
 330 49 330 49 329.5 41.5 c 128,-1,113
 329 34 329 34 328 30 c 2,114,-1
 328 26 l 2,115,116
 326 14 326 14 314 14 c 2,117,-1
 312 14 l 2,118,119
 306 16 306 16 303 20 c 0,120,121
 300 25 300 25 301 30 c 0,122,123
 305 63 305 63 305 103 c 0,124,125
 305 134 305 134 298 176 c 0,126,127
 290 224 290 224 266 251 c 0,128,129
 242 277 242 277 208 277 c 0,130,131
 186 277 186 277 166 268 c 0,132,133
 164 267 164 267 160 267 c 0,134,135
 154 267 154 267 149 272 c 128,-1,136
 144 277 144 277 146 284 c 0,137,138
 147 290 147 290 154 293 c 0,139,140
 178 305 178 305 208 305 c 0,141,142
 253 305 253 305 285 271 c 0,143,144
 317 238 317 238 326 180 c 0,107,108
137 244 m 0,145,146
 121 221 121 221 127 185 c 0,147,148
 146 73 146 73 137 11 c 0,149,150
 135 -1 135 -1 123 -1 c 2,151,-1
 122 -1 l 2,152,153
 116 -1 116 -1 113 4 c 128,-1,154
 110 9 110 9 110 15 c 0,155,156
 119 74 119 74 100 180 c 0,157,158
 92 227 92 227 115 260 c 0,159,160
 119 266 119 266 126 266 c 0,161,162
 132 266 132 266 135 263 c 0,163,164
 144 254 144 254 137 244 c 0,145,146
270 60 m 2,165,166
 283 60 283 60 283 47 c 0,167,168
 283 21 283 21 280 6 c 0,169,170
 278 -5 278 -5 267 -5 c 2,171,-1
 262 -5 l 1,172,173
 251 -1 251 -1 253 11 c 2,174,-1
 256 46 l 2,175,176
 256 60 256 60 269 60 c 2,177,-1
 270 60 l 2,165,166
247 242 m 0,178,179
 263 228 263 228 271 198 c 0,180,181
 281 162 281 162 283 84 c 0,182,183
 283 80 283 80 279 74 c 0,184,185
 275 70 275 70 270 70 c 0,186,187
 264 70 264 70 260 74.5 c 128,-1,188
 256 79 256 79 256 84 c 0,189,190
 254 153 254 153 244 192 c 128,-1,191
 234 231 234 231 206 231 c 0,192,193
 189 231 189 231 180 220 c 0,194,195
 170 206 170 206 174 183 c 0,196,197
 194 85 194 85 183 -1 c 0,198,199
 181 -13 181 -13 169 -13 c 2,200,-1
 168 -13 l 2,201,202
 154 -11 154 -11 156 2 c 0,203,204
 166 83 166 83 148 178 c 0,205,206
 141 216 141 216 158 238 c 0,207,208
 175 258 175 258 206 258 c 0,209,210
 229 258 229 258 247 242 c 0,178,179
217 202 m 0,211,212
 230 171 230 171 233 112 c 0,213,214
 237 54 237 54 231 -4 c 0,215,216
 229 -16 229 -16 218 -16 c 2,217,-1
 216 -16 l 2,218,219
 210 -16 210 -16 207 -11 c 0,220,221
 204 -7 204 -7 204 -1 c 0,222,223
 209 44 209 44 206 109 c 0,224,225
 203 167 203 167 192 192 c 0,226,227
 187 205 187 205 199 210 c 0,228,229
 201 211 201 211 204 211 c 0,230,231
 213 211 213 211 217 202 c 0,211,212
EndSplineSet
Validated: 33
EndChar

StartChar: uniF17D
Encoding: 61821 61821 128
Width: 384
Flags: W
LayerCount: 2
Fore
SplineSet
341 416 m 2,0,1
 359 416 359 416 371.5 403.5 c 128,-1,2
 384 391 384 391 384 373 c 2,3,-1
 384 11 l 2,4,5
 384 -7 384 -7 371.5 -19.5 c 128,-1,6
 359 -32 359 -32 341 -32 c 2,7,-1
 43 -32 l 2,8,9
 25 -32 25 -32 12.5 -19.5 c 128,-1,10
 0 -7 0 -7 0 11 c 2,11,-1
 0 373 l 2,12,13
 0 391 0 391 12.5 403.5 c 128,-1,14
 25 416 25 416 43 416 c 2,15,-1
 341 416 l 2,0,1
337 11 m 2,16,17
 341 11 341 11 341 15 c 2,18,-1
 341 369 l 2,19,20
 341 373 341 373 337 373 c 2,21,-1
 47 373 l 2,22,23
 43 373 43 373 43 369 c 2,24,-1
 43 15 l 2,25,26
 43 11 43 11 47 11 c 2,27,-1
 337 11 l 2,16,17
81 254 m 2,28,29
 81 256 81 256 83 256 c 2,30,-1
 301 256 l 2,31,32
 303 256 303 256 303 254 c 2,33,-1
 303 50 l 2,34,35
 303 48 303 48 301 48 c 2,36,-1
 83 48 l 2,37,38
 81 48 81 48 81 50 c 2,39,-1
 81 254 l 2,28,29
81 333 m 2,40,41
 81 335 81 335 83 335 c 2,42,-1
 254 335 l 2,43,44
 256 335 256 335 256 333 c 2,45,-1
 256 299 l 2,46,47
 256 297 256 297 254 297 c 2,48,-1
 83 297 l 2,49,50
 81 297 81 297 81 299 c 2,51,-1
 81 333 l 2,40,41
EndSplineSet
Validated: 1
EndChar

StartChar: uniF17E
Encoding: 61822 61822 129
Width: 256
Flags: W
LayerCount: 2
Fore
SplineSet
248 224 m 2,0,1
 253 224 253 224 255.5 219 c 128,-1,2
 258 214 258 214 255 210 c 2,3,-1
 71 -30 l 2,4,5
 69 -33 69 -33 66 -31.5 c 128,-1,6
 63 -30 63 -30 64 -27 c 2,7,-1
 116 160 l 1,8,-1
 8 160 l 2,9,10
 3 160 3 160 1 164 c 128,-1,11
 -1 168 -1 168 2 173 c 2,12,-1
 185 414 l 2,13,14
 187 417 187 417 190 415.5 c 128,-1,15
 193 414 193 414 192 411 c 2,16,-1
 140 224 l 1,17,-1
 248 224 l 2,0,1
EndSplineSet
Validated: 1
EndChar

StartChar: uniF17F
Encoding: 61823 61823 130
Width: 448
Flags: W
LayerCount: 2
Fore
SplineSet
407 372 m 2,0,1
 424 372 424 372 436 360 c 128,-1,2
 448 348 448 348 448 332 c 2,3,-1
 448 92 l 2,4,5
 448 76 448 76 436 64 c 128,-1,6
 424 52 424 52 407 52 c 2,7,-1
 305 52 l 1,8,-1
 305 12 l 1,9,-1
 142 12 l 1,10,-1
 142 52 l 1,11,-1
 41 52 l 2,12,13
 24 52 24 52 12 64 c 128,-1,14
 0 76 0 76 0 92 c 2,15,-1
 0 332 l 2,16,17
 0 348 0 348 12 360 c 128,-1,18
 24 372 24 372 41 372 c 2,19,-1
 407 372 l 2,0,1
407 92 m 1,20,-1
 407 332 l 1,21,-1
 41 332 l 1,22,-1
 41 92 l 1,23,-1
 407 92 l 1,20,-1
EndSplineSet
Validated: 1
EndChar

StartChar: uniF180
Encoding: 61824 61824 131
Width: 448
Flags: W
LayerCount: 2
Fore
SplineSet
416 329 m 2,0,-1
 416 288 l 1,1,-1
 32 288 l 1,2,-1
 32 361 l 2,3,4
 32 371 32 371 39 377.5 c 128,-1,5
 46 384 46 384 57 384 c 2,6,-1
 153 384 l 2,7,8
 163 384 163 384 170 377 c 2,9,-1
 193 354 l 2,10,11
 195 352 195 352 199 352 c 2,12,-1
 393 352 l 2,13,14
 403 352 403 352 409.5 345.5 c 128,-1,15
 416 339 416 339 416 329 c 2,0,-1
32 260 m 1,16,-1
 416 260 l 1,17,-1
 424 260 l 2,18,19
 450 260 450 260 448 230 c 2,20,-1
 424 25 l 2,21,22
 421 0 421 0 401 0 c 2,23,-1
 49 0 l 2,24,25
 28 0 28 0 24 25 c 0,26,27
 2 217 2 217 0 236 c 0,28,29
 -3 260 -3 260 24 260 c 2,30,-1
 32 260 l 1,16,-1
EndSplineSet
Validated: 33
EndChar

StartChar: uniF181
Encoding: 61825 61825 132
Width: 448
Flags: W
LayerCount: 2
Fore
SplineSet
103 243 m 128,-1,1
 122 243 122 243 122 224 c 128,-1,2
 122 205 122 205 103 205 c 128,-1,3
 84 205 84 205 84 224 c 128,-1,0
 84 243 84 243 103 243 c 128,-1,1
434 199 m 0,4,5
 450 133 450 133 448 88.5 c 128,-1,6
 446 44 446 44 427 35 c 0,7,8
 421 32 421 32 414 32 c 0,9,10
 388 32 388 32 347 84 c 0,11,12
 328 108 328 108 311.5 112.5 c 128,-1,13
 295 117 295 117 236 117 c 2,14,-1
 212 117 l 2,15,16
 153 117 153 117 137 112.5 c 128,-1,17
 121 108 121 108 102 84 c 0,18,19
 59 32 59 32 34 32 c 0,20,21
 27 32 27 32 21 35 c 0,22,23
 2 44 2 44 0 88.5 c 128,-1,24
 -2 133 -2 133 14 199 c 0,25,26
 31 269 31 269 50.5 304 c 128,-1,27
 70 339 70 339 102 348 c 0,28,29
 115 352 115 352 128 352 c 0,30,31
 139 352 139 352 168 344.5 c 128,-1,32
 197 337 197 337 224 337 c 128,-1,33
 251 337 251 337 280 344.5 c 128,-1,34
 309 352 309 352 320 352 c 0,35,36
 333 352 333 352 346 348 c 0,37,38
 378 339 378 339 397.5 304 c 128,-1,39
 417 269 417 269 434 199 c 0,4,5
103 184 m 128,-1,41
 119 184 119 184 130.5 195.5 c 128,-1,42
 142 207 142 207 142 224 c 128,-1,43
 142 241 142 241 130.5 252.5 c 128,-1,44
 119 264 119 264 103 264 c 128,-1,45
 87 264 87 264 75.5 252.5 c 128,-1,46
 64 241 64 241 64 224 c 128,-1,47
 64 207 64 207 75.5 195.5 c 128,-1,40
 87 184 87 184 103 184 c 128,-1,41
276 204 m 128,-1,49
 284 204 284 204 290 210 c 128,-1,50
 296 216 296 216 296 224 c 128,-1,51
 296 232 296 232 290 238 c 128,-1,52
 284 244 284 244 276 244 c 128,-1,53
 268 244 268 244 262 238 c 128,-1,54
 256 232 256 232 256 224 c 128,-1,55
 256 216 256 216 262 210 c 128,-1,48
 268 204 268 204 276 204 c 128,-1,49
320 160 m 128,-1,57
 328 160 328 160 334 166 c 128,-1,58
 340 172 340 172 340 180 c 128,-1,59
 340 188 340 188 334 194 c 128,-1,60
 328 200 328 200 320 200 c 128,-1,61
 312 200 312 200 306 194 c 128,-1,62
 300 188 300 188 300 180 c 128,-1,63
 300 172 300 172 306 166 c 128,-1,56
 312 160 312 160 320 160 c 128,-1,57
320 248 m 128,-1,65
 328 248 328 248 334 254 c 128,-1,66
 340 260 340 260 340 268 c 128,-1,67
 340 276 340 276 334 282 c 128,-1,68
 328 288 328 288 320 288 c 128,-1,69
 312 288 312 288 306 282 c 128,-1,70
 300 276 300 276 300 268 c 128,-1,71
 300 260 300 260 306 254 c 128,-1,64
 312 248 312 248 320 248 c 128,-1,65
364 204 m 128,-1,73
 372 204 372 204 378 210 c 128,-1,74
 384 216 384 216 384 224 c 128,-1,75
 384 232 384 232 378 238 c 128,-1,76
 372 244 372 244 364 244 c 128,-1,77
 356 244 356 244 350 238 c 128,-1,78
 344 232 344 232 344 224 c 128,-1,79
 344 216 344 216 350 210 c 128,-1,72
 356 204 356 204 364 204 c 128,-1,73
EndSplineSet
Validated: 33
EndChar

StartChar: uniF182
Encoding: 61826 61826 133
Width: 416
Flags: W
LayerCount: 2
Fore
SplineSet
0 361 m 128,-1,1
 0 371 0 371 6 377.5 c 128,-1,2
 12 384 12 384 21 384 c 2,3,-1
 395 384 l 2,4,5
 404 384 404 384 410 377.5 c 128,-1,6
 416 371 416 371 416 361 c 128,-1,7
 416 351 416 351 410 345 c 2,8,-1
 258 165 l 2,9,10
 253 160 253 160 253 150 c 2,11,-1
 253 16 l 2,12,13
 253 8 253 8 246.5 3 c 128,-1,14
 240 -2 240 -2 233 1 c 2,15,-1
 178 21 l 2,16,17
 163 26 163 26 163 43 c 2,18,-1
 163 150 l 2,19,20
 163 160 163 160 158 165 c 2,21,-1
 6 345 l 2,22,0
 0 351 0 351 0 361 c 128,-1,1
EndSplineSet
Validated: 1
EndChar

StartChar: uniF183
Encoding: 61827 61827 134
Width: 332
Flags: W
LayerCount: 2
Fore
SplineSet
262 352 m 128,-1,1
 291 352 291 352 311.5 331.5 c 128,-1,2
 332 311 332 311 332 282 c 0,3,4
 332 257 332 257 316 237.5 c 128,-1,5
 300 218 300 218 276 213 c 1,6,7
 275 177 275 177 238 149 c 0,8,9
 212 130 212 130 160 120 c 0,10,11
 125 113 125 113 109 96 c 1,12,13
 140 75 140 75 140 38 c 0,14,15
 140 9 140 9 119.5 -11.5 c 128,-1,16
 99 -32 99 -32 70 -32 c 128,-1,17
 41 -32 41 -32 20.5 -11.5 c 128,-1,18
 0 9 0 9 0 38 c 0,19,20
 0 64 0 64 17 84 c 0,21,22
 33 101 33 101 55 106 c 1,23,-1
 55 278 l 1,24,25
 33 282 33 282 17 300 c 0,26,27
 0 320 0 320 0 346 c 0,28,29
 0 375 0 375 20.5 395.5 c 128,-1,30
 41 416 41 416 70 416 c 128,-1,31
 99 416 99 416 119.5 395.5 c 128,-1,32
 140 375 140 375 140 346 c 0,33,34
 140 318 140 318 122 299 c 0,35,36
 106 282 106 282 83 277 c 1,37,-1
 83 108 l 1,38,39
 107 140 107 140 156 148 c 0,40,41
 201 155 201 155 221 171 c 0,42,43
 247 191 247 191 248 214 c 1,44,45
 224 219 224 219 208 238 c 128,-1,46
 192 257 192 257 192 282 c 0,47,48
 192 311 192 311 212.5 331.5 c 128,-1,0
 233 352 233 352 262 352 c 128,-1,1
28 346 m 128,-1,50
 28 329 28 329 40.5 316.5 c 128,-1,51
 53 304 53 304 70 304 c 128,-1,52
 87 304 87 304 99.5 316.5 c 128,-1,53
 112 329 112 329 112 346 c 128,-1,54
 112 363 112 363 99.5 375.5 c 128,-1,55
 87 388 87 388 70 388 c 128,-1,56
 53 388 53 388 40.5 375.5 c 128,-1,49
 28 363 28 363 28 346 c 128,-1,50
112 38 m 128,-1,58
 112 55 112 55 99.5 67.5 c 128,-1,59
 87 80 87 80 70 80 c 128,-1,60
 53 80 53 80 40.5 67.5 c 128,-1,61
 28 55 28 55 28 38 c 128,-1,62
 28 21 28 21 40.5 8.5 c 128,-1,63
 53 -4 53 -4 70 -4 c 128,-1,64
 87 -4 87 -4 99.5 8.5 c 128,-1,57
 112 21 112 21 112 38 c 128,-1,58
262 240 m 128,-1,66
 279 240 279 240 291.5 252.5 c 128,-1,67
 304 265 304 265 304 282 c 128,-1,68
 304 299 304 299 291.5 311.5 c 128,-1,69
 279 324 279 324 262 324 c 128,-1,70
 245 324 245 324 232.5 311.5 c 128,-1,71
 220 299 220 299 220 282 c 128,-1,72
 220 265 220 265 232.5 252.5 c 128,-1,65
 245 240 245 240 262 240 c 128,-1,66
EndSplineSet
Validated: 1
EndChar

StartChar: uniF184
Encoding: 61828 61828 135
Width: 448
Flags: W
LayerCount: 2
Fore
SplineSet
434 206 m 2,0,1
 448 206 448 206 448 192 c 128,-1,2
 448 178 448 178 434 178 c 2,3,-1
 357 178 l 1,4,5
 352 127 352 127 316 94 c 0,6,7
 278 58 278 58 224 58 c 128,-1,8
 170 58 170 58 132 94 c 0,9,10
 96 127 96 127 91 178 c 1,11,-1
 14 178 l 2,12,13
 0 178 0 178 0 192 c 128,-1,14
 0 206 0 206 14 206 c 2,15,-1
 91 206 l 1,16,17
 96 257 96 257 132 290 c 0,18,19
 170 326 170 326 224 326 c 128,-1,20
 278 326 278 326 316 290 c 0,21,22
 352 257 352 257 357 206 c 1,23,-1
 434 206 l 2,0,1
299 117 m 128,-1,25
 330 148 330 148 330 192 c 128,-1,26
 330 236 330 236 299 267 c 128,-1,27
 268 298 268 298 224 298 c 128,-1,28
 180 298 180 298 149 267 c 128,-1,29
 118 236 118 236 118 192 c 128,-1,30
 118 148 118 148 149 117 c 128,-1,31
 180 86 180 86 224 86 c 128,-1,24
 268 86 268 86 299 117 c 128,-1,25
EndSplineSet
Validated: 1
EndChar

StartChar: uniF185
Encoding: 61829 61829 136
Width: 448
Flags: W
LayerCount: 2
Fore
SplineSet
202 120 m 2,0,-1
 261 61 l 2,1,2
 268 54 268 54 268 45 c 0,3,4
 268 37 268 37 261 30 c 2,5,-1
 204 -28 l 2,6,7
 200 -32 200 -32 194 -32 c 0,8,9
 190 -32 190 -32 184 -28 c 0,10,11
 175 -17 175 -17 184 -8 c 2,12,-1
 224 32 l 1,13,-1
 134 32 l 2,14,15
 83 32 83 32 64 77 c 0,16,17
 55 100 55 100 55 142 c 2,18,-1
 55 278 l 1,19,20
 33 282 33 282 17 300 c 0,21,22
 0 320 0 320 0 346 c 0,23,24
 0 375 0 375 20.5 395.5 c 128,-1,25
 41 416 41 416 70 416 c 128,-1,26
 99 416 99 416 119.5 395.5 c 128,-1,27
 140 375 140 375 140 346 c 0,28,29
 140 318 140 318 122 299 c 0,30,31
 106 282 106 282 83 277 c 1,32,-1
 83 142 l 2,33,34
 83 102 83 102 92 83 c 0,35,36
 104 60 104 60 134 60 c 2,37,-1
 223 60 l 1,38,-1
 182 100 l 2,39,40
 178 104 178 104 178 110 c 128,-1,41
 178 116 178 116 182 120 c 128,-1,42
 186 124 186 124 192 124 c 128,-1,43
 198 124 198 124 202 120 c 2,0,-1
70 304 m 128,-1,45
 87 304 87 304 99.5 316.5 c 128,-1,46
 112 329 112 329 112 346 c 128,-1,47
 112 363 112 363 99.5 375.5 c 128,-1,48
 87 388 87 388 70 388 c 128,-1,49
 53 388 53 388 40.5 375.5 c 128,-1,50
 28 363 28 363 28 346 c 128,-1,51
 28 329 28 329 40.5 316.5 c 128,-1,44
 53 304 53 304 70 304 c 128,-1,45
393 106 m 1,52,53
 415 101 415 101 431 84 c 0,54,55
 448 64 448 64 448 38 c 0,56,57
 448 9 448 9 427.5 -11.5 c 128,-1,58
 407 -32 407 -32 378 -32 c 128,-1,59
 349 -32 349 -32 328.5 -11.5 c 128,-1,60
 308 9 308 9 308 38 c 0,61,62
 308 66 308 66 326 85 c 0,63,64
 342 102 342 102 365 107 c 1,65,-1
 365 242 l 2,66,67
 365 281 365 281 356 300 c 0,68,69
 344 324 344 324 314 324 c 2,70,-1
 225 324 l 1,71,-1
 266 284 l 2,72,73
 270 280 270 280 270 274 c 128,-1,74
 270 268 270 268 266 264 c 128,-1,75
 262 260 262 260 256 260 c 128,-1,76
 250 260 250 260 246 264 c 2,77,-1
 187 323 l 2,78,79
 180 330 180 330 180 339 c 0,80,81
 180 347 180 347 187 354 c 2,82,-1
 244 412 l 2,83,84
 248 416 248 416 254 416 c 0,85,86
 258 416 258 416 264 412 c 0,87,88
 273 401 273 401 264 392 c 2,89,-1
 224 352 l 1,90,-1
 314 352 l 2,91,92
 365 352 365 352 384 307 c 0,93,94
 393 284 393 284 393 242 c 2,95,-1
 393 106 l 1,52,53
378 -4 m 128,-1,97
 395 -4 395 -4 407.5 8.5 c 128,-1,98
 420 21 420 21 420 38 c 128,-1,99
 420 55 420 55 407.5 67.5 c 128,-1,100
 395 80 395 80 378 80 c 128,-1,101
 361 80 361 80 348.5 67.5 c 128,-1,102
 336 55 336 55 336 38 c 128,-1,103
 336 21 336 21 348.5 8.5 c 128,-1,96
 361 -4 361 -4 378 -4 c 128,-1,97
EndSplineSet
Validated: 33
EndChar

StartChar: uniF186
Encoding: 61830 61830 137
Width: 384
Flags: W
LayerCount: 2
Fore
SplineSet
314 230 m 0,0,1
 343 230 343 230 363.5 209.5 c 128,-1,2
 384 189 384 189 384 160 c 128,-1,3
 384 131 384 131 363.5 110.5 c 128,-1,4
 343 90 343 90 314 90 c 0,5,6
 289 90 289 90 270 106 c 128,-1,7
 251 122 251 122 246 146 c 1,8,9
 228 146 228 146 196 159 c 0,10,11
 128 185 128 185 83 248 c 1,12,-1
 83 107 l 1,13,14
 106 102 106 102 122 85 c 0,15,16
 140 65 140 65 140 38 c 0,17,18
 140 9 140 9 119.5 -11.5 c 128,-1,19
 99 -32 99 -32 70 -32 c 128,-1,20
 41 -32 41 -32 20.5 -11.5 c 128,-1,21
 0 9 0 9 0 38 c 0,22,23
 0 64 0 64 17 84 c 0,24,25
 33 101 33 101 55 106 c 1,26,-1
 55 278 l 1,27,28
 33 282 33 282 17 300 c 0,29,30
 0 320 0 320 0 346 c 0,31,32
 0 375 0 375 20.5 395.5 c 128,-1,33
 41 416 41 416 70 416 c 128,-1,34
 99 416 99 416 119.5 395.5 c 128,-1,35
 140 375 140 375 140 346 c 0,36,37
 140 297 140 297 95 280 c 1,38,39
 138 212 138 212 206 185 c 0,40,41
 235 174 235 174 245 174 c 1,42,43
 250 198 250 198 269.5 214 c 128,-1,44
 289 230 289 230 314 230 c 0,0,1
112 38 m 128,-1,46
 112 55 112 55 99.5 67.5 c 128,-1,47
 87 80 87 80 70 80 c 128,-1,48
 53 80 53 80 40.5 67.5 c 128,-1,49
 28 55 28 55 28 38 c 128,-1,50
 28 21 28 21 40.5 8.5 c 128,-1,51
 53 -4 53 -4 70 -4 c 128,-1,52
 87 -4 87 -4 99.5 8.5 c 128,-1,45
 112 21 112 21 112 38 c 128,-1,46
70 304 m 128,-1,54
 87 304 87 304 99.5 316.5 c 128,-1,55
 112 329 112 329 112 346 c 128,-1,56
 112 363 112 363 99.5 375.5 c 128,-1,57
 87 388 87 388 70 388 c 128,-1,58
 53 388 53 388 40.5 375.5 c 128,-1,59
 28 363 28 363 28 346 c 128,-1,60
 28 329 28 329 40.5 316.5 c 128,-1,53
 53 304 53 304 70 304 c 128,-1,54
314 118 m 128,-1,62
 331 118 331 118 343.5 130.5 c 128,-1,63
 356 143 356 143 356 160 c 128,-1,64
 356 177 356 177 343.5 189.5 c 128,-1,65
 331 202 331 202 314 202 c 128,-1,66
 297 202 297 202 284.5 189.5 c 128,-1,67
 272 177 272 177 272 160 c 128,-1,68
 272 143 272 143 284.5 130.5 c 128,-1,61
 297 118 297 118 314 118 c 128,-1,62
EndSplineSet
Validated: 1
EndChar

StartChar: uniF187
Encoding: 61831 61831 138
Width: 384
Flags: W
LayerCount: 2
Fore
SplineSet
313 416 m 128,-1,1
 342 416 342 416 363 395 c 128,-1,2
 384 374 384 374 384 345 c 0,3,4
 384 320 384 320 368 300.5 c 128,-1,5
 352 281 352 281 328 276 c 1,6,-1
 328 219 l 2,7,8
 328 214 328 214 324 212 c 2,9,-1
 207 152 l 1,10,-1
 207 108 l 1,11,12
 230 103 230 103 245 85 c 0,13,14
 263 64 263 64 263 39 c 0,15,16
 263 10 263 10 242 -11 c 128,-1,17
 221 -32 221 -32 192 -32 c 128,-1,18
 163 -32 163 -32 142 -11 c 128,-1,19
 121 10 121 10 121 39 c 0,20,21
 121 64 121 64 137 83.5 c 128,-1,22
 153 103 153 103 177 108 c 1,23,-1
 177 152 l 1,24,-1
 60 212 l 2,25,26
 56 214 56 214 56 219 c 2,27,-1
 56 276 l 1,28,29
 33 281 33 281 18 299 c 0,30,31
 0 320 0 320 0 345 c 0,32,33
 0 374 0 374 21 395 c 128,-1,34
 42 416 42 416 71 416 c 128,-1,35
 100 416 100 416 120.5 395 c 128,-1,36
 141 374 141 374 141 345 c 0,37,38
 141 320 141 320 125.5 300.5 c 128,-1,39
 110 281 110 281 86 276 c 1,40,-1
 86 233 l 1,41,-1
 192 178 l 1,42,-1
 298 233 l 1,43,-1
 298 276 l 1,44,45
 275 281 275 281 260 299 c 0,46,47
 243 319 243 319 243 345 c 0,48,49
 243 374 243 374 263.5 395 c 128,-1,0
 284 416 284 416 313 416 c 128,-1,1
30 345 m 128,-1,51
 30 328 30 328 42 316 c 128,-1,52
 54 304 54 304 71 304 c 0,53,54
 87 304 87 304 99 316 c 128,-1,55
 111 328 111 328 111 345 c 128,-1,56
 111 362 111 362 99 374 c 128,-1,57
 87 386 87 386 71 386 c 0,58,59
 54 386 54 386 42 374 c 128,-1,50
 30 362 30 362 30 345 c 128,-1,51
233 39 m 128,-1,61
 233 56 233 56 220.5 68 c 128,-1,62
 208 80 208 80 192 80 c 128,-1,63
 176 80 176 80 163.5 68 c 128,-1,64
 151 56 151 56 151 39 c 128,-1,65
 151 22 151 22 163.5 10 c 128,-1,66
 176 -2 176 -2 192 -2 c 128,-1,67
 208 -2 208 -2 220.5 10 c 128,-1,60
 233 22 233 22 233 39 c 128,-1,61
313 304 m 0,68,69
 330 304 330 304 342 316 c 128,-1,70
 354 328 354 328 354 345 c 128,-1,71
 354 362 354 362 342 374 c 128,-1,72
 330 386 330 386 313 386 c 0,73,74
 297 386 297 386 285 374 c 128,-1,75
 273 362 273 362 273 345 c 128,-1,76
 273 328 273 328 285 316 c 128,-1,77
 297 304 297 304 313 304 c 0,68,69
EndSplineSet
Validated: 1
EndChar

StartChar: uniF188
Encoding: 61832 61832 139
Width: 384
Flags: W
LayerCount: 2
Fore
SplineSet
329 106 m 1,0,1
 351 101 351 101 367 84 c 0,2,3
 384 64 384 64 384 38 c 0,4,5
 384 9 384 9 363.5 -11.5 c 128,-1,6
 343 -32 343 -32 314 -32 c 128,-1,7
 285 -32 285 -32 264.5 -11.5 c 128,-1,8
 244 9 244 9 244 38 c 0,9,10
 244 66 244 66 262 85 c 0,11,12
 278 102 278 102 301 107 c 1,13,-1
 301 242 l 2,14,15
 301 281 301 281 292 300 c 0,16,17
 280 324 280 324 250 324 c 2,18,-1
 173 324 l 1,19,-1
 214 284 l 2,20,21
 218 280 218 280 218 274 c 128,-1,22
 218 268 218 268 214 264 c 128,-1,23
 210 260 210 260 204 260 c 128,-1,24
 198 260 198 260 194 264 c 2,25,-1
 138 320 l 1,26,27
 133 302 133 302 122 291 c 0,28,29
 106 274 106 274 83 269 c 1,30,-1
 83 107 l 1,31,32
 106 102 106 102 122 85 c 0,33,34
 140 65 140 65 140 38 c 0,35,36
 140 9 140 9 119.5 -11.5 c 128,-1,37
 99 -32 99 -32 70 -32 c 128,-1,38
 41 -32 41 -32 20.5 -11.5 c 128,-1,39
 0 9 0 9 0 38 c 0,40,41
 0 64 0 64 17 84 c 0,42,43
 33 101 33 101 55 106 c 1,44,-1
 55 270 l 1,45,46
 33 274 33 274 17 292 c 0,47,48
 0 312 0 312 0 338 c 0,49,50
 0 367 0 367 20.5 387.5 c 128,-1,51
 41 408 41 408 70 408 c 0,52,53
 94 408 94 408 112.5 393.5 c 128,-1,54
 131 379 131 379 137 357 c 1,55,-1
 192 412 l 2,56,57
 196 416 196 416 202 416 c 0,58,59
 206 416 206 416 212 412 c 0,60,61
 221 401 221 401 212 392 c 2,62,-1
 172 352 l 1,63,-1
 250 352 l 2,64,65
 301 352 301 352 320 307 c 0,66,67
 329 284 329 284 329 242 c 2,68,-1
 329 106 l 1,0,1
112 38 m 128,-1,70
 112 55 112 55 99.5 67.5 c 128,-1,71
 87 80 87 80 70 80 c 128,-1,72
 53 80 53 80 40.5 67.5 c 128,-1,73
 28 55 28 55 28 38 c 128,-1,74
 28 21 28 21 40.5 8.5 c 128,-1,75
 53 -4 53 -4 70 -4 c 128,-1,76
 87 -4 87 -4 99.5 8.5 c 128,-1,69
 112 21 112 21 112 38 c 128,-1,70
70 296 m 128,-1,78
 87 296 87 296 99.5 308.5 c 128,-1,79
 112 321 112 321 112 338 c 128,-1,80
 112 355 112 355 99.5 367.5 c 128,-1,81
 87 380 87 380 70 380 c 128,-1,82
 53 380 53 380 40.5 367.5 c 128,-1,83
 28 355 28 355 28 338 c 128,-1,84
 28 321 28 321 40.5 308.5 c 128,-1,77
 53 296 53 296 70 296 c 128,-1,78
314 -4 m 128,-1,86
 331 -4 331 -4 343.5 8.5 c 128,-1,87
 356 21 356 21 356 38 c 128,-1,88
 356 55 356 55 343.5 67.5 c 128,-1,89
 331 80 331 80 314 80 c 128,-1,90
 297 80 297 80 284.5 67.5 c 128,-1,91
 272 55 272 55 272 38 c 128,-1,92
 272 21 272 21 284.5 8.5 c 128,-1,85
 297 -4 297 -4 314 -4 c 128,-1,86
EndSplineSet
Validated: 33
EndChar

StartChar: uniF189
Encoding: 61833 61833 140
Width: 384
Flags: W
LayerCount: 2
Fore
SplineSet
28 416 m 2,0,-1
 256 416 l 1,1,-1
 256 32 l 1,2,-1
 48 32 l 2,3,4
 41 32 41 32 36 26.5 c 128,-1,5
 31 21 31 21 32 14 c 0,6,7
 34 0 34 0 48 0 c 2,8,-1
 368 0 l 2,9,10
 384 0 384 0 384 -16 c 128,-1,11
 384 -32 384 -32 368 -32 c 2,12,-1
 28 -32 l 2,13,14
 16 -32 16 -32 8 -24 c 128,-1,15
 0 -16 0 -16 0 -4 c 2,16,-1
 0 388 l 2,17,18
 0 400 0 400 8 408 c 128,-1,19
 16 416 16 416 28 416 c 2,0,-1
368 32 m 2,20,-1
 304 32 l 1,21,-1
 304 416 l 1,22,-1
 356 416 l 2,23,24
 368 416 368 416 376 408 c 128,-1,25
 384 400 384 400 384 388 c 2,26,-1
 384 48 l 2,27,28
 384 32 384 32 368 32 c 2,20,-1
EndSplineSet
Validated: 1
EndChar

StartChar: uniF18A
Encoding: 61834 61834 141
Width: 416
Flags: W
LayerCount: 2
Fore
SplineSet
208 400 m 2,0,1
 294 400 294 400 355 339 c 128,-1,2
 416 278 416 278 416 192 c 128,-1,3
 416 106 416 106 355 45 c 128,-1,4
 294 -16 294 -16 208 -16 c 2,5,-1
 207 -16 l 2,6,7
 122 -16 122 -16 61 45 c 128,-1,8
 0 106 0 106 0 192 c 128,-1,9
 0 278 0 278 61 339 c 128,-1,10
 122 400 122 400 207 400 c 2,11,-1
 208 400 l 2,0,1
388 206 m 1,12,13
 383 260 383 260 350 303 c 1,14,15
 325 290 325 290 301 282 c 1,16,17
 309 248 309 248 311 206 c 1,18,-1
 388 206 l 1,12,13
194 206 m 1,19,-1
 194 268 l 1,20,21
 164 270 164 270 141 275 c 1,22,23
 134 244 134 244 132 206 c 1,24,-1
 194 206 l 1,19,-1
194 178 m 1,25,-1
 132 178 l 1,26,27
 134 140 134 140 141 109 c 1,28,29
 164 114 164 114 194 116 c 1,30,-1
 194 178 l 1,25,-1
222 178 m 1,31,-1
 222 116 l 1,32,33
 251 114 251 114 274 109 c 1,34,35
 281 140 281 140 283 178 c 1,36,-1
 222 178 l 1,31,-1
222 206 m 1,37,-1
 283 206 l 1,38,39
 281 244 281 244 274 275 c 1,40,41
 251 270 251 270 222 268 c 1,42,-1
 222 206 l 1,37,-1
331 324 m 1,43,44
 300 352 300 352 267 363 c 1,45,46
 282 340 282 340 293 308 c 1,47,48
 309 313 309 313 331 324 c 1,43,44
267 301 m 1,49,50
 250 354 250 354 222 369 c 1,51,-1
 222 295 l 1,52,53
 244 296 244 296 267 301 c 1,49,50
194 369 m 1,54,55
 167 355 167 355 148 301 c 1,56,57
 170 297 170 297 194 295 c 1,58,-1
 194 369 l 1,54,55
148 363 m 1,59,60
 114 352 114 352 85 324 c 1,61,62
 109 312 109 312 122 308 c 1,63,64
 134 343 134 343 148 363 c 1,59,60
66 303 m 1,65,66
 33 261 33 261 28 206 c 1,67,-1
 105 206 l 1,68,69
 107 248 107 248 115 282 c 1,70,71
 98 287 98 287 66 303 c 1,65,66
28 178 m 1,72,73
 33 122 33 122 65 81 c 1,74,75
 88 92 88 92 115 102 c 1,76,77
 107 136 107 136 105 178 c 1,78,-1
 28 178 l 1,72,73
84 60 m 1,79,80
 113 33 113 33 148 21 c 1,81,82
 133 44 133 44 122 76 c 1,83,84
 106 71 106 71 84 60 c 1,79,80
148 83 m 1,85,86
 167 29 167 29 194 15 c 1,87,-1
 194 89 l 1,88,89
 170 87 170 87 148 83 c 1,85,86
222 15 m 1,90,91
 250 30 250 30 267 83 c 1,92,93
 244 88 244 88 222 89 c 1,94,-1
 222 15 l 1,90,91
267 21 m 1,95,96
 301 32 301 32 332 60 c 1,97,98
 310 71 310 71 294 76 c 1,99,100
 284 47 284 47 267 21 c 1,95,96
350 81 m 1,101,102
 383 124 383 124 388 178 c 1,103,-1
 311 178 l 1,104,105
 309 136 309 136 301 102 c 1,106,107
 325 94 325 94 350 81 c 1,101,102
EndSplineSet
Validated: 1
EndChar

StartChar: uniF18B
Encoding: 61835 61835 142
Width: 416
Flags: W
LayerCount: 2
Fore
SplineSet
356 288 m 2,0,1
 381 288 381 288 398.5 270.5 c 128,-1,2
 416 253 416 253 416 228 c 2,3,-1
 416 60 l 2,4,5
 416 35 416 35 398.5 17.5 c 128,-1,6
 381 0 381 0 356 0 c 2,7,-1
 60 0 l 2,8,9
 35 0 35 0 17.5 17.5 c 128,-1,10
 0 35 0 35 0 60 c 2,11,-1
 0 228 l 2,12,13
 0 253 0 253 17.5 270.5 c 128,-1,14
 35 288 35 288 60 288 c 2,15,-1
 356 288 l 2,0,1
295 383 m 2,16,17
 320 388 320 388 338 370 c 0,18,19
 352 356 352 356 352 332 c 2,20,-1
 352 312 l 1,21,-1
 65 312 l 2,22,23
 50 312 50 312 37.5 307 c 128,-1,24
 25 302 25 302 20 298 c 2,25,-1
 16 293 l 1,26,27
 16 308 16 308 30.5 321 c 128,-1,28
 45 334 45 334 60 337 c 2,29,-1
 295 383 l 2,16,17
EndSplineSet
Validated: 33
EndChar

StartChar: uniF18C
Encoding: 61836 61836 143
Width: 384
Flags: W
LayerCount: 2
Fore
SplineSet
142 140 m 2,0,1
 140 140 140 140 140 142 c 2,2,-1
 140 242 l 2,3,4
 140 244 140 244 142 244 c 2,5,-1
 242 244 l 2,6,7
 244 244 244 244 244 242 c 2,8,-1
 244 142 l 2,9,10
 244 140 244 140 242 140 c 2,11,-1
 142 140 l 2,0,1
0 352 m 2,12,13
 0 366 0 366 9 375 c 128,-1,14
 18 384 18 384 32 384 c 2,15,-1
 352 384 l 2,16,17
 366 384 366 384 375 375 c 128,-1,18
 384 366 384 366 384 352 c 2,19,-1
 384 32 l 2,20,21
 384 18 384 18 375 9 c 128,-1,22
 366 0 366 0 352 0 c 2,23,-1
 32 0 l 2,24,25
 18 0 18 0 9 9 c 128,-1,26
 0 18 0 18 0 32 c 2,27,-1
 0 352 l 2,12,13
330 244 m 2,28,29
 344 244 344 244 344 258 c 128,-1,30
 344 272 344 272 330 272 c 2,31,-1
 274 272 l 2,32,33
 272 272 272 272 272 274 c 2,34,-1
 272 330 l 2,35,36
 272 344 272 344 258 344 c 128,-1,37
 244 344 244 344 244 330 c 2,38,-1
 244 274 l 2,39,40
 244 272 244 272 242 272 c 2,41,-1
 142 272 l 2,42,43
 140 272 140 272 140 274 c 2,44,-1
 140 330 l 2,45,46
 140 344 140 344 126 344 c 128,-1,47
 112 344 112 344 112 330 c 2,48,-1
 112 274 l 2,49,50
 112 272 112 272 110 272 c 2,51,-1
 54 272 l 2,52,53
 40 272 40 272 40 258 c 128,-1,54
 40 244 40 244 54 244 c 2,55,-1
 110 244 l 2,56,57
 112 244 112 244 112 242 c 2,58,-1
 112 142 l 2,59,60
 112 140 112 140 110 140 c 2,61,-1
 54 140 l 2,62,63
 40 140 40 140 40 126 c 128,-1,64
 40 112 40 112 54 112 c 2,65,-1
 110 112 l 2,66,67
 112 112 112 112 112 110 c 2,68,-1
 112 54 l 2,69,70
 112 40 112 40 126 40 c 128,-1,71
 140 40 140 40 140 54 c 2,72,-1
 140 110 l 2,73,74
 140 112 140 112 142 112 c 2,75,-1
 242 112 l 2,76,77
 244 112 244 112 244 110 c 2,78,-1
 244 54 l 2,79,80
 244 40 244 40 258 40 c 128,-1,81
 272 40 272 40 272 54 c 2,82,-1
 272 110 l 2,83,84
 272 112 272 112 274 112 c 2,85,-1
 330 112 l 2,86,87
 344 112 344 112 344 126 c 128,-1,88
 344 140 344 140 330 140 c 2,89,-1
 274 140 l 2,90,91
 272 140 272 140 272 142 c 2,92,-1
 272 242 l 2,93,94
 272 244 272 244 274 244 c 2,95,-1
 330 244 l 2,28,29
EndSplineSet
Validated: 1
EndChar

StartChar: uniF18D
Encoding: 61837 61837 144
Width: 341
Flags: W
LayerCount: 2
Fore
SplineSet
32 405 m 2,0,-1
 235 405 l 1,1,-1
 235 -21 l 1,2,-1
 32 -21 l 2,3,4
 18 -21 18 -21 9 -11.5 c 128,-1,5
 0 -2 0 -2 0 11 c 2,6,-1
 0 373 l 2,7,8
 0 386 0 386 9 395.5 c 128,-1,9
 18 405 18 405 32 405 c 2,0,-1
299 405 m 2,10,11
 316 405 316 405 328.5 392.5 c 128,-1,12
 341 380 341 380 341 363 c 2,13,-1
 341 21 l 2,14,15
 341 4 341 4 328.5 -8.5 c 128,-1,16
 316 -21 316 -21 299 -21 c 2,17,-1
 283 -21 l 1,18,-1
 283 405 l 1,19,-1
 299 405 l 2,10,11
EndSplineSet
Validated: 1
EndChar

StartChar: uniF18E
Encoding: 61838 61838 145
Width: 416
Flags: W
LayerCount: 2
Fore
SplineSet
229 201 m 0,0,1
 235 187 235 187 226 176 c 0,2,3
 225 175 225 175 212 162.5 c 128,-1,4
 199 150 199 150 187 138 c 0,5,6
 131 82 131 82 68 6 c 0,7,8
 56 -7 56 -7 44 5 c 2,9,-1
 5 44 l 2,10,11
 -7 56 -7 56 6 68 c 0,12,13
 101 149 101 149 138 186 c 2,14,-1
 177 225 l 2,15,16
 187 235 187 235 200 229 c 0,17,18
 206 226 206 226 207 225 c 2,19,-1
 225 207 l 2,20,21
 227 205 227 205 229 201 c 0,0,1
414 230 m 2,22,23
 418 226 418 226 414 222 c 2,24,-1
 358 167 l 2,25,26
 356 165 356 165 354 165 c 128,-1,27
 352 165 352 165 350 167 c 2,28,-1
 316 201 l 2,29,30
 312 205 312 205 316 209 c 2,31,-1
 318 211 l 2,32,33
 330 221 330 221 318 235 c 0,34,35
 318 236 318 236 317 236 c 128,-1,36
 316 236 316 236 315 237 c 0,37,38
 305 242 305 242 292 242 c 0,39,40
 287 242 287 242 279 240 c 0,41,42
 269 238 269 238 248 217 c 0,43,44
 242 211 242 211 236 217 c 2,45,-1
 217 237 l 2,46,47
 212 242 212 242 217 248 c 0,48,49
 237 271 237 271 236 293 c 0,50,51
 235 322 235 322 205 346 c 0,52,53
 192 356 192 356 160 356 c 0,54,55
 141 356 141 356 137 355 c 2,56,-1
 134 355 l 2,57,58
 124 355 124 355 135 367 c 0,59,60
 136 368 136 368 137 369 c 0,61,62
 152 384 152 384 192 384 c 0,63,64
 217 384 217 384 239 375 c 0,65,66
 288 355 288 355 321 322 c 0,67,68
 339 304 339 304 345 295 c 0,69,70
 348 291 348 291 347 280 c 128,-1,71
 346 269 346 269 350 266 c 0,72,73
 355 261 355 261 362 261 c 128,-1,74
 369 261 369 261 372 264 c 0,75,76
 374 266 374 266 376 266 c 128,-1,77
 378 266 378 266 380 264 c 2,78,-1
 414 230 l 2,22,23
EndSplineSet
Validated: 33
EndChar

StartChar: uniF18F
Encoding: 61839 61839 146
Width: 416
Flags: W
LayerCount: 2
Fore
SplineSet
155 107 m 2,0,1
 155 89 155 89 167 76.5 c 128,-1,2
 179 64 179 64 197 64 c 2,3,-1
 394 64 l 1,4,-1
 394 43 l 2,5,6
 394 25 394 25 382 12.5 c 128,-1,7
 370 0 370 0 352 0 c 2,8,-1
 44 0 l 2,9,10
 26 0 26 0 13 12 c 128,-1,11
 0 24 0 24 0 42 c 2,12,-1
 0 342 l 2,13,14
 0 360 0 360 13 372 c 128,-1,15
 26 384 26 384 44 384 c 2,16,-1
 352 384 l 2,17,18
 369 384 369 384 381.5 371.5 c 128,-1,19
 394 359 394 359 394 341 c 2,20,-1
 394 320 l 1,21,-1
 197 320 l 2,22,23
 179 320 179 320 167 307.5 c 128,-1,24
 155 295 155 295 155 277 c 2,25,-1
 155 107 l 2,0,1
197 262 m 2,26,27
 197 278 197 278 213 278 c 2,28,-1
 400 278 l 2,29,30
 416 278 416 278 416 262 c 2,31,-1
 416 122 l 2,32,33
 416 106 416 106 400 106 c 2,34,-1
 213 106 l 2,35,36
 197 106 197 106 197 122 c 2,37,-1
 197 262 l 2,26,27
274 160 m 0,38,39
 286 161 286 161 294.5 169.5 c 128,-1,40
 303 178 303 178 304 190 c 0,41,42
 305 204 305 204 294.5 214.5 c 128,-1,43
 284 225 284 225 270 224 c 0,44,45
 258 223 258 223 249.5 214.5 c 128,-1,46
 241 206 241 206 240 194 c 0,47,48
 239 180 239 180 249.5 169.5 c 128,-1,49
 260 159 260 159 274 160 c 0,38,39
EndSplineSet
Validated: 33
EndChar

StartChar: uniF190
Encoding: 61840 61840 147
Width: 320
Flags: W
LayerCount: 2
Fore
SplineSet
299 331 m 128,-1,1
 308 331 308 331 314 324.5 c 128,-1,2
 320 318 320 318 320 310 c 2,3,-1
 320 77 l 2,4,5
 320 36 320 36 298.5 10 c 128,-1,6
 277 -16 277 -16 242 -16 c 2,7,-1
 184 -16 l 2,8,9
 173 -16 173 -16 163 -13 c 128,-1,10
 153 -10 153 -10 148 -8 c 2,11,-1
 144 -5 l 2,12,13
 129 4 129 4 110.5 21.5 c 128,-1,14
 92 39 92 39 79 54.5 c 128,-1,15
 66 70 66 70 50 89.5 c 128,-1,16
 34 109 34 109 31 113 c 0,17,18
 0 147 0 147 0 158 c 0,19,20
 0 162 0 162 4 166 c 0,21,22
 27 188 27 188 70 150 c 2,23,-1
 98 126 l 1,24,-1
 98 345 l 2,25,26
 98 353 98 353 104 359 c 128,-1,27
 110 365 110 365 119 365 c 128,-1,28
 128 365 128 365 134 359 c 128,-1,29
 140 353 140 353 140 345 c 2,30,-1
 140 218 l 2,31,32
 140 209 140 209 149 209 c 128,-1,33
 158 209 158 209 158 218 c 2,34,-1
 158 379 l 2,35,36
 158 387 158 387 164 393.5 c 128,-1,37
 170 400 170 400 179 400 c 128,-1,38
 188 400 188 400 194 393.5 c 128,-1,39
 200 387 200 387 200 379 c 2,40,-1
 200 235 l 2,41,42
 200 227 200 227 209 227 c 128,-1,43
 218 227 218 227 218 235 c 2,44,-1
 218 362 l 2,45,46
 218 370 218 370 224 376.5 c 128,-1,47
 230 383 230 383 239 383 c 128,-1,48
 248 383 248 383 254 376.5 c 128,-1,49
 260 370 260 370 260 362 c 2,50,-1
 260 201 l 2,51,52
 260 192 260 192 269 192 c 128,-1,53
 278 192 278 192 278 201 c 2,54,-1
 278 310 l 2,55,56
 278 318 278 318 284 324.5 c 128,-1,0
 290 331 290 331 299 331 c 128,-1,1
EndSplineSet
Validated: 33
EndChar

